<?xml version="1.0" standalone="no"?>
<!DOCTYPE svg PUBLIC "-//W3C//DTD SVG 20010904//EN"
 "http://www.w3.org/TR/2001/REC-SVG-20010904/DTD/svg10.dtd">
<svg version="1.0" xmlns="http://www.w3.org/2000/svg"
 width="300.000000pt" height="157.000000pt" viewBox="0 0 300.000000 157.000000"
 preserveAspectRatio="xMidYMid meet">
<metadata>
Created by potrace 1.10, written by Peter Selinger 2001-2011
</metadata>
<g transform="translate(0.000000,157.000000) scale(0.100000,-0.100000)"
fill="#ffffff" stroke="none">
<path d="M807 874 c-25 -26 -49 -55 -52 -66 -4 -12 -57 -44 -145 -88 -85 -42
-144 -78 -151 -92 -18 -34 6 -154 38 -186 27 -27 -8 -27 348 -2 203 15 225 18
243 32 24 21 41 72 43 132 2 63 -9 81 -73 122 -20 13 -58 54 -84 91 -52 74
-81 102 -104 103 -9 0 -37 -21 -63 -46z m123 -63 c0 -10 9 -21 20 -24 12 -3
20 -14 20 -26 0 -14 19 -33 59 -61 33 -22 62 -44 65 -49 9 -14 -5 -129 -18
-146 -8 -11 -73 -19 -281 -34 -148 -11 -272 -18 -276 -15 -8 4 -43 154 -37
159 1 1 71 37 155 79 136 68 152 78 155 103 2 18 14 35 35 48 18 11 33 29 33
40 0 17 6 14 35 -17 19 -21 35 -46 35 -57z"/>
<path d="M843 830 c-52 -31 -39 -80 21 -80 23 0 27 -3 18 -12 -9 -9 -21 -7
-52 5 -37 14 -42 14 -47 1 -9 -24 30 -55 75 -61 42 -6 102 11 102 29 0 5 -9 4
-19 -2 -11 -5 -39 -10 -63 -9 l-43 1 44 9 c66 13 90 41 57 68 -10 8 -16 9 -21
1 -3 -5 -16 -10 -28 -9 l-22 0 21 9 c31 12 35 24 18 48 -18 27 -21 27 -61 2z"/>
<path d="M800 624 c-124 -6 -242 -12 -263 -13 -35 -1 -38 -3 -31 -23 3 -13 7
-24 9 -25 3 -4 40 -3 155 5 58 4 117 4 132 1 16 -5 30 -3 34 3 4 6 23 8 45 5
22 -3 42 -1 45 4 3 5 29 9 57 9 71 0 97 9 97 31 0 14 -7 19 -27 17 -16 0 -129
-7 -253 -14z"/>
<path d="M974 539 c-3 -5 -22 -9 -42 -9 -126 2 -197 -2 -214 -11 -13 -7 -23
-7 -32 0 -9 7 -36 8 -85 2 -80 -10 -84 -12 -76 -32 4 -12 44 -11 268 4 165 12
265 23 269 30 9 14 11 13 -39 20 -24 3 -46 1 -49 -4z"/>
<path d="M1338 837 c-73 -65 -119 -189 -99 -265 12 -41 59 -92 87 -92 21 0 74
28 102 53 22 21 23 21 54 2 46 -27 108 -28 135 -2 22 19 24 19 42 3 16 -15 27
-15 85 -6 56 9 70 8 90 -5 31 -21 66 -12 102 26 33 35 36 78 7 117 -33 45 -66
50 -110 19 -43 -31 -52 -27 -81 37 -24 50 -44 69 -64 61 -19 -7 -38 -48 -38
-80 0 -31 -14 -39 -34 -20 -12 12 -31 15 -85 12 -65 -4 -74 -8 -128 -51 -33
-25 -62 -46 -66 -46 -15 0 -5 45 20 92 22 41 31 48 49 44 28 -7 64 24 64 56 0
14 -9 37 -21 52 -28 36 -65 34 -111 -7z m96 -26 c14 -27 14 -30 -6 -47 -21
-19 -21 -19 -14 9 15 61 -53 10 -93 -71 -12 -24 -25 -65 -28 -92 -5 -41 -3
-51 11 -56 25 -10 56 8 124 71 63 58 83 61 36 6 -14 -17 -22 -31 -17 -32 4 0
-2 -4 -15 -10 -13 -5 -21 -13 -17 -18 8 -13 -81 -64 -100 -58 -26 11 -48 57
-47 102 1 82 86 224 134 225 10 0 24 -13 32 -29z m279 -58 c3 -5 1 -32 -2 -60
-4 -29 -6 -53 -3 -53 2 0 12 10 22 23 27 32 37 12 12 -23 l-22 -29 30 -23 c16
-12 30 -25 30 -30 0 -15 -27 -8 -45 12 -22 25 -37 26 -33 3 1 -10 -1 -19 -5
-20 -19 -7 -28 -1 -23 15 3 9 6 56 8 104 2 60 7 88 15 88 6 0 14 -3 16 -7z
m-113 -154 c0 -38 -4 -69 -9 -69 -13 0 -21 27 -15 48 4 9 -5 4 -19 -13 -25
-30 -25 -30 -46 -11 -12 11 -21 27 -21 37 0 28 50 81 72 76 10 -3 18 -1 18 5
0 5 5 6 10 3 6 -3 10 -37 10 -76z m301 71 c10 -6 19 -15 19 -21 0 -16 -42 -48
-62 -49 -22 0 -24 -18 -3 -26 7 -3 30 7 50 22 48 36 55 24 12 -20 -41 -42 -50
-43 -77 -16 -28 28 -25 66 6 95 31 29 29 28 55 15z"/>
<path d="M1536 620 c-27 -33 -33 -50 -17 -50 11 0 55 69 48 76 -2 3 -16 -9
-31 -26z"/>
<path d="M2151 846 c-50 -53 -81 -283 -45 -334 8 -12 23 -22 33 -22 22 0 51
30 51 53 0 21 4 21 35 1 19 -13 28 -13 46 -3 18 9 24 9 27 0 2 -7 14 -24 26
-38 28 -32 63 -25 72 15 11 43 15 45 40 21 42 -40 112 -23 143 34 18 34 8 72
-30 109 -34 34 -67 33 -106 -4 l-23 -21 0 70 c0 115 -51 155 -121 96 -25 -21
-34 -24 -37 -13 -8 24 -50 60 -70 60 -10 0 -29 -11 -41 -24z m69 -27 c6 -11
14 -61 17 -112 l6 -92 18 53 c28 81 70 152 90 152 34 0 42 -35 30 -135 -6 -52
-11 -114 -11 -139 0 -35 -3 -44 -14 -40 -22 9 -23 21 -10 149 7 66 11 121 9
123 -7 8 -54 -87 -71 -143 -30 -100 -58 -94 -68 13 -13 132 -18 156 -28 138
-18 -33 -39 -172 -34 -223 6 -53 0 -63 -22 -41 -24 24 -7 197 28 275 21 47 43
55 60 22z m308 -151 c20 -20 14 -38 -23 -59 -19 -12 -35 -25 -35 -30 0 -17 29
-9 60 17 17 15 34 23 38 19 8 -7 -62 -75 -77 -75 -16 0 -41 30 -47 57 -6 21
-1 32 25 55 35 31 42 33 59 16z"/>
</g>
</svg>
