<?xml version="1.0" encoding="UTF-8"?>
<!DOCTYPE svg PUBLIC "-//W3C//DTD SVG 1.1//EN" "http://www.w3.org/Graphics/SVG/1.1/DTD/svg11.dtd">
<svg xmlns="http://www.w3.org/2000/svg" version="1.1" width="512px" height="512px" style="shape-rendering:geometricPrecision; text-rendering:geometricPrecision; image-rendering:optimizeQuality; fill-rule:evenodd; clip-rule:evenodd" xmlns:xlink="http://www.w3.org/1999/xlink">
<g><path style="opacity:1" fill="#fe1e37" d="M 111.5,-0.5 C 205.833,-0.5 300.167,-0.5 394.5,-0.5C 436.008,10.5024 456.175,37.5024 455,80.5C 447.867,115.8 426.701,136.8 391.5,143.5C 346.957,93.4788 291.29,72.9788 224.5,82C 158.045,96.2952 112.712,135.128 88.5,198.5C 88.5654,198.062 88.3988,197.728 88,197.5C 36.1954,240.767 6.6954,296.101 -0.5,363.5C -0.5,279.5 -0.5,195.5 -0.5,111.5C 8.7041,57.4517 39.3708,21.6184 91.5,4C 98.2585,2.28494 104.925,0.784944 111.5,-0.5 Z"/></g>
<g><path style="opacity:0.996" fill="#e60019" d="M 394.5,-0.5 C 396.167,-0.5 397.833,-0.5 399.5,-0.5C 453.548,8.7041 489.382,39.3708 507,91.5C 508.715,98.2585 510.215,104.925 511.5,111.5C 511.5,121.5 511.5,131.5 511.5,141.5C 504.945,183.113 483.945,215.28 448.5,238C 443.036,241.068 437.369,243.568 431.5,245.5C 428.692,207.242 415.359,173.242 391.5,143.5C 426.701,136.8 447.867,115.8 455,80.5C 456.175,37.5024 436.008,10.5024 394.5,-0.5 Z"/></g>
<g><path style="opacity:1" fill="#fefdfe" d="M 391.5,143.5 C 415.359,173.242 428.692,207.242 431.5,245.5C 432.267,321.836 399.267,378.003 332.5,414C 311.194,423.743 288.861,429.576 265.5,431.5C 244.273,432.93 223.606,430.263 203.5,423.5C 210.721,411.724 216.888,399.391 222,386.5C 226.684,369.81 231.351,353.143 236,336.5C 241.712,344.383 249.212,349.716 258.5,352.5C 293.774,359.8 322.607,349.133 345,320.5C 358.148,301.226 365.648,279.892 367.5,256.5C 369.338,208.546 348.671,174.379 305.5,154C 284.9,145.902 263.567,143.235 241.5,146C 185.546,152.956 152.713,184.123 143,239.5C 141.212,263.687 147.212,285.687 161,305.5C 166.432,312.209 173.099,317.209 181,320.5C 182.261,320.241 183.261,319.574 184,318.5C 186.794,310.334 188.461,302 189,293.5C 172.132,267.14 171.132,240.14 186,212.5C 209.852,178.992 241.686,168.159 281.5,180C 311.936,191.798 327.603,214.131 328.5,247C 328.285,254.218 327.618,261.385 326.5,268.5C 323.627,288.753 314.627,305.587 299.5,319C 290.159,325.39 279.826,328.224 268.5,327.5C 251.344,323.221 244.178,312.221 247,294.5C 251.333,279.833 255.667,265.167 260,250.5C 261.814,242.466 261.814,234.466 260,226.5C 251.553,211.56 239.719,208.394 224.5,217C 210.505,229.31 205.005,244.81 208,263.5C 208.951,269.803 210.451,275.97 212.5,282C 204.94,312.407 197.773,342.907 191,373.5C 190.048,380.298 189.548,387.132 189.5,394C 189.718,402.557 190.218,411.057 191,419.5C 120.457,387.749 83.2906,333.083 79.5,255.5C 79.4296,235.991 82.4296,216.991 88.5,198.5C 112.712,135.128 158.045,96.2952 224.5,82C 291.29,72.9788 346.957,93.4788 391.5,143.5 Z"/></g>
<g><path style="opacity:1" fill="#c80000" d="M 511.5,141.5 C 511.5,227.5 511.5,313.5 511.5,399.5C 502.296,453.548 471.629,489.382 419.5,507C 412.741,508.715 406.075,510.215 399.5,511.5C 389.5,511.5 379.5,511.5 369.5,511.5C 327.876,504.941 295.709,483.941 273,448.5C 269.932,443.036 267.432,437.369 265.5,431.5C 288.861,429.576 311.194,423.743 332.5,414C 399.267,378.003 432.267,321.836 431.5,245.5C 437.369,243.568 443.036,241.068 448.5,238C 483.945,215.28 504.945,183.113 511.5,141.5 Z"/></g>
<g><path style="opacity:1" fill="#e6051b" d="M 367.5,256.5 C 353.134,258.174 339.467,262.174 326.5,268.5C 327.618,261.385 328.285,254.218 328.5,247C 327.603,214.131 311.936,191.798 281.5,180C 241.686,168.159 209.852,178.992 186,212.5C 171.132,240.14 172.132,267.14 189,293.5C 188.461,302 186.794,310.334 184,318.5C 183.261,319.574 182.261,320.241 181,320.5C 173.099,317.209 166.432,312.209 161,305.5C 147.212,285.687 141.212,263.687 143,239.5C 152.713,184.123 185.546,152.956 241.5,146C 263.567,143.235 284.9,145.902 305.5,154C 348.671,174.379 369.338,208.546 367.5,256.5 Z"/></g>
<g><path style="opacity:0.999" fill="#e60119" d="M 88.5,198.5 C 82.4296,216.991 79.4296,235.991 79.5,255.5C 83.2906,333.083 120.457,387.749 191,419.5C 190.218,411.057 189.718,402.557 189.5,394C 189.548,387.132 190.048,380.298 191,373.5C 197.773,342.907 204.94,312.407 212.5,282C 210.451,275.97 208.951,269.803 208,263.5C 205.005,244.81 210.505,229.31 224.5,217C 239.719,208.394 251.553,211.56 260,226.5C 261.814,234.466 261.814,242.466 260,250.5C 255.667,265.167 251.333,279.833 247,294.5C 244.178,312.221 251.344,323.221 268.5,327.5C 264.357,335.613 261.024,343.946 258.5,352.5C 249.212,349.716 241.712,344.383 236,336.5C 231.351,353.143 226.684,369.81 222,386.5C 216.888,399.391 210.721,411.724 203.5,423.5C 223.606,430.263 244.273,432.93 265.5,431.5C 267.432,437.369 269.932,443.036 273,448.5C 295.709,483.941 327.876,504.941 369.5,511.5C 283.5,511.5 197.5,511.5 111.5,511.5C 57.4517,502.296 21.6184,471.629 4,419.5C 2.28494,412.741 0.784944,406.075 -0.5,399.5C -0.5,387.5 -0.5,375.5 -0.5,363.5C 6.6954,296.101 36.1954,240.767 88,197.5C 88.3988,197.728 88.5654,198.062 88.5,198.5 Z"/></g>
<g><path style="opacity:1" fill="#c80402" d="M 367.5,256.5 C 365.648,279.892 358.148,301.226 345,320.5C 322.607,349.133 293.774,359.8 258.5,352.5C 261.024,343.946 264.357,335.613 268.5,327.5C 279.826,328.224 290.159,325.39 299.5,319C 314.627,305.587 323.627,288.753 326.5,268.5C 339.467,262.174 353.134,258.174 367.5,256.5 Z"/></g>
</svg>
