<?xml version="1.0" encoding="UTF-8"?>
<!DOCTYPE svg PUBLIC "-//W3C//DTD SVG 1.1//EN" "http://www.w3.org/Graphics/SVG/1.1/DTD/svg11.dtd">
<svg xmlns="http://www.w3.org/2000/svg" version="1.1" width="512px" height="512px" style="shape-rendering:geometricPrecision; text-rendering:geometricPrecision; image-rendering:optimizeQuality; fill-rule:evenodd; clip-rule:evenodd" xmlns:xlink="http://www.w3.org/1999/xlink">
<g><path style="opacity:1" fill="#01ea78" d="M 111.5,-0.5 C 205.833,-0.5 300.167,-0.5 394.5,-0.5C 438.991,11.5109 458.824,40.5109 454,86.5C 448.336,110.658 434.169,127.658 411.5,137.5C 363.578,78.9016 301.912,55.4016 226.5,67C 154.731,84.8723 107.731,129.039 85.5,199.5C 35.249,242.662 6.58235,297.329 -0.5,363.5C -0.5,279.5 -0.5,195.5 -0.5,111.5C 8.7041,57.4517 39.3708,21.6184 91.5,4C 98.2585,2.28494 104.925,0.784944 111.5,-0.5 Z"/></g>
<g><path style="opacity:0.995" fill="#00d264" d="M 394.5,-0.5 C 396.167,-0.5 397.833,-0.5 399.5,-0.5C 453.548,8.7041 489.382,39.3708 507,91.5C 508.715,98.2585 510.215,104.925 511.5,111.5C 511.5,120.167 511.5,128.833 511.5,137.5C 506.434,181.549 485.101,215.215 447.5,238.5C 445.007,201.35 433.007,167.683 411.5,137.5C 434.169,127.658 448.336,110.658 454,86.5C 458.824,40.5109 438.991,11.5109 394.5,-0.5 Z"/></g>
<g><path style="opacity:1" fill="#fdfefe" d="M 411.5,137.5 C 433.007,167.683 445.007,201.35 447.5,238.5C 447.364,320.71 410.698,379.876 337.5,416C 314.452,425.576 290.452,430.743 265.5,431.5C 230.894,431.807 198.727,423.14 169,405.5C 144.167,412.667 119.333,419.833 94.5,427C 90.1019,428.378 86.6019,427.212 84,423.5C 83.3418,419.428 83.6752,415.428 85,411.5C 91.5316,388.073 98.3649,364.739 105.5,341.5C 80.1656,296.823 73.499,249.49 85.5,199.5C 107.731,129.039 154.731,84.8723 226.5,67C 301.912,55.4016 363.578,78.9016 411.5,137.5 Z"/></g>
<g><path style="opacity:1" fill="#04eb78" d="M 373.5,143.5 C 319.813,143.049 266.147,143.549 212.5,145C 185.268,148.409 159.268,155.909 134.5,167.5C 171.558,112.401 223.225,89.2348 289.5,98C 322.646,104.066 350.646,119.233 373.5,143.5 Z"/></g>
<g><path style="opacity:1" fill="#00b950" d="M 511.5,137.5 C 511.5,224.833 511.5,312.167 511.5,399.5C 502.296,453.548 471.629,489.382 419.5,507C 412.741,508.715 406.075,510.215 399.5,511.5C 389.833,511.5 380.167,511.5 370.5,511.5C 328.462,505.302 295.962,484.302 273,448.5C 269.932,443.036 267.432,437.369 265.5,431.5C 290.452,430.743 314.452,425.576 337.5,416C 410.698,379.876 447.364,320.71 447.5,238.5C 485.101,215.215 506.434,181.549 511.5,137.5 Z"/></g>
<g><path style="opacity:1" fill="#03d264" d="M 373.5,143.5 C 403.853,175.874 417.519,214.208 414.5,258.5C 414.663,256.143 414.497,253.81 414,251.5C 408.305,253.172 402.471,254.339 396.5,255C 378.093,254.341 360.093,256.674 342.5,262C 333.548,265.143 325.215,269.309 317.5,274.5C 313.277,272.099 308.944,271.932 304.5,274C 298.833,279.667 293.167,285.333 287.5,291C 286.271,291.781 284.938,292.281 283.5,292.5C 248.176,284.509 226.509,262.842 218.5,227.5C 218.719,226.062 219.219,224.729 220,223.5C 225.333,218.167 230.667,212.833 236,207.5C 238.374,204.199 239.04,200.533 238,196.5C 231.803,183.27 224.97,170.437 217.5,158C 210.833,157.333 204.167,157.333 197.5,158C 179.955,168.612 172.788,184.112 176,204.5C 184.811,262.111 215.644,302.778 268.5,326.5C 257.806,349.025 253.806,372.692 256.5,397.5C 253.914,398.48 251.247,398.813 248.5,398.5C 224.458,396.097 202.125,388.597 181.5,376C 180.167,375.833 178.833,375.667 177.5,375.5C 158.288,380.053 139.288,385.387 120.5,391.5C 120.167,391 119.833,390.5 119.5,390C 125.147,371.078 130.48,352.078 135.5,333C 130.563,322.286 125.73,311.453 121,300.5C 104.454,253.864 108.954,209.53 134.5,167.5C 159.268,155.909 185.268,148.409 212.5,145C 266.147,143.549 319.813,143.049 373.5,143.5 Z"/></g>
<g><path style="opacity:1" fill="#fdfefe" d="M 317.5,274.5 C 329.704,280.185 341.537,286.518 353,293.5C 353.667,300.5 353.667,307.5 353,314.5C 339.814,334.023 321.647,340.857 298.5,335C 288.272,332.867 278.272,330.034 268.5,326.5C 215.644,302.778 184.811,262.111 176,204.5C 172.788,184.112 179.955,168.612 197.5,158C 204.167,157.333 210.833,157.333 217.5,158C 224.97,170.437 231.803,183.27 238,196.5C 239.04,200.533 238.374,204.199 236,207.5C 230.667,212.833 225.333,218.167 220,223.5C 219.219,224.729 218.719,226.062 218.5,227.5C 226.509,262.842 248.176,284.509 283.5,292.5C 284.938,292.281 286.271,291.781 287.5,291C 293.167,285.333 298.833,279.667 304.5,274C 308.944,271.932 313.277,272.099 317.5,274.5 Z"/></g>
<g><path style="opacity:0.998" fill="#01d264" d="M 85.5,199.5 C 73.499,249.49 80.1656,296.823 105.5,341.5C 98.3649,364.739 91.5316,388.073 85,411.5C 83.6752,415.428 83.3418,419.428 84,423.5C 86.6019,427.212 90.1019,428.378 94.5,427C 119.333,419.833 144.167,412.667 169,405.5C 198.727,423.14 230.894,431.807 265.5,431.5C 267.432,437.369 269.932,443.036 273,448.5C 295.962,484.302 328.462,505.302 370.5,511.5C 284.167,511.5 197.833,511.5 111.5,511.5C 57.4517,502.296 21.6184,471.629 4,419.5C 2.28494,412.741 0.784944,406.075 -0.5,399.5C -0.5,387.5 -0.5,375.5 -0.5,363.5C 6.58235,297.329 35.249,242.662 85.5,199.5 Z"/></g>
<g><path style="opacity:1" fill="#03b950" d="M 414.5,258.5 C 409.054,313.592 382.387,354.758 334.5,382C 307.239,395.72 278.572,401.22 248.5,398.5C 251.247,398.813 253.914,398.48 256.5,397.5C 253.806,372.692 257.806,349.025 268.5,326.5C 278.272,330.034 288.272,332.867 298.5,335C 321.647,340.857 339.814,334.023 353,314.5C 353.667,307.5 353.667,300.5 353,293.5C 341.537,286.518 329.704,280.185 317.5,274.5C 325.215,269.309 333.548,265.143 342.5,262C 360.093,256.674 378.093,254.341 396.5,255C 402.471,254.339 408.305,253.172 414,251.5C 414.497,253.81 414.663,256.143 414.5,258.5 Z"/></g>
</svg>
