<?xml version="1.0" standalone="no"?>
<!DOCTYPE svg PUBLIC "-//W3C//DTD SVG 20010904//EN"
 "http://www.w3.org/TR/2001/REC-SVG-20010904/DTD/svg10.dtd">
<svg version="1.0" xmlns="http://www.w3.org/2000/svg"
 width="300.000000pt" height="300.000000pt" viewBox="0 0 300.000000 300.000000"
 preserveAspectRatio="xMidYMid meet">
<metadata>
Created by potrace 1.10, written by Peter Selinger 2001-2011
</metadata>
<g transform="translate(0.000000,300.000000) scale(0.050000,-0.050000)"
fill="#ffffff" stroke="none">
<path d="M2688 3891 c-158 -32 -287 -119 -288 -196 0 -109 48 -336 71 -328 12
5 33 -8 46 -29 22 -35 42 -37 283 -25 180 9 260 7 260 -8 0 -23 131 4 170 35
11 9 44 -10 75 -41 l55 -57 -81 -76 c-106 -99 -193 -146 -272 -146 -35 0 -67
-8 -70 -17 -17 -42 -117 -45 -117 -3 0 25 13 40 35 40 19 0 47 8 61 17 36 23
-67 91 -112 73 -28 -10 -29 -15 -4 -30 25 -16 26 -22 2 -44 -15 -14 -22 -16
-15 -3 16 28 -38 75 -66 57 -12 -7 -16 -21 -10 -32 7 -10 0 -17 -15 -13 -15 3
-24 -9 -20 -28 6 -38 -26 -63 -86 -69 -59 -5 -84 24 -80 92 2 33 -5 60 -16 60
-10 0 -14 -17 -9 -37 8 -29 1 -36 -27 -28 -21 5 -33 18 -27 27 18 29 -11 21
-44 -12 -16 -16 -52 -30 -80 -30 -27 0 -67 -9 -88 -21 -67 -35 -217 -57 -206
-29 12 33 97 70 158 70 27 0 83 18 124 40 43 23 113 40 164 40 103 0 261 58
261 95 0 19 -75 25 -305 27 -336 1 -356 8 -86 29 171 13 177 15 125 42 -30 15
-54 38 -54 50 0 12 -12 17 -28 11 -15 -6 -37 -1 -48 10 -15 15 -30 12 -52 -9
-16 -17 -26 -34 -21 -39 5 -5 -11 -8 -36 -6 -54 4 -115 -30 -115 -65 0 -33
-11 -32 -71 7 -45 30 -53 30 -98 0 -62 -40 -71 -40 -73 3 -1 21 -5 25 -11 10
-6 -14 -19 -20 -29 -14 -10 6 -27 6 -38 -1 -25 -15 20 -90 55 -90 34 0 31 -61
-6 -109 -51 -68 -38 -134 23 -119 48 12 50 10 30 -28 -12 -23 -16 -55 -10 -73
8 -21 1 -31 -22 -31 -18 0 -39 18 -44 41 -16 61 -52 37 -86 -58 -23 -68 -24
-92 -4 -123 22 -36 19 -40 -25 -40 -35 0 -59 -18 -81 -60 -17 -33 -40 -60 -51
-60 -10 0 -19 -9 -19 -21 0 -12 55 -20 135 -19 74 0 161 1 193 1 33 0 64 -9
71 -19 7 -12 41 -13 87 -3 60 14 74 11 74 -13 0 -20 11 -26 32 -18 72 28 124
34 135 17 6 -10 97 -15 201 -12 110 4 195 -2 202 -13 7 -12 47 -15 91 -7 53 8
79 5 79 -10 0 -30 70 -29 117 0 28 17 53 17 102 0 36 -12 76 -16 88 -9 12 8
63 15 113 16 l90 2 -5 -321 c-12 -850 -12 -851 -52 -863 -62 -20 -68 15 -42
252 37 338 13 912 -37 894 -13 -4 -21 -24 -18 -43 4 -19 -1 -30 -10 -25 -25
15 -29 -247 -5 -320 12 -36 16 -75 8 -87 -13 -21 -30 -274 -28 -417 1 -76 -38
-282 -54 -282 -40 0 -64 64 -55 146 53 477 46 894 -16 969 -24 29 -64 34 -47
6 6 -10 4 -23 -5 -29 -10 -6 -14 -71 -10 -146 7 -136 9 -223 7 -316 -1 -27 -1
-61 -1 -75 1 -24 -14 -270 -18 -300 -1 -8 -15 -15 -32 -15 -16 0 -30 -9 -30
-20 0 -11 9 -20 20 -20 23 0 24 -92 2 -150 -19 -47 -62 14 -62 88 0 22 -11 46
-25 54 -14 8 -18 7 -10 -2 8 -9 -1 -27 -20 -41 -19 -14 -36 -36 -37 -47 -2
-12 -4 -35 -5 -52 -4 -41 -35 -38 -54 5 -8 19 -17 238 -21 485 -7 490 -22 630
-69 630 -27 0 -36 -439 -19 -890 2 -38 -5 -115 -14 -170 -36 -208 -70 -41 -76
378 -6 354 -34 683 -62 710 -56 57 -77 -136 -39 -358 4 -27 13 -219 20 -425
11 -347 3 -422 -39 -355 -7 12 -19 17 -27 12 -8 -5 -16 42 -18 104 -13 396
-53 940 -72 974 -12 22 -20 46 -17 54 2 8 -9 10 -24 4 -29 -11 -38 -328 -9
-328 8 0 11 -25 8 -55 -3 -30 -1 -64 6 -75 7 -11 14 -74 16 -140 2 -66 9 -187
16 -270 25 -279 -39 -108 -98 265 -71 448 -88 539 -110 574 -50 80 -37 -147
26 -469 4 -22 18 -94 30 -160 12 -66 26 -147 33 -180 32 -171 32 -185 3 -196
-50 -19 -71 30 -103 247 -39 268 -110 695 -124 756 -19 80 -47 3 -35 -97 6
-49 15 -121 19 -160 4 -38 26 -173 49 -300 23 -126 46 -257 51 -291 4 -33 17
-84 28 -113 15 -40 13 -59 -9 -77 -78 -64 -100 10 -159 531 -45 403 -71 552
-93 538 -10 -6 -13 -49 -7 -95 7 -46 15 -115 18 -155 3 -40 12 -82 20 -95 8
-12 5 -39 -6 -58 -19 -32 -21 -32 -21 -2 -2 86 -87 399 -104 382 -11 -11 -10
-40 2 -73 12 -30 20 -74 20 -98 -1 -24 -14 4 -30 62 -34 124 -63 184 -90 184
-27 0 -25 -10 31 -249 28 -116 69 -326 92 -466 22 -139 45 -260 50 -269 6 -8
-4 -82 -21 -165 -42 -202 -21 -252 26 -63 l23 88 85 -25 c559 -168 2095 -158
2095 13 0 10 -17 8 -39 -3 -21 -12 -46 -21 -55 -21 -18 0 -16 352 5 750 15
302 15 330 -1 347 -38 37 -80 -201 -99 -555 -5 -103 -14 -192 -19 -197 -5 -5
-1 -30 9 -56 10 -27 10 -52 0 -58 -10 -7 -9 -42 2 -83 11 -39 15 -84 9 -100
-6 -15 -2 -28 9 -28 60 0 4 -40 -82 -58 -143 -31 -144 -31 -127 43 17 73 15
977 -3 1058 -13 60 61 86 186 65 43 -7 65 -2 65 13 0 16 23 21 70 13 39 -6 70
-5 70 2 0 8 63 17 139 20 172 7 334 84 178 84 -21 0 -37 9 -37 20 0 11 -14 20
-31 20 -24 0 -26 8 -9 40 15 28 14 50 -4 80 -37 57 -96 52 -96 -9 0 -85 -36
-151 -82 -151 -37 0 -39 4 -16 32 23 28 22 32 -12 25 -22 -4 -43 -25 -47 -47
-14 -75 -191 -84 -296 -16 -30 20 -55 22 -90 8 -173 -72 -808 -48 -947 35 -37
23 -259 1 -281 -27 -18 -23 -31 -19 -75 21 -57 53 -168 66 -263 29 -45 -17
-61 -11 -116 42 l-64 61 105 101 105 100 185 -9 c231 -12 434 -49 476 -87 26
-23 57 -25 170 -9 76 11 221 20 322 21 101 0 209 10 240 22 31 12 108 30 172
40 64 11 134 30 154 43 44 27 297 -50 327 -100 17 -29 73 0 73 38 0 44 -188
297 -218 292 -21 -3 -34 13 -38 48 -8 72 -65 118 -151 124 -93 6 -102 18 -64
91 59 113 -26 342 -126 342 -16 0 -39 13 -51 30 -49 65 -583 136 -543 72 7
-12 0 -22 -17 -22 -16 0 -35 9 -42 20 -15 24 -42 23 -202 -9z m92 -194 c0 -32
-11 -57 -25 -57 -14 -1 -3 -18 23 -38 31 -24 44 -49 36 -69 -16 -41 -54 -43
-54 -4 0 15 -13 41 -29 58 -25 24 -25 33 -3 51 28 23 21 114 -10 133 -10 6
-18 21 -18 33 0 12 18 6 40 -14 22 -20 40 -62 40 -93z m478 62 c47 -64 44
-119 -5 -119 -36 0 -58 54 -30 72 15 9 11 20 -10 32 -34 18 -46 76 -17 76 9 0
37 -28 62 -61z m-298 -15 c-1 -29 -3 -30 -20 -4 -28 43 -26 -11 1 -63 16 -28
16 -47 0 -66 -16 -19 -13 -32 9 -51 16 -14 30 -42 30 -62 0 -41 -30 -51 -50
-18 -7 12 -21 16 -30 10 -10 -6 -17 17 -16 50 1 36 -12 71 -32 86 -27 20 -30
36 -14 78 10 28 13 58 6 66 -8 8 6 9 31 1 28 -9 45 -5 45 9 0 12 9 17 20 10
11 -7 20 -28 20 -46z m419 27 c14 -16 19 -39 12 -50 -22 -36 -46 -23 -56 29
-11 56 8 65 44 21z m-222 -50 c4 -31 -2 -43 -20 -37 -15 5 -30 30 -34 55 -4
31 2 43 20 37 15 -5 30 -30 34 -55z m339 25 c32 -32 32 -33 -3 -20 -31 12 -36
7 -27 -27 7 -27 2 -38 -13 -33 -12 5 -20 21 -15 37 4 15 7 38 8 52 1 33 10 32
50 -9z m-867 -37 c35 -37 46 -69 40 -113 -15 -118 -66 -89 -60 34 2 37 -2 64
-9 60 -7 -4 -28 10 -46 31 -54 62 17 51 75 -12z m451 -58 c22 -49 40 -98 40
-108 0 -11 11 -24 25 -29 34 -12 16 -28 -53 -45 -49 -13 -57 -10 -46 18 8 20
-1 40 -26 53 -30 16 -37 40 -34 110 5 116 41 116 94 1z m253 -80 c-6 -17 -31
-31 -54 -31 -41 0 -39 19 10 73 27 30 60 -1 44 -42z m130 34 c21 -21 8 -66
-19 -64 -8 0 -29 21 -47 46 -37 51 18 66 66 18z m125 -144 c-5 -4 -19 2 -32
15 -13 13 -38 24 -55 24 -27 -1 -27 -3 -1 -20 26 -17 25 -19 -3 -20 -51 0 -56
45 -9 90 l42 41 33 -61 c18 -33 30 -64 25 -69z m-188 39 c0 -11 0 -26 0 -33 1
-8 -22 -16 -50 -19 -54 -6 -63 11 -26 48 29 29 76 32 76 4z m-584 -77 c4 -23
-3 -43 -14 -43 -26 0 -65 71 -48 88 24 23 56 0 62 -45z m787 -126 c22 -74 21
-90 -19 -159 -24 -42 -44 -94 -44 -116 0 -54 -27 -66 -72 -32 -22 16 -27 29
-13 29 14 1 25 11 25 22 0 12 -8 16 -18 10 -9 -6 -17 1 -17 14 1 14 0 45 -2
70 l-3 44 -71 -40 c-39 -22 -95 -55 -125 -74 -29 -19 28 43 127 139 208 203
200 200 232 93z m237 -78 c0 -109 -152 -238 -209 -176 -15 16 -14 19 3 9 16
-8 52 24 97 87 69 96 109 125 109 80z m-1741 -58 c29 -54 29 -54 -48 -45 -66
8 -84 37 -41 69 35 25 68 16 89 -24z m1811 -101 c-39 -43 -110 -55 -110 -18 0
12 11 18 24 13 13 -4 41 10 61 30 50 50 72 27 25 -25z m-399 -656 c-6 -20 -11
-157 -11 -305 -1 -360 -2 -603 -3 -617 -1 -7 0 -21 3 -32 22 -102 -12 -221
-53 -187 -24 20 -34 19 -50 -4 -15 -22 -17 -18 -8 14 41 145 52 1019 14 1112
-22 54 -20 55 49 55 59 0 69 -6 59 -36z m-1711 -464 c2 17 11 3 21 -30 12 -39
11 -66 -4 -80 -16 -14 -20 -11 -12 13 8 21 1 31 -18 30 -23 -2 -33 21 -38 87
l-6 90 27 -70 c15 -38 28 -56 30 -40z"/>
<path d="M2081 3382 c-26 -7 -52 -24 -56 -38 -10 -29 27 -33 45 -4 6 11 41 28
76 38 36 10 46 18 24 18 -22 0 -62 -6 -89 -14z"/>
<path d="M2645 3128 c23 -22 -33 -65 -58 -45 -32 26 -53 -12 -37 -63 12 -38
17 -37 80 23 65 61 74 97 25 97 -12 0 -16 -5 -10 -12z"/>
<path d="M4016 2435 c-18 -14 -42 -74 -55 -135 -12 -60 -27 -132 -33 -160 -26
-118 -22 -783 5 -756 17 18 30 111 37 276 6 138 17 277 24 310 8 33 14 98 16
144 1 47 8 90 14 97 7 6 5 36 -3 65 -9 33 -4 80 13 119 30 72 28 76 -18 40z"/>
<path d="M4122 2386 c-12 -42 -26 -130 -33 -196 -19 -183 -24 -217 -39 -255
-11 -27 -4 -35 29 -35 34 0 43 10 38 45 -3 25 7 66 21 92 49 91 71 403 28 418
-14 4 -32 -25 -44 -69z"/>
<path d="M3671 2377 c-18 -78 -29 -360 -17 -420 22 -110 66 -66 69 68 1 69 5
177 7 240 5 124 -38 204 -59 112z"/>
<path d="M2770 2294 c-8 -47 -7 -149 1 -225 8 -76 14 -211 13 -299 -3 -351 85
-438 96 -95 9 275 9 290 -9 445 -28 249 -77 334 -101 174z"/>
<path d="M4175 1995 c-49 -157 -62 -249 -37 -264 23 -14 28 6 62 216 27 169
18 187 -25 48z"/>
<path d="M3639 1823 c11 -21 14 -43 7 -50 -7 -7 -2 -13 12 -13 13 0 19 -9 12
-20 -7 -11 -5 -20 5 -20 9 0 17 32 17 70 0 55 -8 70 -37 70 -29 0 -33 -7 -16
-37z"/>
<path d="M4050 1781 c-18 -30 5 -121 30 -121 11 0 20 14 20 30 0 17 -11 30
-25 30 -17 1 -15 7 5 19 22 14 24 25 7 42 -17 17 -26 17 -37 0z"/>
<path d="M1148 1723 c9 -14 3 -18 -16 -11 -17 6 -42 4 -56 -4 -14 -9 -57 -18
-96 -21 -38 -2 -88 -8 -110 -13 -22 -5 -53 1 -68 14 -24 18 -25 15 -6 -20 12
-24 16 -50 8 -59 -8 -8 -4 -10 9 -2 13 7 29 -3 36 -22 10 -27 17 -28 30 -7 10
16 21 19 29 6 6 -11 29 -16 50 -10 21 5 54 1 74 -10 21 -11 58 -12 94 -2 33 9
73 9 91 0 18 -11 46 -9 69 5 30 17 41 17 48 0 4 -12 24 -18 45 -13 49 13 71
-28 38 -69 -23 -27 -23 -30 0 -16 17 10 35 5 46 -11 14 -21 17 -18 13 12 -3
22 3 45 14 50 11 6 20 -8 20 -30 0 -26 15 -42 45 -46 25 -4 45 3 45 16 0 12
-10 16 -23 8 -15 -9 -18 -5 -7 12 10 16 2 36 -22 54 -21 15 -38 34 -38 42 0 8
-7 12 -14 9 -8 -2 -5 18 8 45 12 28 31 50 40 50 10 0 13 9 6 19 -6 11 -77 19
-156 19 -80 -1 -171 6 -203 13 -40 11 -53 8 -43 -8z"/>
<path d="M511 1678 c5 -9 27 -12 48 -8 44 8 62 -26 49 -93 -7 -37 -5 -39 7
-11 9 21 23 35 31 33 8 -2 33 1 55 7 51 13 51 54 -1 54 -22 0 -40 -11 -40 -24
0 -13 -12 -7 -28 14 -26 36 -142 62 -121 28z"/>
<path d="M4069 1556 c-1 -92 0 -92 40 -13 40 80 39 95 -4 92 -27 -2 -35 -21
-36 -79z"/>
<path d="M3781 985 c1 -77 5 -87 20 -50 10 25 12 59 5 77 -6 18 1 40 16 50 22
14 21 17 -7 18 -29 0 -35 -17 -34 -95z"/>
<path d="M1667 975 c-27 -43 -24 -72 9 -85 18 -7 27 -6 20 1 -8 7 -5 35 5 61
19 51 -6 68 -34 23z"/>
</g>
</svg>
