<?xml version="1.0" standalone="no"?>
<!DOCTYPE svg PUBLIC "-//W3C//DTD SVG 20010904//EN"
 "http://www.w3.org/TR/2001/REC-SVG-20010904/DTD/svg10.dtd">
<svg version="1.0" xmlns="http://www.w3.org/2000/svg"
 width="900.000000pt" height="744.000000pt" viewBox="0 0 900.000000 744.000000"
 preserveAspectRatio="xMidYMid meet">
<metadata>
Created by potrace 1.10, written by Peter Selinger 2001-2011
</metadata>
<g transform="translate(0.000000,744.000000) scale(0.100000,-0.100000)"
fill="#ffffff" stroke="none">
<path d="M1450 6249 c-19 -5 -55 -13 -80 -18 -141 -28 -345 -146 -423 -246
-44 -56 -117 -164 -117 -174 0 -5 -8 -24 -17 -43 -9 -18 -22 -45 -30 -60 -7
-14 -13 -34 -13 -45 0 -10 -7 -38 -16 -63 -23 -65 -23 -366 0 -430 9 -25 16
-54 16 -66 0 -11 7 -29 15 -40 8 -10 15 -26 15 -35 0 -9 14 -35 30 -57 17 -23
30 -47 30 -53 0 -14 178 -189 192 -189 6 0 27 -12 47 -27 65 -50 163 -89 331
-134 25 -6 94 -14 153 -16 104 -5 113 -3 190 27 110 42 140 57 222 109 83 53
155 119 155 142 0 42 -64 64 -100 35 -35 -28 -119 -57 -263 -91 -61 -14 -77
-14 -170 0 -103 16 -129 23 -202 56 -22 9 -47 20 -55 24 -106 43 -229 174
-297 313 -55 113 -78 221 -77 352 2 124 38 288 72 322 7 7 12 17 12 23 0 28
102 124 162 153 120 58 283 78 391 48 107 -30 158 -48 201 -72 22 -13 51 -28
63 -33 11 -5 24 -15 28 -20 3 -6 14 -11 24 -11 10 0 24 -7 31 -15 17 -20 43
-19 64 4 23 25 56 91 56 111 0 9 7 25 15 36 21 28 18 58 -7 81 -36 32 -145 83
-178 83 -10 0 -45 7 -77 15 -64 17 -333 19 -393 4z m-530 -1074 c0 -7 5 -17
10 -20 6 -4 17 -22 24 -40 19 -44 115 -175 179 -243 28 -29 48 -54 46 -57 -19
-18 -199 123 -199 155 0 7 -13 29 -28 49 -44 58 -72 134 -72 197 l0 39 20 -33
c11 -18 20 -39 20 -47z"/>
<path d="M3180 6244 c-19 -7 -43 -13 -52 -13 -24 -1 -31 -16 -44 -101 -11 -72
-22 -109 -51 -177 -7 -18 -20 -49 -28 -68 -27 -63 -47 -110 -55 -126 -4 -8
-40 -91 -80 -184 -40 -93 -75 -176 -80 -184 -9 -20 -58 -131 -86 -196 -27 -65
-43 -100 -73 -168 -17 -37 -31 -70 -31 -73 0 -17 -91 -186 -116 -213 -39 -44
-85 -71 -122 -71 -18 0 -32 -6 -36 -16 -9 -24 -7 -62 4 -69 5 -3 128 -6 272
-6 262 -1 263 0 275 22 8 16 8 28 1 45 -9 20 -19 24 -52 24 -49 0 -111 44
-119 86 -11 58 49 227 92 261 12 9 102 12 343 13 l327 0 25 -32 c25 -33 56
-109 75 -184 8 -29 8 -50 0 -72 -12 -35 -64 -72 -101 -72 -29 0 -48 -17 -48
-45 0 -46 -2 -46 339 -46 177 0 326 3 331 6 6 4 10 21 10 40 0 35 -13 45 -56
45 -35 0 -79 31 -116 81 -33 44 -52 80 -102 194 -15 33 -33 73 -41 88 -8 16
-15 33 -15 38 0 5 -14 39 -31 76 -30 68 -46 103 -73 168 -9 20 -22 51 -30 70
-38 88 -49 112 -62 138 -8 16 -14 33 -14 38 0 9 -49 121 -75 172 -8 16 -15 33
-15 38 0 5 -14 39 -31 76 -48 109 -54 122 -103 238 -25 61 -46 117 -46 126 0
22 -32 49 -56 48 -10 -1 -35 -7 -54 -15z m59 -240 c12 -15 21 -33 21 -40 0 -8
4 -22 10 -32 22 -37 49 -121 41 -126 -10 -7 -141 129 -141 145 0 26 25 79 36
79 7 0 22 -12 33 -26z m-69 -176 c0 -18 7 -46 15 -62 8 -15 15 -34 15 -41 0
-7 14 -43 30 -80 17 -37 30 -73 30 -80 0 -7 7 -18 15 -25 8 -7 15 -22 15 -34
0 -12 7 -31 15 -42 8 -10 15 -25 15 -31 0 -14 49 -125 80 -185 22 -41 26 -73
9 -84 -14 -8 -525 -8 -539 1 -18 11 -11 46 24 119 18 39 43 96 56 126 12 30
26 59 31 65 5 5 9 17 9 26 0 10 7 30 15 46 49 95 105 244 105 278 0 28 8 35
37 35 19 0 23 -5 23 -32z m268 -303 c7 -14 12 -31 12 -38 -1 -17 -40 32 -40
49 0 23 16 16 28 -11z m60 -143 c4 -37 -13 -43 -22 -9 -9 35 -7 49 7 45 6 -3
13 -19 15 -36z m62 -128 c42 -83 73 -155 100 -235 14 -43 31 -83 37 -90 28
-36 96 -188 90 -203 -7 -18 -81 -23 -92 -7 -3 5 -11 58 -17 117 -10 92 -15
112 -35 130 -13 12 -23 25 -23 29 0 5 -27 37 -60 71 -54 56 -60 66 -53 91 4
15 7 56 6 91 -1 75 11 77 47 6z"/>
<path d="M6160 6228 c-17 -6 -21 -15 -18 -45 3 -34 6 -38 38 -44 60 -11 107
-37 139 -78 l31 -39 0 -606 0 -606 -24 -38 c-13 -21 -35 -45 -47 -53 -29 -17
-114 -47 -149 -51 -21 -2 -26 -9 -28 -39 -5 -55 8 -59 128 -48 68 7 282 8 602
4 l496 -7 66 66 c36 37 66 73 66 81 0 7 6 26 14 42 19 38 46 130 46 158 0 34
-28 58 -58 50 -26 -6 -61 -42 -62 -62 0 -17 -114 -110 -158 -130 -107 -47
-142 -57 -277 -73 -80 -10 -102 -8 -207 12 -66 12 -101 43 -117 103 -6 23 -11
134 -11 265 0 281 -5 270 118 270 50 0 116 -7 157 -17 58 -15 78 -26 127 -71
66 -62 83 -60 112 10 10 24 22 50 27 58 5 8 12 22 15 30 16 42 77 160 85 165
5 4 9 19 9 36 0 25 -4 29 -28 29 -18 0 -38 -11 -57 -30 -16 -16 -35 -30 -43
-30 -8 0 -26 -6 -40 -14 -63 -34 -138 -45 -296 -47 -145 -2 -160 -1 -172 16
-11 15 -14 69 -14 239 0 328 6 339 174 358 81 9 122 9 170 0 35 -7 77 -12 94
-12 17 0 33 -4 37 -9 3 -5 18 -12 35 -16 46 -10 87 -63 114 -147 7 -23 49 -24
70 -2 9 8 16 30 16 47 0 18 6 52 14 77 41 130 47 159 35 181 l-11 22 -287 -9
c-343 -11 -727 -9 -833 3 -42 5 -86 5 -98 1z m358 -158 c23 -21 23 -38 1 -98
-5 -13 -9 -87 -9 -165 -1 -133 -2 -140 -15 -108 -10 21 -15 67 -15 127 0 51
-5 124 -12 162 -17 99 1 127 50 82z m-5 -499 c4 -50 11 -69 31 -90 36 -37 34
-81 -4 -124 l-30 -35 -1 -216 c-1 -204 -6 -243 -29 -220 -5 5 -5 56 -1 114 5
68 4 110 -3 118 -6 9 -6 19 0 30 7 11 7 55 2 122 -8 101 -1 366 9 384 10 16
20 -18 26 -83z m16 -760 c31 -72 28 -87 -16 -94 -21 -4 -42 -2 -50 5 -15 12
-17 47 -4 80 5 13 12 31 15 41 10 31 33 18 55 -32z"/>
<path d="M4250 6210 c-22 -41 -9 -63 45 -75 99 -24 120 -40 148 -113 15 -38
17 -106 17 -617 0 -511 -2 -579 -17 -617 -9 -24 -23 -52 -32 -62 -22 -26 -90
-56 -128 -56 -36 0 -48 -21 -37 -64 l6 -25 325 -3 c178 -2 333 0 344 4 16 6
20 15 17 45 -3 37 -4 38 -49 44 -74 11 -108 35 -142 100 -16 32 -18 79 -18
631 0 570 1 599 20 635 10 21 27 46 38 55 27 25 87 48 123 48 30 0 31 1 28 43
l-3 42 -337 3 c-332 2 -337 2 -348 -18z m369 -134 c8 -9 8 -28 1 -65 -5 -28
-10 -105 -11 -170 -1 -93 -4 -121 -15 -125 -8 -3 -14 0 -15 7 0 7 -3 68 -5
137 -2 69 -6 149 -7 178 -2 47 -1 52 19 52 12 0 27 -6 33 -14z m-10 -527 c0
-49 2 -92 4 -96 6 -9 -12 -249 -19 -273 -14 -43 -20 32 -17 247 1 131 3 240 3
243 0 3 7 -4 15 -14 11 -14 15 -45 14 -107z m-5 -408 c3 -5 -1 -14 -9 -21 -13
-10 -15 -9 -15 9 0 21 14 28 24 12z m1 -71 c7 -21 0 -40 -16 -40 -5 0 -9 14
-9 30 0 34 15 40 25 10z m-1 -87 c2 -10 5 -49 5 -87 1 -37 6 -88 12 -112 6
-24 9 -50 5 -59 -7 -19 -35 -19 -60 0 -16 12 -18 18 -8 37 11 21 21 117 22
206 0 34 15 44 24 15z"/>
<path d="M5254 6206 c-9 -38 11 -63 55 -71 22 -3 47 -15 56 -25 29 -32 5 -70
-127 -207 -125 -129 -287 -299 -388 -406 -82 -87 -82 -87 -19 -155 30 -31 74
-80 98 -107 24 -28 71 -80 105 -116 33 -36 106 -114 161 -174 192 -209 308
-321 355 -342 115 -52 119 -53 226 -53 126 0 164 14 164 60 0 17 -5 30 -11 30
-23 0 -117 50 -153 81 -61 54 -230 229 -401 419 -96 105 -185 199 -268 282
l-78 79 93 92 c51 51 156 157 233 237 148 152 210 211 235 223 8 4 30 16 49
28 42 25 102 46 159 55 l43 7 -3 41 -3 41 -287 3 -288 2 -6 -24z"/>
<path d="M1256 4138 c-15 -24 -19 -79 -36 -483 -5 -126 -14 -273 -20 -325 -5
-52 -10 -151 -10 -220 0 -69 -5 -164 -10 -211 -6 -48 -15 -199 -20 -335 -6
-137 -15 -287 -20 -334 -5 -47 -9 -134 -9 -195 -1 -167 -30 -503 -49 -565 -23
-79 -73 -150 -128 -185 -45 -28 -156 -64 -200 -65 -29 0 -35 -27 -20 -92 l11
-53 466 -3 c393 -2 468 0 478 12 7 8 13 40 14 73 2 55 1 58 -23 61 -45 5 -127
35 -166 62 -22 14 -57 55 -79 90 l-40 65 2 315 c2 173 8 389 15 480 14 175 18
883 6 896 -4 4 -25 -12 -46 -36 -23 -27 -43 -41 -50 -36 -15 9 -15 113 -2 331
5 88 12 216 15 285 5 134 22 259 36 281 8 11 15 8 35 -16 14 -16 34 -46 45
-65 10 -19 23 -42 29 -50 5 -8 22 -42 38 -75 37 -78 123 -239 212 -395 23 -41
78 -145 122 -230 45 -85 98 -184 118 -220 20 -36 71 -130 113 -210 80 -154
109 -208 144 -268 12 -20 40 -73 62 -117 42 -84 107 -207 207 -390 40 -74 79
-129 120 -172 55 -56 66 -63 100 -63 22 1 50 7 64 15 14 8 28 14 33 15 16 0 5
-44 -37 -142 -24 -57 -47 -114 -51 -128 -4 -14 -13 -32 -20 -40 -7 -8 -16 -30
-20 -48 -10 -48 -51 -92 -85 -92 -38 0 -76 45 -143 172 -82 155 -193 368 -264
507 -35 68 -67 129 -72 135 -4 6 -50 92 -101 191 -51 99 -96 185 -100 190 -4
6 -29 51 -55 100 -26 50 -63 118 -81 152 -19 34 -34 67 -34 73 0 6 -11 26 -24
43 -13 18 -36 57 -51 88 -57 114 -178 251 -206 233 -14 -8 -10 -54 5 -60 8 -3
16 -20 20 -37 7 -37 95 -214 276 -552 29 -55 68 -129 87 -165 19 -36 38 -72
42 -80 38 -70 56 -103 82 -155 17 -33 52 -100 79 -150 44 -82 73 -137 209
-397 25 -48 79 -152 119 -230 83 -160 93 -175 139 -194 56 -24 146 -11 201 28
24 16 51 76 52 115 0 12 6 34 14 50 8 15 22 48 31 73 29 75 57 140 120 275 26
55 51 107 56 115 5 8 12 22 15 30 3 8 15 33 27 55 11 22 25 49 30 60 6 11 14
27 19 35 4 8 11 22 14 30 9 22 185 383 195 400 5 8 12 22 15 30 3 8 9 22 14
30 5 8 19 35 31 60 132 270 190 394 209 440 12 30 26 64 30 75 5 11 12 30 15
43 4 15 13 22 23 20 15 -3 17 -19 14 -133 -2 -72 4 -217 12 -324 9 -106 16
-241 16 -300 0 -58 7 -182 15 -276 8 -93 16 -269 17 -390 3 -212 2 -222 -20
-266 -41 -83 -106 -135 -197 -158 -98 -25 -98 -25 -90 -84 13 -96 -51 -87 605
-87 661 0 600 -10 600 94 0 52 -2 56 -24 56 -23 0 -100 21 -160 43 -39 15 -93
62 -120 107 -52 86 -68 201 -86 626 -5 121 -14 261 -20 310 -5 49 -10 141 -10
204 0 63 -7 187 -15 275 -8 88 -15 210 -15 270 0 61 -7 178 -15 260 -8 83 -15
197 -15 255 -1 58 -5 152 -10 210 -6 58 -13 161 -16 230 -5 96 -10 128 -22
138 -9 7 -44 12 -82 12 -56 0 -70 -4 -87 -22 -24 -25 -24 -27 -323 -633 -116
-236 -215 -437 -220 -445 -5 -8 -25 -49 -45 -90 -20 -41 -41 -82 -46 -90 -5
-8 -12 -22 -15 -30 -9 -22 -44 -93 -54 -110 -5 -8 -25 -49 -45 -90 -20 -41
-40 -82 -45 -90 -12 -20 -333 -675 -354 -722 -9 -20 -16 -43 -16 -50 0 -17
-31 -48 -47 -48 -6 0 -14 16 -17 35 -4 19 -29 76 -56 127 -26 51 -67 129 -90
173 -23 44 -57 107 -75 140 -18 33 -51 96 -74 140 -22 44 -63 121 -91 170 -28
50 -62 113 -76 140 -13 28 -29 57 -34 65 -5 8 -11 22 -14 30 -4 8 -14 29 -25
45 -10 17 -44 80 -76 140 -32 61 -73 137 -91 170 -18 33 -44 83 -59 110 -14
28 -48 91 -75 140 -27 50 -60 113 -75 140 -14 28 -52 100 -85 160 -33 61 -73
137 -90 170 -17 33 -40 76 -52 95 -23 40 -53 98 -63 120 -12 29 -33 61 -55 85
-21 22 -32 25 -92 25 -59 0 -69 -3 -82 -22z m2732 -225 c6 -16 13 -89 16 -163
8 -178 23 -459 36 -645 5 -82 14 -244 20 -360 6 -115 15 -275 20 -355 6 -80
17 -278 25 -440 22 -413 41 -530 102 -621 69 -102 67 -99 50 -117 -14 -13 -48
-16 -233 -16 -119 -1 -221 2 -227 6 -5 3 -21 1 -35 -5 -21 -10 -27 -8 -42 11
-18 22 -18 23 6 49 33 36 81 138 95 204 13 58 7 361 -11 629 -6 80 -13 188
-15 240 -37 677 -35 664 -95 739 -45 58 -63 65 -106 45 -31 -15 -37 -15 -50
-2 -12 12 5 53 136 315 82 166 154 304 160 308 5 3 10 15 10 25 0 10 8 34 19
52 10 18 30 54 45 81 31 54 58 62 74 20z m-2728 -2341 c0 -70 55 -221 107
-293 38 -54 40 -65 14 -79 -26 -13 -266 -13 -292 0 -24 13 -24 35 -1 58 51 51
118 201 137 307 9 48 14 57 26 50 5 -4 9 -23 9 -43z"/>
<path d="M4986 4075 c-22 -72 -13 -89 62 -111 148 -42 232 -105 282 -210 l30
-64 0 -1077 c0 -988 -1 -1081 -17 -1123 -29 -79 -59 -116 -130 -162 -74 -47
-116 -66 -178 -78 -22 -4 -47 -10 -55 -13 -8 -3 -27 -8 -42 -11 -42 -9 -51
-37 -37 -102 l12 -55 106 4 c631 27 879 30 1291 18 849 -27 810 -27 866 2 54
28 145 117 191 187 35 54 93 174 93 193 0 7 5 18 12 25 12 12 24 70 37 177 10
87 -2 110 -60 119 -22 4 -46 3 -54 -1 -7 -5 -36 -38 -64 -76 -28 -37 -67 -82
-87 -100 -21 -17 -45 -39 -53 -48 -29 -28 -118 -91 -151 -106 -8 -4 -37 -19
-63 -35 -26 -15 -54 -28 -62 -28 -8 0 -29 -6 -47 -14 -116 -50 -250 -69 -497
-73 -226 -4 -236 -3 -363 51 -50 21 -102 101 -117 181 -14 68 -12 888 2 916 5
9 23 24 40 34 27 14 55 16 192 13 157 -4 249 -17 312 -44 17 -8 35 -14 40 -14
26 0 96 -49 159 -111 66 -66 73 -70 110 -67 43 3 48 10 118 168 15 36 39 90
53 120 14 30 33 73 43 95 10 22 39 83 64 136 25 52 46 105 46 117 0 12 -11 29
-24 37 -22 15 -27 15 -58 0 -18 -10 -46 -30 -63 -45 -47 -44 -208 -120 -254
-120 -15 0 -50 -6 -77 -14 -53 -15 -235 -32 -459 -42 -129 -6 -143 -5 -181 14
-73 37 -69 12 -72 456 -5 507 -3 521 87 613 25 26 86 50 146 59 144 20 478 5
595 -26 76 -20 166 -69 213 -116 43 -42 87 -115 87 -143 0 -8 9 -29 21 -47 18
-30 26 -34 64 -34 23 0 47 6 52 13 15 18 43 107 43 135 0 13 7 45 15 71 8 25
21 75 30 111 9 36 23 85 31 110 22 69 19 143 -7 166 -19 17 -36 19 -148 17
-69 -2 -187 -7 -261 -13 -74 -5 -459 -10 -855 -10 -577 0 -742 3 -830 15 -167
22 -158 24 -179 -40z m2139 -92 c37 -36 -19 -233 -66 -233 -5 0 -30 21 -56 46
-57 55 -146 117 -187 131 -31 10 -55 37 -44 49 12 11 116 21 230 23 88 1 110
-2 123 -16z m-1167 -16 c10 -7 -2 -25 -46 -70 -141 -148 -144 -164 -145 -672
0 -447 -2 -436 90 -534 60 -63 59 -74 -4 -145 -90 -101 -86 -75 -85 -546 1
-261 6 -435 13 -470 17 -85 51 -141 135 -223 42 -41 71 -77 66 -81 -21 -12
-113 -17 -373 -17 -263 -1 -309 2 -309 23 0 5 21 33 46 61 51 56 93 135 115
212 12 42 14 228 14 1110 l0 1060 -24 65 c-13 36 -45 98 -72 139 -27 41 -49
80 -49 88 0 12 46 14 308 11 169 -2 313 -7 320 -11z m864 -1312 c-4 -45 -69
-183 -94 -199 -13 -7 -25 -6 -50 7 -50 25 -160 93 -188 116 -25 19 -25 20 -5
34 10 8 58 22 105 31 47 10 114 25 150 35 36 11 70 18 75 16 6 -1 9 -19 7 -40z
m513 -1167 c-21 -93 -131 -241 -208 -278 -33 -16 -62 -20 -153 -20 -65 0 -115
4 -119 10 -3 6 -20 10 -37 10 -30 0 -31 0 -13 20 10 11 25 20 33 20 40 0 241
103 367 189 65 44 123 81 128 81 5 0 5 -15 2 -32z"/>
</g>
</svg>
