 <svg  version="1.0" xmlns="http://www.w3.org/2000/svg"  width="900.000000pt" height="624.000000pt" viewBox="0 0 900.000000 624.000000"  preserveAspectRatio="xMidYMid meet">  <g transform="translate(0.000000,624.000000) scale(0.100000,-0.100000)" fill="#ffffff" stroke="none"> <path d="M4370 5375 c0 -8 7 -15 15 -15 8 0 15 7 15 15 0 8 -7 15 -15 15 -8 0 -15 -7 -15 -15z"/> <path d="M3892 5327 c-7 -8 -7 -18 -2 -27 8 -13 11 -13 25 1 14 13 14 17 2 27 -11 10 -17 9 -25 -1z"/> <path d="M4537 5329 c-23 -13 -13 -29 19 -29 18 0 25 5 22 17 -4 21 -18 25 -41 12z"/> <path d="M4416 5321 c-7 -11 22 -23 35 -15 5 3 9 9 9 15 0 12 -37 12 -44 0z"/> <path d="M5005 5290 c-4 -6 -3 -16 3 -22 6 -6 12 -6 17 2 4 6 3 16 -3 22 -6 6 -12 6 -17 -2z"/> <path d="M4358 5279 c-29 -16 -22 -41 10 -37 19 2 27 9 27 22 0 23 -14 29 -37 15z"/> <path d="M4214 5269 c-10 -17 23 -46 37 -32 7 7 9 19 6 27 -7 18 -33 21 -43 5z"/> <path d="M4460 5245 c0 -28 24 -34 34 -9 8 20 -1 34 -20 34 -8 0 -14 -10 -14 -25z"/> <path d="M3683 5239 c-14 -14 -6 -39 12 -39 18 0 26 27 11 39 -9 7 -16 7 -23 0z"/> <path d="M3830 5230 c0 -15 5 -20 18 -18 9 2 17 10 17 18 0 8 -8 16 -17 18 -13 2 -18 -3 -18 -18z"/> <path d="M3953 5243 c-18 -6 -16 -30 2 -37 9 -3 18 1 22 10 7 18 -7 33 -24 27z"/> <path d="M4850 5240 c-13 -8 -13 -11 2 -26 16 -17 18 -17 24 0 9 23 -7 38 -26 26z"/> <path d="M3742 5229 c2 -6 8 -10 13 -10 5 0 11 4 13 10 2 6 -4 11 -13 11 -9 0 -15 -5 -13 -11z"/> <path d="M4644 5225 c-4 -8 -4 -25 -1 -37 3 -12 2 -29 -3 -39 -14 -25 12 -45 30 -24 9 11 10 19 2 27 -6 6 -8 25 -5 43 5 34 -13 58 -23 30z"/> <path d="M4910 5206 c-5 -14 -14 -26 -20 -26 -5 0 -10 -7 -10 -15 0 -22 19 -18 41 8 21 25 24 43 9 52 -6 3 -14 -5 -20 -19z"/> <path d="M4044 5211 c-15 -15 2 -29 39 -33 49 -5 67 -1 67 17 0 9 -18 14 -51 17 -28 1 -53 1 -55 -1z"/> <path d="M4706 5213 c-13 -14 -5 -33 14 -33 11 0 20 6 20 14 0 15 -24 28 -34 19z"/> <path d="M4784 5205 c-4 -9 -2 -21 4 -27 15 -15 44 -1 40 19 -4 23 -36 29 -44 8z"/> <path d="M3560 5189 c-8 -14 -9 -24 -2 -31 17 -17 41 -2 35 22 -8 30 -20 34 -33 9z"/> <path d="M4384 5199 c-8 -14 14 -29 42 -29 21 0 39 22 27 34 -11 10 -61 7 -69 -5z"/> <path d="M3890 5185 c-11 -14 -11 -18 2 -31 12 -13 16 -13 26 -1 9 10 9 18 -1 31 -12 16 -14 17 -27 1z"/> <path d="M4190 5185 c-15 -19 3 -47 26 -38 18 7 18 27 0 42 -10 9 -16 8 -26 -4z"/> <path d="M3374 5179 c-3 -6 0 -17 8 -25 13 -13 16 -13 27 0 7 8 10 20 6 26 -8 13 -32 13 -41 -1z"/> <path d="M3620 5175 c-10 -12 -10 -18 0 -30 15 -18 30 -11 30 15 0 26 -15 33 -30 15z"/> <path d="M3967 5184 c-16 -16 -6 -34 19 -34 19 0 25 5 22 17 -3 19 -29 29 -41 17z"/> <path d="M4574 5175 c-4 -9 -2 -21 4 -27 15 -15 44 -1 40 19 -4 23 -36 29 -44 8z"/> <path d="M3812 5168 c7 -20 48 -23 48 -4 0 11 -9 16 -26 16 -16 0 -24 -5 -22 -12z"/> <path d="M3737 5149 c-3 -13 0 -22 9 -26 20 -8 36 10 28 30 -9 24 -31 21 -37 -4z"/> <path d="M4486 5154 c-8 -20 1 -34 20 -34 8 0 14 10 14 25 0 28 -24 34 -34 9z"/> <path d="M4934 5145 c-4 -10 -1 -21 7 -26 20 -12 34 -5 34 17 0 24 -33 31 -41 9z"/> <path d="M5154 5145 c-9 -23 10 -40 25 -22 9 11 8 17 -4 27 -12 10 -16 9 -21 -5z"/> <path d="M4704 5126 c-9 -24 5 -37 32 -30 17 4 31 0 45 -12 23 -20 46 -7 35 21 -4 13 -13 15 -32 11 -17 -5 -35 -1 -50 9 -21 14 -25 14 -30 1z"/> <path d="M3351 5120 c-17 -10 -7 -40 14 -40 8 0 15 9 15 19 0 24 -12 32 -29 21z"/> <path d="M3673 5114 c-4 -10 0 -22 10 -28 8 -7 15 -21 14 -32 -1 -13 5 -20 21 -22 29 -4 29 19 1 64 -23 37 -36 43 -46 18z"/> <path d="M3923 5119 c-16 -16 -5 -39 18 -39 24 0 37 29 18 41 -18 11 -23 11 -36 -2z"/> <path d="M4291 5117 c-14 -17 -4 -27 26 -27 16 0 23 6 23 20 0 23 -31 27 -49 7z"/> <path d="M4376 5123 c-3 -4 -6 -15 -6 -25 0 -24 33 -21 38 3 3 17 -21 33 -32 22z"/> <path d="M5031 5120 c-17 -10 -7 -40 13 -40 7 0 16 6 19 14 8 19 -15 37 -32 26z"/> <path d="M3200 5105 c0 -9 5 -15 11 -13 6 2 11 8 11 13 0 5 -5 11 -11 13 -6 2 -11 -4 -11 -13z"/> <path d="M3430 5100 c-13 -25 -6 -40 21 -40 16 0 20 6 17 27 -4 34 -23 41 -38 13z"/> <path d="M4006 5105 c-8 -21 3 -45 20 -45 9 0 14 11 14 30 0 32 -23 42 -34 15z"/> <path d="M4089 5113 c-1 -5 -1 -12 0 -17 1 -6 -6 -27 -15 -48 -19 -42 -9 -66 21 -54 12 4 14 14 9 41 -5 27 -3 35 9 35 16 0 30 26 21 41 -6 11 -44 12 -45 2z"/> <path d="M4154 5105 c-3 -8 -3 -19 1 -25 3 -5 0 -13 -8 -16 -21 -8 -32 -55 -15 -65 18 -11 37 8 30 33 -3 13 1 24 12 30 21 12 22 58 1 58 -9 0 -18 -7 -21 -15z"/> <path d="M4220 5096 c0 -29 19 -44 31 -25 16 25 10 49 -11 49 -15 0 -20 -7 -20 -24z"/> <path d="M3857 5088 c-17 -9 -18 -11 -1 -29 19 -21 34 -17 34 11 0 25 -11 31 -33 18z"/> <path d="M4450 5090 c-13 -8 -13 -11 3 -27 16 -16 18 -16 33 -1 28 27 -1 50 -36 28z"/> <path d="M4515 5090 c-4 -6 -1 -17 5 -26 15 -18 42 0 33 22 -6 16 -29 19 -38 4z"/> <path d="M4863 5093 c-26 -9 -13 -33 17 -33 19 0 30 5 30 14 0 15 -27 25 -47 19z"/> <path d="M5303 5093 c-17 -6 -16 -25 1 -48 13 -18 14 -18 26 4 10 19 9 26 -2 36 -7 7 -19 11 -25 8z"/> <path d="M3507 5084 c-8 -8 1 -24 14 -24 5 0 9 7 9 15 0 15 -12 20 -23 9z"/> <path d="M3770 5077 c0 -8 3 -17 6 -20 10 -9 46 12 39 24 -9 14 -45 11 -45 -4z"/> <path d="M4587 5083 c-4 -3 -7 -16 -7 -27 0 -12 -9 -27 -20 -34 -35 -21 -22 -70 15 -56 12 5 14 14 10 35 -5 22 -3 29 9 29 11 0 16 9 16 30 0 29 -9 38 -23 23z"/> <path d="M5090 5071 c0 -25 19 -38 31 -20 12 19 6 33 -14 37 -11 2 -17 -3 -17 -17z"/> <path d="M3617 5050 c-7 -10 -22 -18 -32 -17 -14 1 -20 -4 -20 -18 0 -27 26 -30 55 -5 12 11 27 20 32 20 4 0 8 6 8 14 0 23 -28 27 -43 6z"/> <path d="M4664 5056 c-7 -19 3 -36 22 -36 10 0 14 8 12 22 -4 26 -26 36 -34 14z"/> <path d="M4747 5063 c-29 -8 -16 -38 15 -35 19 2 27 -3 31 -18 7 -27 70 -30 65 -2 -2 11 -14 18 -36 20 -24 2 -32 8 -32 23 0 19 -8 21 -43 12z"/> <path d="M4927 5059 c-23 -13 -13 -29 19 -29 18 0 25 5 22 17 -4 21 -18 25 -41 12z"/> <path d="M3242 5048 c3 -7 14 -14 26 -16 17 -3 22 -10 22 -33 0 -23 4 -30 17 -27 25 5 27 24 4 47 -12 12 -21 26 -21 31 0 6 -12 10 -26 10 -16 0 -24 -5 -22 -12z"/> <path d="M4194 5041 c-2 -2 -4 -13 -4 -23 0 -15 8 -18 60 -18 57 0 60 1 60 24 0 22 -3 24 -56 22 -30 0 -57 -3 -60 -5z"/> <path d="M3377 5034 c-16 -16 -6 -35 16 -32 12 2 22 10 22 18 0 16 -26 25 -38 14z"/> <path d="M3898 5026 c-20 -10 -29 -11 -38 -2 -9 8 -16 6 -27 -11 -12 -18 -18 -20 -34 -10 -23 14 -45 -3 -36 -27 7 -17 47 -22 47 -7 0 6 16 7 36 4 28 -5 39 -2 46 11 8 14 13 15 24 5 18 -15 37 1 32 27 -4 24 -18 26 -50 10z"/> <path d="M3987 5034 c-10 -11 -9 -42 3 -49 14 -9 50 13 50 30 0 8 -4 15 -9 15 -5 0 -16 2 -23 5 -8 3 -17 2 -21 -1z"/> <path d="M4337 5033 c-11 -10 -8 -41 5 -49 14 -9 38 23 31 42 -5 15 -25 19 -36 7z"/> <path d="M4404 5026 c-3 -9 -4 -23 0 -31 4 -12 10 -13 31 -3 24 11 35 38 16 38 -5 0 -16 3 -25 6 -10 4 -18 0 -22 -10z"/> <path d="M5007 5033 c-4 -3 -7 -12 -7 -20 0 -16 46 -18 56 -2 11 19 -33 39 -49 22z"/> <path d="M5163 5032 c-19 -12 -5 -82 17 -82 10 0 20 -9 23 -21 4 -13 12 -19 23 -17 26 5 29 28 5 35 -17 4 -21 13 -21 43 0 25 -5 40 -16 44 -19 7 -16 7 -31 -2z"/> <path d="M4480 5010 c-13 -25 -5 -40 20 -40 24 0 33 15 25 40 -8 26 -31 26 -45 0z"/> <path d="M4874 5015 c-8 -21 3 -48 19 -43 19 7 22 58 2 58 -8 0 -18 -7 -21 -15z"/> <path d="M5426 5004 c-11 -29 6 -42 33 -25 12 8 12 12 2 25 -17 20 -27 20 -35 0z"/> <path d="M4610 4995 c-17 -21 -1 -38 31 -33 16 2 24 10 24 23 0 25 -37 32 -55 10z"/> <path d="M5081 5001 c-18 -12 -5 -31 20 -31 14 0 19 6 17 17 -4 20 -18 26 -37 14z"/> <path d="M3227 4993 c-13 -12 -7 -41 8 -47 18 -6 30 16 21 39 -6 16 -18 19 -29 8z"/> <path d="M3445 4990 c-11 -18 4 -27 42 -25 27 0 39 6 41 18 3 14 -4 17 -37 17 -22 0 -43 -4 -46 -10z"/> <path d="M3710 4985 c-7 -8 -25 -15 -39 -15 -15 0 -47 -10 -72 -22 -24 -12 -54 -21 -66 -20 -12 1 -25 -3 -28 -8 -3 -6 -19 -10 -36 -10 -22 0 -29 -5 -29 -19 0 -11 4 -22 9 -25 13 -9 111 17 111 29 0 7 22 12 52 12 36 1 55 6 64 18 8 11 20 15 32 11 26 -9 42 13 31 42 -10 26 -13 27 -29 7z"/> <path d="M4695 4969 c-10 -29 10 -47 34 -32 16 10 22 8 34 -10 12 -17 18 -19 27 -10 10 9 16 8 29 -7 12 -14 21 -16 39 -10 32 13 28 39 -8 47 -17 3 -33 10 -36 14 -3 5 -20 9 -39 9 -19 0 -37 5 -40 10 -11 17 -33 11 -40 -11z"/> <path d="M4932 4967 c-14 -16 -6 -27 20 -27 13 0 18 6 16 17 -4 22 -22 27 -36 10z"/> <path d="M5307 4973 c-14 -13 -6 -33 12 -33 25 0 38 20 20 31 -17 11 -24 11 -32 2z"/> <path d="M3377 4964 c-4 -4 -7 -18 -7 -31 0 -17 6 -23 21 -23 16 0 20 5 17 27 -3 26 -18 39 -31 27z"/> <path d="M5000 4949 c0 -17 4 -20 23 -15 15 4 27 -1 37 -15 17 -22 50 -17 50 7 0 13 -5 15 -42 18 -7 1 -17 7 -21 14 -14 21 -47 15 -47 -9z"/> <path d="M3041 4942 c-12 -22 -6 -32 21 -32 14 0 19 6 16 22 -4 29 -24 34 -37 10z"/> <path d="M5387 4943 c-11 -10 -8 -41 4 -49 16 -9 43 21 36 40 -7 16 -28 21 -40 9z"/> <path d="M3170 4925 c0 -8 7 -15 15 -15 8 0 15 7 15 15 0 8 -7 15 -15 15 -8 0 -15 -7 -15 -15z"/> <path d="M5480 4925 c0 -8 9 -15 20 -15 11 0 20 7 20 15 0 8 -9 15 -20 15 -11 0 -20 -7 -20 -15z"/> <path d="M3280 4920 c-8 -5 -23 -11 -32 -14 -22 -7 -25 -56 -3 -56 7 0 18 8 24 17 5 10 18 18 28 18 11 0 18 7 18 19 0 22 -14 28 -35 16z"/> <path d="M2953 4904 c-9 -23 13 -40 32 -24 12 10 13 16 4 26 -15 18 -28 18 -36 -2z"/> <path d="M4904 4905 c-4 -9 -2 -21 4 -27 15 -15 44 -1 40 19 -4 23 -36 29 -44 8z"/> <path d="M5567 4906 c-9 -22 18 -40 33 -22 6 9 9 20 5 26 -9 15 -32 12 -38 -4z"/> <path d="M3087 4887 c-3 -8 -1 -20 4 -28 11 -19 32 2 23 24 -7 20 -20 22 -27 4z"/> <path d="M4977 4893 c-4 -3 -7 -15 -7 -25 0 -12 7 -18 25 -18 13 0 28 -7 33 -17 12 -21 42 -10 42 17 0 26 -76 61 -93 43z"/> <path d="M3369 4874 c-11 -14 -10 -18 6 -30 16 -12 21 -12 34 0 12 12 12 18 1 30 -16 20 -24 20 -41 0z"/> <path d="M5116 4854 c-29 -29 -34 -39 -26 -54 6 -12 17 -16 30 -13 13 4 20 0 20 -10 0 -18 22 -28 39 -17 19 11 9 44 -17 55 -27 12 -28 21 -2 28 23 6 28 47 6 47 -8 0 -30 -16 -50 -36z"/> <path d="M5497 4883 c-26 -7 -15 -27 17 -31 22 -3 27 0 24 14 -3 19 -14 24 -41 17z"/> <path d="M2755 4870 c-4 -6 -3 -16 3 -22 6 -6 12 -6 17 2 4 6 3 16 -3 22 -6 6 -12 6 -17 -2z"/> <path d="M2900 4865 c0 -8 9 -15 20 -15 11 0 20 7 20 15 0 8 -9 15 -20 15 -11 0 -20 -7 -20 -15z"/> <path d="M3015 4870 c-3 -6 1 -13 10 -16 19 -8 30 0 20 15 -8 14 -22 14 -30 1z"/> <path d="M5210 4850 c0 -32 23 -42 34 -14 11 29 6 44 -14 44 -16 0 -20 -7 -20 -30z"/> <path d="M5630 4865 c0 -8 7 -15 15 -15 8 0 15 7 15 15 0 8 -7 15 -15 15 -8 0 -15 -7 -15 -15z"/> <path d="M3164 4845 c-8 -19 12 -36 33 -28 19 7 12 37 -10 41 -9 2 -20 -4 -23 -13z"/> <path d="M3290 4840 c-8 -14 -18 -20 -30 -17 -22 6 -45 -17 -35 -33 9 -14 40 -12 54 4 6 7 25 16 42 20 22 4 30 11 27 23 -5 27 -44 28 -58 3z"/> <path d="M5357 4844 c-9 -10 2 -24 19 -24 8 0 14 7 14 15 0 15 -21 21 -33 9z"/> <path d="M5420 4835 c0 -8 7 -15 15 -15 8 0 15 7 15 15 0 8 -7 15 -15 15 -8 0 -15 -7 -15 -15z"/> <path d="M2847 4824 c-16 -16 -6 -35 16 -32 12 2 22 10 22 18 0 16 -26 25 -38 14z"/> <path d="M2961 4817 c-7 -7 -7 -14 0 -23 12 -15 39 -7 39 11 0 18 -25 26 -39 12z"/> <path d="M3062 4803 c-21 -23 -22 -30 -11 -52 l12 -26 13 33 c8 17 19 32 24 32 6 0 10 9 10 20 0 28 -21 25 -48 -7z"/> <path d="M5275 4820 c-10 -16 4 -30 31 -30 14 0 24 -6 24 -14 0 -8 14 -19 30 -25 17 -5 30 -17 30 -25 0 -21 26 -20 34 1 9 22 -35 63 -67 63 -16 0 -26 7 -30 20 -5 21 -41 28 -52 10z"/> <path d="M5570 4815 c-10 -12 -10 -18 0 -31 12 -13 15 -13 28 0 15 15 10 46 -6 46 -5 0 -15 -7 -22 -15z"/> <path d="M5696 4793 c-11 -11 -6 -23 9 -23 8 0 15 4 15 9 0 13 -16 22 -24 14z"/> <path d="M3171 4773 c-17 -32 -14 -43 13 -43 34 0 39 14 17 41 l-18 23 -12 -21z"/> <path d="M5480 4770 c0 -11 7 -20 15 -20 8 0 15 9 15 20 0 11 -7 20 -15 20 -8 0 -15 -9 -15 -20z"/> <path d="M2900 4765 c-14 -16 -5 -35 16 -35 15 0 20 35 5 44 -5 3 -14 -1 -21 -9z"/> <path d="M5217 4763 c-16 -15 -6 -43 14 -43 12 0 44 -19 71 -42 l51 -42 18 23 c21 26 17 41 -11 41 -11 0 -24 9 -30 19 -6 12 -17 17 -29 14 -13 -3 -23 2 -30 16 -11 20 -41 28 -54 14z"/> <path d="M2630 4745 c0 -8 7 -15 15 -15 8 0 15 7 15 15 0 8 -7 15 -15 15 -8 0 -15 -7 -15 -15z"/> <path d="M2960 4746 c0 -7 7 -19 15 -26 12 -10 18 -10 30 0 25 21 18 40 -15 40 -19 0 -30 -5 -30 -14z"/> <path d="M3105 4731 c-5 -23 -10 -27 -30 -23 -20 3 -25 0 -25 -17 0 -25 40 -30 60 -6 7 8 18 15 25 15 18 0 24 21 13 43 -13 26 -36 20 -43 -12z"/> <path d="M5636 4752 c-3 -5 1 -15 9 -22 8 -7 15 -19 15 -27 0 -9 8 -13 22 -11 28 4 35 26 11 35 -10 3 -25 12 -35 20 -9 8 -18 10 -22 5z"/> <path d="M2830 4725 c-10 -12 -9 -16 4 -21 24 -9 47 3 40 21 -8 19 -28 19 -44 0z"/> <path d="M5540 4715 c0 -11 7 -15 23 -13 12 2 22 8 22 13 0 6 -10 11 -22 13 -16 2 -23 -2 -23 -13z"/> <path d="M2751 4696 c-13 -15 -4 -26 21 -26 21 0 24 25 4 33 -8 3 -19 0 -25 -7z"/> <path d="M5450 4695 c-6 -8 -9 -19 -5 -25 9 -15 41 -12 54 4 10 12 8 17 -8 25 -25 14 -26 14 -41 -4z"/> <path d="M5817 4703 c-4 -3 -7 -12 -7 -20 0 -15 26 -18 34 -4 7 11 -18 33 -27 24z"/> <path d="M2900 4684 c0 -11 8 -14 27 -12 39 4 42 28 4 28 -21 0 -31 -5 -31 -16z"/> <path d="M2991 4676 c-16 -19 -7 -46 14 -46 22 0 30 29 13 46 -13 13 -16 13 -27 0z"/> <path d="M5594 4669 c-3 -6 0 -17 7 -25 18 -17 44 -2 36 20 -7 18 -33 21 -43 5z"/> <path d="M2823 4641 c-29 -36 -30 -61 -3 -61 15 0 20 7 20 26 0 18 6 28 20 31 12 3 19 11 17 17 -7 21 -32 15 -54 -13z"/> <path d="M5715 4651 c-3 -11 -14 -22 -23 -24 -10 -3 -6 -5 10 -6 38 -2 58 9 58 30 0 25 -37 25 -45 0z"/> <path d="M5508 4638 c-4 -32 -58 -39 -58 -9 0 17 -6 21 -31 21 -26 0 -30 -3 -27 -22 2 -17 9 -22 25 -21 14 2 27 -5 33 -17 12 -23 60 -28 60 -6 0 7 10 20 22 28 20 13 21 17 9 32 -19 22 -29 20 -33 -6z"/> <path d="M2703 4643 c-26 -10 -13 -33 18 -33 24 0 30 4 27 17 -3 18 -24 26 -45 16z"/> <path d="M2930 4640 c-11 -7 -12 -14 -2 -35 10 -22 15 -25 27 -15 31 26 8 70 -25 50z"/> <path d="M5806 4614 c-8 -21 11 -45 30 -37 20 7 14 47 -7 51 -9 2 -19 -5 -23 -14z"/> <path d="M2571 4607 c-7 -7 -7 -14 0 -23 12 -15 39 -7 39 11 0 18 -25 26 -39 12z"/> <path d="M5570 4610 c-18 -11 -4 -42 17 -38 10 2 19 10 21 19 4 19 -19 31 -38 19z"/> <path d="M2865 4580 c-8 -26 7 -45 30 -36 21 8 16 50 -7 54 -10 2 -19 -5 -23 -18z"/> <path d="M5703 4583 c-26 -10 -13 -33 18 -33 24 0 30 4 27 17 -3 18 -24 26 -45 16z"/> <path d="M2660 4565 c0 -9 5 -15 11 -13 6 2 11 8 11 13 0 5 -5 11 -11 13 -6 2 -11 -4 -11 -13z"/> <path d="M2727 4563 c-17 -16 -6 -43 16 -43 30 0 36 6 30 31 -5 18 -33 26 -46 12z"/> <path d="M5507 4546 c-6 -15 11 -36 29 -36 6 0 17 -7 24 -15 16 -20 39 -19 47 1 4 10 -4 24 -23 40 -32 26 -69 31 -77 10z"/> <path d="M5636 4552 c-14 -13 -4 -32 17 -32 12 0 28 -9 35 -21 11 -16 16 -18 28 -8 12 10 11 15 -10 34 -25 23 -61 37 -70 27z"/> <path d="M2823 4543 c-7 -3 -13 -11 -13 -19 0 -8 -5 -14 -10 -14 -6 0 -22 -12 -35 -26 -24 -26 -45 -25 -45 2 0 17 -26 19 -36 3 -4 -7 3 -19 16 -29 30 -23 23 -54 -13 -58 -19 -2 -27 -9 -27 -23 0 -14 7 -19 30 -19 20 0 30 5 30 15 0 8 9 19 20 25 11 6 20 20 20 30 0 13 7 20 20 20 11 0 25 9 32 20 7 11 20 20 30 20 21 0 30 13 22 33 -6 18 -24 26 -41 20z"/> <path d="M5774 4515 c-7 -18 3 -35 22 -35 8 0 14 -6 14 -12 0 -23 16 -39 33 -32 22 8 22 30 -1 46 -10 7 -21 21 -25 31 -8 21 -35 23 -43 2z"/> <path d="M2390 4504 c0 -10 7 -14 22 -12 32 5 35 28 4 28 -17 0 -26 -5 -26 -16z"/> <path d="M2480 4490 c-9 -16 -8 -22 5 -26 21 -9 37 8 29 29 -8 23 -21 21 -34 -3z"/> <path d="M5901 4486 c-9 -10 -8 -16 4 -26 19 -16 41 1 32 24 -8 20 -21 20 -36 2z"/> <path d="M2629 4454 c-9 -11 -9 -18 -1 -26 14 -14 42 -3 42 16 0 20 -27 27 -41 10z"/> <path d="M5624 4456 c-8 -21 3 -36 27 -36 15 0 20 6 17 22 -4 27 -35 37 -44 14z"/> <path d="M5736 4455 c-3 -8 3 -19 13 -24 21 -12 31 -5 31 21 0 22 -35 25 -44 3z"/> <path d="M5894 4425 c-7 -18 3 -35 21 -35 15 0 28 27 19 41 -8 14 -34 11 -40 -6z"/> <path d="M5676 4411 c-19 -21 -14 -41 9 -41 7 0 22 -11 32 -25 17 -24 19 -24 41 -10 29 21 28 31 -3 39 -15 4 -30 17 -35 31 -11 30 -21 31 -44 6z"/> <path d="M2490 4405 c0 -8 5 -15 10 -15 6 0 10 7 10 15 0 8 -4 15 -10 15 -5 0 -10 -7 -10 -15z"/> <path d="M2570 4390 c0 -15 5 -20 18 -18 9 2 17 10 17 18 0 8 -8 16 -17 18 -13 2 -18 -3 -18 -18z"/> <path d="M5786 4395 c-7 -20 21 -32 37 -16 9 9 8 14 -3 21 -21 13 -27 12 -34 -5z"/> <path d="M5931 4367 c-14 -17 3 -41 23 -34 9 4 16 13 16 21 0 19 -26 28 -39 13z"/> <path d="M5996 4373 c-12 -12 -6 -33 9 -33 8 0 15 6 15 14 0 17 -14 28 -24 19z"/> <path d="M2442 4348 c2 -13 10 -23 18 -23 8 0 16 10 18 23 3 17 -2 22 -18 22 -16 0 -21 -5 -18 -22z"/> <path d="M6080 4355 c0 -11 7 -15 23 -13 12 2 22 8 22 13 0 6 -10 11 -22 13 -16 2 -23 -2 -23 -13z"/> <path d="M2531 4342 c-12 -22 -6 -32 21 -32 14 0 19 6 16 22 -4 29 -24 34 -37 10z"/> <path d="M2624 4335 c-4 -9 -2 -21 4 -27 15 -15 44 -1 40 19 -4 23 -36 29 -44 8z"/> <path d="M5836 4335 c-3 -9 3 -20 14 -27 11 -7 20 -23 20 -35 0 -16 6 -23 19 -23 10 0 26 -11 35 -25 18 -28 36 -25 36 6 0 12 -7 19 -20 19 -14 0 -20 7 -20 21 0 21 -50 79 -68 79 -5 0 -12 -7 -16 -15z"/> <path d="M2391 4306 c-9 -10 -8 -16 3 -25 10 -9 16 -8 25 3 9 10 8 16 -3 25 -10 9 -16 8 -25 -3z"/> <path d="M2481 4310 c-10 -6 -10 -12 -1 -29 9 -18 14 -20 26 -10 28 23 5 58 -25 39z"/> <path d="M5777 4313 c-11 -10 -8 -43 3 -43 6 0 15 -11 20 -25 6 -15 17 -25 29 -25 32 0 33 15 4 59 -25 39 -42 49 -56 34z"/> <path d="M6043 4304 c-3 -8 1 -22 9 -30 13 -13 16 -13 27 -1 14 17 4 47 -15 47 -8 0 -17 -7 -21 -16z"/> <path d="M2305 4301 c-7 -12 32 -34 45 -26 6 3 10 13 10 21 0 16 -45 20 -55 5z"/> <path d="M2570 4264 c0 -22 4 -25 28 -22 19 2 28 9 30 26 3 19 -1 22 -27 22 -27 0 -31 -4 -31 -26z"/> <path d="M6180 4260 c0 -19 3 -21 12 -12 9 9 9 15 0 24 -9 9 -12 7 -12 -12z"/> <path d="M6105 4250 c-4 -6 -1 -17 5 -26 15 -18 42 0 33 22 -6 16 -29 19 -38 4z"/> <path d="M2360 4235 c0 -8 7 -15 15 -15 8 0 15 7 15 15 0 8 -7 15 -15 15 -8 0 -15 -7 -15 -15z"/> <path d="M2444 4225 c-9 -21 3 -45 21 -45 21 0 30 27 15 45 -16 19 -29 19 -36 0z"/> <path d="M2535 4220 c-7 -23 1 -40 20 -40 8 0 17 5 20 10 9 15 -4 50 -20 50 -8 0 -16 -9 -20 -20z"/> <path d="M2234 4185 c-7 -18 3 -35 21 -35 15 0 24 19 18 38 -6 17 -32 15 -39 -3z"/> <path d="M5843 4184 c-6 -17 12 -34 38 -34 12 0 15 -7 11 -26 -3 -20 0 -26 17 -31 14 -3 21 -13 21 -28 0 -15 8 -26 20 -30 15 -5 19 -12 15 -26 -5 -14 0 -22 19 -30 17 -8 25 -19 23 -33 -1 -15 4 -22 21 -24 18 -3 22 1 22 26 0 17 -6 32 -15 36 -8 3 -15 14 -15 25 0 10 -7 21 -15 25 -19 7 -20 36 -1 36 23 0 27 15 20 70 -9 66 -32 68 -36 3 -4 -56 -25 -65 -46 -20 -8 16 -20 31 -28 34 -8 3 -14 14 -14 24 0 24 -48 27 -57 3z"/> <path d="M6143 4193 c-21 -7 -15 -33 7 -33 11 0 20 6 20 14 0 18 -11 25 -27 19z"/> <path d="M2332 4165 c2 -14 8 -26 13 -26 6 0 11 12 13 26 2 18 -1 25 -13 25 -12 0 -15 -7 -13 -25z"/> <path d="M6057 4184 c-10 -10 -9 -42 2 -48 5 -3 14 0 20 7 12 15 -9 54 -22 41z"/> <path d="M6217 4184 c-10 -11 3 -24 24 -24 10 0 19 7 19 15 0 15 -31 21 -43 9z"/> <path d="M6316 4181 c-3 -5 1 -11 9 -15 9 -3 15 0 15 9 0 16 -16 20 -24 6z"/> <path d="M2468 4140 c-16 -16 -25 -35 -22 -44 3 -8 -2 -19 -14 -25 -11 -6 -23 -22 -26 -36 -4 -17 -13 -25 -27 -25 -18 0 -20 -4 -15 -25 5 -18 2 -27 -9 -31 -8 -4 -15 -17 -15 -30 0 -17 -8 -27 -25 -34 -21 -8 -24 -13 -16 -29 20 -37 61 -34 61 4 0 12 7 25 15 29 8 3 15 16 15 30 0 14 5 28 10 31 6 3 10 15 10 25 0 10 9 22 20 25 13 4 20 15 20 30 0 14 9 29 20 35 12 6 20 21 20 35 0 18 6 25 18 25 24 0 32 8 25 26 -8 22 -36 16 -65 -16z"/> <path d="M2266 4122 c-8 -13 11 -35 23 -28 16 10 14 36 -3 36 -8 0 -17 -4 -20 -8z"/> <path d="M6207 4124 c-11 -11 -8 -44 3 -44 15 0 24 30 13 41 -5 5 -12 6 -16 3z"/> <path d="M6290 4105 c0 -16 6 -25 15 -25 9 0 15 9 15 25 0 16 -6 25 -15 25 -9 0 -15 -9 -15 -25z"/> <path d="M6107 4113 c-13 -12 -7 -33 8 -33 8 0 15 9 15 20 0 20 -11 26 -23 13z"/> <path d="M2354 4086 c-4 -16 -13 -26 -24 -26 -11 0 -20 -10 -24 -25 -4 -14 -13 -25 -20 -25 -16 0 -29 -27 -20 -41 3 -5 14 -9 24 -9 17 0 33 21 59 78 6 12 19 22 31 22 16 0 21 5 18 22 -4 33 -36 35 -44 4z"/> <path d="M2204 4069 c-9 -15 11 -33 30 -26 9 4 13 13 10 22 -7 17 -30 20 -40 4z"/> <path d="M6136 4071 c-7 -11 3 -41 14 -41 19 0 40 13 40 25 0 21 -44 33 -54 16z"/> <path d="M6057 4053 c-11 -10 -8 -43 3 -43 6 0 15 -11 20 -25 11 -28 22 -31 40 -10 13 16 6 35 -15 35 -7 0 -16 11 -19 25 -6 25 -16 31 -29 18z"/> <path d="M2114 4005 c-7 -18 3 -35 21 -35 18 0 26 25 12 39 -15 15 -27 14 -33 -4z"/> <path d="M6237 4013 c-17 -16 -5 -33 23 -33 19 0 30 5 30 14 0 20 -39 34 -53 19z"/> <path d="M2210 3975 c0 -15 6 -25 14 -25 19 0 28 14 20 34 -10 25 -34 19 -34 -9z"/> <path d="M6171 3981 c-17 -11 -7 -41 13 -41 22 0 30 20 15 36 -9 8 -19 10 -28 5z"/> <path d="M6350 3951 c0 -12 6 -21 16 -21 9 0 14 7 12 17 -5 25 -28 28 -28 4z"/> <path d="M2000 3916 c-13 -17 -6 -36 15 -36 19 0 26 27 11 39 -10 8 -17 7 -26 -3z"/> <path d="M2180 3911 c0 -11 4 -22 9 -25 12 -8 34 21 26 34 -11 17 -35 11 -35 -9z"/> <path d="M6131 3916 c-9 -10 -8 -16 4 -26 19 -16 41 1 32 24 -8 20 -21 20 -36 2z"/> <path d="M6211 3921 c-19 -12 -4 -31 25 -31 17 0 24 5 24 20 0 21 -24 27 -49 11z"/> <path d="M2090 3905 c0 -10 10 -15 30 -15 20 0 30 5 30 15 0 10 -10 15 -30 15 -20 0 -30 -5 -30 -15z"/> <path d="M2237 3913 c-3 -5 -1 -19 4 -32 8 -19 12 -21 24 -11 22 18 19 50 -4 50 -11 0 -22 -3 -24 -7z"/> <path d="M6380 3906 c0 -21 21 -31 30 -15 5 7 6 17 4 21 -9 14 -34 9 -34 -6z"/> <path d="M6043 3884 c-4 -10 1 -22 12 -30 14 -10 15 -17 7 -27 -14 -16 3 -37 29 -37 27 0 32 17 15 47 -8 16 -17 36 -20 46 -7 22 -35 22 -43 1z"/> <path d="M6287 3886 c-8 -20 20 -43 35 -28 14 14 3 42 -16 42 -7 0 -16 -6 -19 -14z"/> <path d="M2140 3855 c-12 -14 -11 -18 1 -26 20 -12 34 -6 34 16 0 24 -19 30 -35 10z"/> <path d="M2005 3849 c-4 -6 -3 -15 3 -21 6 -6 11 -4 15 6 7 18 -9 31 -18 15z"/> <path d="M6237 3854 c-4 -4 -7 -18 -7 -31 0 -18 5 -24 18 -21 10 2 17 12 17 27 0 24 -15 37 -28 25z"/> <path d="M2217 3843 c-13 -12 -7 -43 8 -43 9 0 15 9 15 25 0 24 -10 32 -23 18z"/> <path d="M6152 3828 c2 -15 10 -23 23 -23 30 0 27 39 -3 43 -20 3 -23 0 -20 -20z"/> <path d="M6322 3828 c-18 -18 -15 -28 8 -28 13 0 20 7 20 20 0 23 -10 26 -28 8z"/> <path d="M2273 3795 c-7 -19 13 -36 37 -32 8 1 15 11 15 22 0 26 -42 34 -52 10z"/> <path d="M6100 3756 c0 -28 24 -41 40 -21 16 20 5 45 -20 45 -14 0 -20 -7 -20 -24z"/> <path d="M2107 3763 c-3 -5 -8 -23 -12 -42 -6 -26 -4 -32 6 -28 8 2 13 10 11 17 -1 6 7 14 18 17 26 7 27 43 1 43 -11 0 -22 -3 -24 -7z"/> <path d="M2185 3760 c-9 -15 4 -30 26 -30 11 0 22 -7 25 -15 8 -19 38 -19 54 0 11 13 8 17 -19 26 -17 6 -31 15 -31 20 0 12 -47 11 -55 -1z"/> <path d="M6180 3756 c0 -8 9 -18 20 -21 13 -4 20 -15 20 -31 0 -17 5 -24 20 -24 26 0 26 37 1 68 -21 25 -61 30 -61 8z"/> <path d="M6450 3725 c0 -9 9 -15 25 -15 16 0 25 6 25 15 0 9 -9 15 -25 15 -16 0 -25 -6 -25 -15z"/> <path d="M6311 3721 c-19 -12 -6 -41 19 -41 16 0 21 5 18 22 -3 25 -17 32 -37 19z"/> <path d="M2150 3700 c0 -15 5 -20 18 -18 9 2 17 10 17 18 0 8 -8 16 -17 18 -13 2 -18 -3 -18 -18z"/> <path d="M1908 3693 c-7 -25 1 -43 18 -43 9 0 14 11 14 30 0 33 -24 42 -32 13z"/> <path d="M6137 3703 c-14 -13 -7 -43 12 -55 14 -9 17 -16 11 -29 -7 -12 -5 -21 5 -29 11 -9 12 -17 5 -30 -7 -14 -6 -23 5 -34 8 -8 15 -24 15 -35 0 -12 5 -21 10 -21 6 0 13 0 18 0 4 -1 9 14 12 32 4 29 8 33 33 30 21 -3 27 1 27 16 0 27 -10 33 -32 21 -11 -6 -31 -8 -44 -5 -20 5 -23 10 -15 25 7 13 5 28 -9 54 -11 21 -20 44 -20 52 0 15 -21 21 -33 8z"/> <path d="M1997 3677 c-8 -22 8 -40 31 -33 15 5 24 1 32 -14 9 -18 14 -19 27 -9 13 12 13 14 -3 26 -9 7 -20 10 -24 8 -4 -3 -10 4 -13 15 -6 23 -42 27 -50 7z"/> <path d="M2227 3683 c-29 -7 -18 -48 13 -48 20 0 25 5 25 24 0 26 -9 31 -38 24z"/> <path d="M6396 3651 c-7 -11 22 -71 35 -71 10 0 12 24 3 58 -6 22 -28 30 -38 13z"/> <path d="M2127 3644 c-11 -12 3 -24 29 -24 16 0 24 5 22 13 -5 13 -40 22 -51 11z"/> <path d="M6230 3636 c0 -8 4 -17 9 -20 11 -7 33 18 24 27 -12 12 -33 7 -33 -7z"/> <path d="M6292 3628 c4 -27 33 -36 42 -13 8 22 -1 35 -25 35 -15 0 -20 -6 -17 -22z"/> <path d="M1975 3621 c-10 -17 4 -31 31 -31 19 0 25 5 22 18 -4 19 -43 29 -53 13z"/> <path d="M2196 3594 c-9 -8 -16 -23 -16 -32 0 -9 -3 -27 -6 -39 -5 -20 -2 -23 21 -23 23 0 26 3 21 23 -4 16 1 26 15 35 16 10 17 16 9 32 -13 24 -23 25 -44 4z"/> <path d="M1881 3587 c-9 -11 -8 -17 4 -27 12 -10 16 -9 21 5 9 23 -10 40 -25 22z"/> <path d="M2052 3578 c-20 -20 -13 -35 19 -42 59 -11 79 -8 79 15 0 17 -4 20 -29 14 -21 -4 -30 -2 -34 9 -8 19 -19 20 -35 4z"/> <path d="M1944 3549 c-3 -6 -2 -15 4 -21 15 -15 46 -5 50 15 3 12 -3 17 -22 17 -14 0 -28 -5 -32 -11z"/> <path d="M6326 3551 c-8 -13 21 -34 39 -27 25 9 18 36 -9 36 -14 0 -27 -4 -30 -9z"/> <path d="M6417 3533 c-4 -3 -7 -12 -7 -20 0 -15 26 -18 34 -4 7 11 -18 33 -27 24z"/> <path d="M1821 3496 c-9 -10 -8 -16 3 -25 10 -9 16 -8 25 3 9 10 8 16 -3 25 -10 9 -16 8 -25 -3z"/> <path d="M2090 3486 c0 -8 5 -18 10 -21 13 -8 42 14 34 26 -9 15 -44 10 -44 -5z"/> <path d="M6260 3485 c0 -12 7 -15 25 -13 14 2 26 8 26 13 0 6 -12 11 -26 13 -18 2 -25 -1 -25 -13z"/> <path d="M6356 3483 c-11 -27 13 -42 30 -19 11 16 11 22 1 28 -18 11 -24 10 -31 -9z"/> <path d="M2001 3471 c-10 -17 -9 -22 4 -27 26 -10 42 13 23 32 -15 15 -17 15 -27 -5z"/> <path d="M1947 3473 c-4 -3 -7 -12 -7 -20 0 -15 26 -18 34 -4 7 11 -18 33 -27 24z"/> <path d="M2150 3462 c0 -12 34 -42 48 -42 7 0 12 11 12 25 0 21 -5 25 -30 25 -16 0 -30 -4 -30 -8z"/> <path d="M6440 3450 c0 -11 7 -20 15 -20 8 0 15 9 15 20 0 11 -7 20 -15 20 -8 0 -15 -9 -15 -20z"/> <path d="M1880 3431 c0 -12 6 -21 16 -21 9 0 14 7 12 17 -5 25 -28 28 -28 4z"/> <path d="M6218 3443 c-24 -6 -23 -30 1 -38 19 -6 51 3 51 14 0 9 -22 31 -29 30 -4 -1 -14 -3 -23 -6z"/> <path d="M6284 3435 c-4 -9 -2 -21 4 -27 15 -15 44 -1 40 19 -4 23 -36 29 -44 8z"/> <path d="M2081 3417 c-25 -28 -30 -97 -6 -97 9 0 15 9 15 25 0 14 7 28 15 31 16 7 21 49 6 58 -4 3 -18 -5 -30 -17z"/> <path d="M2163 3413 c-7 -3 -13 -16 -13 -30 0 -13 -7 -31 -15 -39 -8 -9 -15 -24 -15 -35 0 -15 7 -19 31 -19 28 0 31 3 25 23 -3 12 0 37 6 54 13 34 4 54 -19 46z"/> <path d="M2006 3399 c-14 -45 -15 -68 -2 -78 18 -15 27 -2 28 40 1 33 -18 62 -26 38z"/> <path d="M6380 3396 c0 -8 4 -17 9 -20 11 -7 33 18 24 27 -12 12 -33 7 -33 -7z"/> <path d="M1932 3373 c4 -21 33 -25 33 -3 0 8 -8 16 -18 18 -14 3 -18 -1 -15 -15z"/> <path d="M6461 3377 c-13 -16 -5 -27 21 -27 11 0 18 7 18 20 0 23 -22 27 -39 7z"/> <path d="M6321 3361 c-16 -29 3 -58 25 -40 17 14 17 20 0 44 -13 18 -14 18 -25 -4z"/> <path d="M6224 3345 c-4 -9 -2 -21 3 -26 14 -14 45 1 41 20 -4 22 -37 26 -44 6z"/> <path d="M1760 3335 c0 -8 7 -15 15 -15 8 0 15 7 15 15 0 8 -7 15 -15 15 -8 0 -15 -7 -15 -15z"/> <path d="M6385 3329 c-9 -29 7 -42 30 -25 11 8 16 19 12 30 -9 23 -34 20 -42 -5z"/> <path d="M1815 3310 c-8 -13 14 -42 26 -34 5 3 9 14 9 25 0 20 -24 26 -35 9z"/> <path d="M1883 3304 c-7 -20 11 -38 32 -30 13 4 14 10 5 26 -13 24 -28 26 -37 4z"/> <path d="M6470 3290 c0 -25 4 -31 18 -28 11 2 17 12 17 28 0 16 -6 26 -17 28 -14 3 -18 -3 -18 -28z"/> <path d="M2025 3278 c-11 -6 -27 -14 -35 -18 -21 -10 -15 -24 10 -28 12 -2 27 4 34 13 7 9 21 15 31 13 12 -2 21 4 23 15 4 20 -30 23 -63 5z"/> <path d="M6230 3275 c0 -11 14 -14 60 -14 42 1 60 5 60 14 0 9 -18 13 -60 14 -46 0 -60 -3 -60 -14z"/> <path d="M2883 3269 c-99 -16 -184 -84 -233 -183 -29 -61 -28 -192 2 -255 29 -59 91 -121 153 -151 63 -31 196 -34 238 -7 15 9 32 17 39 17 26 0 46 38 49 91 4 52 3 54 -23 57 -25 3 -28 0 -28 -26 0 -23 -9 -38 -39 -61 -35 -28 -46 -31 -106 -31 -57 0 -71 4 -102 27 -19 15 -47 45 -61 68 -24 37 -26 49 -26 145 0 91 3 111 22 147 33 60 111 113 166 113 60 0 130 -52 145 -106 5 -22 14 -30 34 -32 26 -3 27 -2 27 50 -1 84 -47 120 -182 142 -13 2 -46 -1 -75 -5z"/> <path d="M2120 3255 c-10 -12 -10 -18 0 -30 10 -12 10 -19 2 -27 -20 -20 -15 -58 7 -58 26 0 32 11 22 46 -6 21 -4 32 8 40 13 10 13 14 2 28 -17 20 -25 20 -41 1z"/> <path d="M3640 3251 c-51 -21 -60 -35 -31 -51 20 -10 21 -19 21 -244 0 -218 -1 -235 -20 -259 -11 -14 -20 -28 -20 -31 0 -3 38 -6 85 -6 47 0 85 3 85 7 0 4 -10 17 -21 30 -17 18 -23 39 -27 99 -4 70 -3 76 14 72 10 -2 33 -26 51 -53 18 -28 36 -55 40 -61 14 -18 33 -48 45 -71 9 -19 20 -23 59 -23 26 0 53 -2 61 -5 7 -3 20 0 28 5 12 8 6 18 -36 57 -80 76 -178 193 -168 202 95 79 155 119 187 125 38 7 50 29 21 40 -21 8 -173 -4 -179 -14 -3 -4 2 -13 10 -20 13 -11 7 -21 -44 -71 -85 -84 -95 -81 -87 29 3 48 7 125 8 172 3 98 -2 103 -82 71z"/> <path d="M5251 3260 l-63 -5 -43 -80 c-68 -127 -85 -161 -85 -172 0 -13 -33 -43 -48 -43 -7 0 -12 8 -12 18 -1 9 -12 35 -25 57 -13 22 -36 63 -50 90 -70 133 -72 135 -157 135 -63 0 -89 -12 -54 -26 33 -13 38 -58 33 -291 -5 -215 -6 -228 -26 -244 -38 -31 -25 -39 59 -39 82 0 98 9 63 36 -16 11 -19 37 -23 211 -3 109 -4 204 -2 211 9 28 29 7 65 -66 103 -206 118 -229 151 -216 8 3 45 68 83 144 63 130 85 159 95 128 2 -7 1 -100 -2 -206 -4 -169 -7 -195 -22 -206 -36 -27 -20 -36 62 -36 82 0 98 9 63 35 -15 11 -17 38 -15 266 2 213 4 256 17 265 16 12 20 31 8 36 -5 2 -37 1 -72 -2z"/> <path d="M6401 3256 c-10 -12 -8 -17 6 -25 27 -14 51 2 34 23 -17 20 -25 20 -40 2z"/> <path d="M1900 3230 c-8 -5 -27 -10 -42 -10 -16 0 -28 -4 -28 -10 0 -5 20 -10 45 -10 32 0 50 -6 64 -21 22 -24 54 -22 59 4 3 12 -3 17 -22 17 -15 0 -30 8 -36 20 -12 22 -18 24 -40 10z"/> <path d="M6247 3229 c-18 -10 -18 -12 -1 -30 15 -17 16 -25 7 -49 -8 -20 -8 -31 0 -39 28 -28 57 1 37 38 -8 15 -8 27 0 42 9 15 8 24 -1 35 -14 17 -18 17 -42 3z"/> <path d="M6353 3233 c-16 -6 -17 -29 -3 -38 11 -7 40 12 40 25 0 11 -22 18 -37 13z"/> <path d="M2037 3203 c-16 -16 -5 -33 21 -33 35 0 45 9 31 27 -12 14 -41 18 -52 6z"/> <path d="M6561 3196 c-9 -10 -8 -16 3 -25 10 -9 16 -8 25 3 9 10 8 16 -3 25 -10 9 -16 8 -25 -3z"/> <path d="M6416 3193 c-12 -13 -6 -53 9 -53 9 0 15 9 15 24 0 26 -12 40 -24 29z"/> <path d="M1814 3135 c-4 -9 -2 -21 4 -27 15 -15 44 -1 40 19 -4 23 -36 29 -44 8z"/> <path d="M6317 3136 c-9 -23 19 -41 38 -26 12 10 13 16 4 26 -15 18 -35 18 -42 0z"/> <path d="M2040 3115 c0 -8 5 -15 10 -15 6 0 22 -11 36 -26 32 -31 58 -28 62 9 3 24 0 27 -27 27 -16 0 -33 5 -36 10 -10 16 -45 12 -45 -5z"/> <path d="M1940 3080 c0 -20 5 -30 15 -30 10 0 15 10 15 30 0 20 -5 30 -15 30 -10 0 -15 -10 -15 -30z"/> <path d="M6440 3091 c0 -25 20 -38 31 -20 15 23 10 39 -11 39 -13 0 -20 -7 -20 -19z"/> <path d="M1881 3081 c-8 -5 -11 -16 -6 -30 8 -25 18 -27 35 -5 11 12 11 18 -1 29 -9 9 -19 11 -28 6z"/> <path d="M4226 3082 c-68 -9 -146 -82 -166 -156 -25 -92 24 -200 110 -245 52 -27 158 -29 198 -4 46 28 92 76 92 95 0 24 -31 23 -59 -2 -13 -10 -42 -27 -66 -36 -36 -13 -50 -14 -80 -4 -54 18 -94 59 -97 100 l-3 35 75 1 c41 0 110 1 153 2 l77 2 0 28 c0 25 -12 61 -39 112 -24 46 -120 81 -195 72z m81 -58 c26 -7 63 -61 63 -92 0 -19 -7 -20 -102 -24 -125 -5 -131 -3 -123 31 17 71 83 106 162 85z"/> <path d="M5555 3083 c-62 -14 -115 -53 -151 -107 -26 -41 -26 -168 1 -211 47 -74 104 -105 192 -105 69 0 112 20 167 78 42 45 8 75 -38 34 -12 -11 -41 -27 -65 -36 -41 -16 -47 -16 -92 0 -53 19 -86 56 -91 100 l-3 29 85 1 c47 0 115 1 153 2 l67 2 0 35 c0 34 -24 92 -52 125 -32 37 -123 65 -173 53z m112 -88 c13 -14 23 -39 23 -56 l0 -29 -90 -2 c-49 -1 -98 -2 -107 -2 -46 -2 -12 92 41 115 39 17 108 3 133 -26z"/> <path d="M6263 3077 c-5 -7 -7 -36 -5 -65 3 -43 7 -52 21 -50 22 4 29 113 7 121 -8 3 -19 0 -23 -6z"/> <path d="M3279 3062 c-54 -36 -78 -60 -85 -86 -8 -34 11 -59 39 -50 23 7 56 43 57 60 0 6 11 21 24 33 49 46 117 0 117 -79 0 -25 2 -74 5 -110 7 -88 -9 -111 -81 -112 -74 -2 -95 13 -95 66 0 48 17 66 88 89 49 16 51 43 2 39 -106 -8 -170 -55 -170 -123 0 -44 17 -84 49 -113 31 -28 155 -28 175 -1 14 19 16 19 46 3 29 -17 110 -25 110 -12 0 3 -9 17 -20 31 -17 22 -20 41 -20 133 0 114 -11 163 -43 194 -55 54 -147 71 -198 38z"/> <path d="M6587 3074 c-9 -10 2 -24 19 -24 8 0 14 7 14 15 0 15 -21 21 -33 9z"/> <path d="M6349 3030 c-1 -22 -2 -46 -3 -52 -1 -7 7 -13 17 -13 16 0 20 10 23 53 4 47 2 52 -16 52 -16 0 -20 -7 -21 -40z"/> <path d="M2032 3033 c2 -11 12 -18 26 -18 12 0 26 -6 31 -13 10 -16 53 -12 59 5 2 7 -5 16 -15 19 -10 3 -26 10 -35 15 -10 5 -29 9 -44 9 -19 0 -25 -4 -22 -17z"/> <path d="M1817 3024 c-14 -15 -6 -34 14 -34 14 0 19 5 17 17 -3 18 -20 27 -31 17z"/> <path d="M1961 3017 c-13 -16 -5 -27 21 -27 11 0 18 7 18 20 0 23 -22 27 -39 7z"/> <path d="M6410 3006 c0 -8 4 -17 9 -20 11 -7 33 18 24 27 -12 12 -33 7 -33 -7z"/> <path d="M1881 2996 c-14 -16 -9 -46 7 -46 5 0 15 7 22 16 11 12 11 18 -2 30 -13 13 -16 13 -27 0z"/> <path d="M6563 2989 c-14 -14 -6 -39 12 -39 18 0 26 27 11 39 -9 7 -16 7 -23 0z"/> <path d="M2030 2975 c0 -9 9 -15 25 -15 16 0 25 6 25 15 0 9 -9 15 -25 15 -16 0 -25 -6 -25 -15z"/> <path d="M1790 2929 c0 -38 24 -35 28 4 2 19 -1 27 -12 27 -11 0 -16 -10 -16 -31z"/> <path d="M2090 2953 c0 -5 -14 -14 -31 -20 -27 -11 -30 -15 -19 -28 7 -8 18 -15 25 -15 25 0 48 -38 42 -70 -5 -23 -2 -32 13 -40 24 -13 28 -6 31 57 3 58 -2 67 -33 68 -36 0 -32 23 4 27 42 4 43 22 1 26 -18 2 -33 -1 -33 -5z"/> <path d="M6650 2945 c0 -8 7 -15 15 -15 8 0 15 7 15 15 0 8 -7 15 -15 15 -8 0 -15 -7 -15 -15z"/> <path d="M1959 2934 c-11 -14 -11 -18 5 -29 14 -11 15 -18 7 -33 -13 -24 7 -46 29 -32 12 7 12 13 2 32 -7 13 -11 34 -10 47 4 29 -14 37 -33 15z"/> <path d="M6273 2933 c-20 -7 -15 -31 7 -38 26 -8 40 1 40 26 0 19 -19 24 -47 12z"/> <path d="M6354 2916 c-8 -20 -1 -49 12 -53 15 -5 24 20 17 46 -6 24 -21 28 -29 7z"/> <path d="M6432 2918 c7 -19 38 -22 38 -4 0 10 -9 16 -21 16 -12 0 -19 -5 -17 -12z"/> <path d="M6507 2923 c-13 -12 -7 -53 7 -53 17 0 25 18 18 43 -5 18 -14 22 -25 10z"/> <path d="M1887 2894 c-11 -12 3 -24 29 -24 15 0 24 6 24 15 0 15 -40 21 -53 9z"/> <path d="M6258 2805 c-1 -36 -2 -75 -2 -87 -1 -17 5 -23 19 -23 18 0 20 7 20 60 0 33 5 70 12 81 14 25 8 34 -24 34 -22 0 -23 -4 -25 -65z"/> <path d="M6406 2844 c-8 -20 1 -34 20 -34 8 0 14 10 14 25 0 28 -24 34 -34 9z"/> <path d="M1847 2836 c-8 -19 15 -37 32 -26 17 10 7 40 -13 40 -7 0 -16 -6 -19 -14z"/> <path d="M2027 2844 c-16 -16 -6 -35 16 -32 12 2 22 10 22 18 0 16 -26 25 -38 14z"/> <path d="M6357 2843 c-4 -3 -7 -12 -7 -20 0 -15 26 -18 34 -4 7 11 -18 33 -27 24z"/> <path d="M1947 2813 c-14 -13 -7 -33 11 -33 26 0 34 11 21 27 -13 14 -22 16 -32 6z"/> <path d="M6493 2813 c-20 -8 -15 -31 8 -38 25 -8 44 7 36 29 -6 16 -21 19 -44 9z"/> <path d="M1736 2773 c-11 -11 -6 -23 9 -23 8 0 15 4 15 9 0 13 -16 22 -24 14z"/> <path d="M1882 2768 c-17 -17 -15 -47 4 -55 9 -3 20 0 25 8 12 18 11 22 -4 42 -10 14 -15 15 -25 5z"/> <path d="M2027 2774 c-3 -4 -2 -15 4 -26 8 -15 13 -17 25 -7 20 16 17 39 -4 39 -10 0 -22 -3 -25 -6z"/> <path d="M6315 2770 c-9 -15 4 -50 20 -50 14 0 24 27 18 48 -6 15 -29 16 -38 2z"/> <path d="M6407 2763 c-15 -15 -7 -43 13 -43 15 0 20 7 20 25 0 24 -18 34 -33 18z"/> <path d="M2105 2746 c-18 -13 -18 -14 2 -27 17 -10 19 -16 10 -30 -8 -13 -7 -21 2 -33 8 -9 17 -16 22 -16 13 0 21 40 10 54 -7 9 -7 16 1 24 13 13 3 42 -15 42 -7 0 -22 -6 -32 -14z"/> <path d="M6476 2743 c-12 -13 -6 -53 9 -53 9 0 15 9 15 24 0 26 -12 40 -24 29z"/> <path d="M1960 2705 c0 -10 7 -15 18 -13 21 4 19 22 -2 26 -10 2 -16 -3 -16 -13z"/> <path d="M2038 2680 c-8 -12 -24 -20 -40 -20 -18 0 -28 -5 -28 -15 0 -9 9 -15 25 -15 14 0 28 7 31 15 4 8 18 15 33 15 33 0 42 7 34 26 -8 21 -41 17 -55 -6z"/> <path d="M6356 2693 c-12 -12 -6 -33 9 -33 8 0 15 6 15 14 0 17 -14 28 -24 19z"/> <path d="M6596 2693 c-12 -12 -6 -33 9 -33 8 0 15 6 15 14 0 17 -14 28 -24 19z"/> <path d="M6230 2645 c0 -9 8 -18 18 -21 9 -4 32 -13 50 -21 34 -15 52 -11 52 13 0 8 -10 14 -25 14 -14 0 -28 7 -31 15 -8 20 -64 20 -64 0z"/> <path d="M6470 2630 c0 -35 25 -42 35 -10 8 24 -1 40 -21 40 -9 0 -14 -11 -14 -30z"/> <path d="M6380 2625 c0 -15 6 -25 14 -25 19 0 28 14 20 34 -10 25 -34 19 -34 -9z"/> <path d="M2060 2595 c0 -16 6 -25 15 -25 9 0 15 9 15 25 0 16 -6 25 -15 25 -9 0 -15 -9 -15 -25z"/> <path d="M2132 2608 c-21 -21 -13 -38 18 -38 25 0 30 4 30 25 0 27 -26 35 -48 13z"/> <path d="M6232 2593 c-5 -10 -8 -38 -8 -63 2 -38 5 -45 24 -48 23 -4 30 16 12 34 -8 8 -6 15 5 24 14 11 17 10 22 -8 5 -22 27 -30 37 -14 3 5 2 19 -1 31 -4 18 -11 21 -29 17 -17 -5 -24 -2 -24 8 0 7 -6 19 -14 25 -12 10 -16 9 -24 -6z"/> <path d="M6530 2585 c0 -11 7 -15 23 -13 12 2 22 8 22 13 0 6 -10 11 -22 13 -16 2 -23 -2 -23 -13z"/> <path d="M2002 2578 c-16 -16 -15 -35 2 -41 23 -9 38 16 23 37 -10 13 -15 14 -25 4z"/> <path d="M6430 2556 c0 -19 26 -27 39 -12 13 15 4 26 -21 26 -10 0 -18 -6 -18 -14z"/> <path d="M1904 2535 c-4 -9 -2 -21 4 -27 15 -15 44 -1 40 19 -4 23 -36 29 -44 8z"/> <path d="M2153 2543 c-18 -7 -16 -32 2 -39 23 -9 48 15 34 32 -12 15 -16 16 -36 7z"/> <path d="M2060 2525 c0 -12 7 -15 25 -13 14 2 26 8 26 13 0 6 -12 11 -26 13 -18 2 -25 -1 -25 -13z"/> <path d="M6360 2526 c0 -16 27 -29 41 -20 19 11 9 34 -16 34 -15 0 -25 -6 -25 -14z"/> <path d="M6470 2496 c0 -8 4 -17 9 -20 11 -7 33 18 24 27 -12 12 -33 7 -33 -7z"/> <path d="M2013 2484 c-18 -8 -16 -31 2 -38 20 -7 105 4 105 15 0 4 -3 10 -7 12 -14 8 -88 16 -100 11z"/> <path d="M2157 2483 c-13 -12 -7 -54 9 -60 11 -4 13 -13 9 -33 -5 -23 -2 -30 14 -35 23 -7 26 -16 11 -31 -15 -15 12 -36 34 -28 19 7 21 40 3 51 -18 12 -39 80 -32 102 7 24 -31 51 -48 34z"/> <path d="M6287 2474 c-4 -4 -4 -18 -1 -30 5 -18 2 -24 -10 -24 -12 0 -16 -10 -16 -36 0 -31 -3 -35 -17 -29 -38 16 -65 17 -73 4 -15 -23 8 -38 48 -32 57 9 72 20 72 53 0 17 9 39 21 51 11 11 18 26 16 32 -4 14 -30 21 -40 11z"/> <path d="M6197 2453 c-24 -23 12 -55 38 -33 12 10 13 16 4 26 -12 15 -31 18 -42 7z"/> <path d="M6440 2435 c0 -8 7 -15 15 -15 8 0 15 7 15 15 0 8 -7 15 -15 15 -8 0 -15 -7 -15 -15z"/> <path d="M6368 2423 c-25 -6 -22 -32 5 -42 30 -12 56 11 37 33 -7 9 -15 15 -19 15 -3 -1 -14 -3 -23 -6z"/> <path d="M2097 2394 c-17 -17 -5 -34 24 -34 24 0 30 4 27 18 -3 17 -38 29 -51 16z"/> <path d="M2024 2325 c-4 -9 -2 -21 4 -27 15 -15 44 -1 40 19 -4 23 -36 29 -44 8z"/> <path d="M6347 2329 c-10 -6 -15 -14 -12 -20 10 -14 45 -11 45 5 0 21 -12 26 -33 15z"/> <path d="M1910 2315 c0 -8 7 -15 15 -15 8 0 15 7 15 15 0 8 -7 15 -15 15 -8 0 -15 -7 -15 -15z"/> <path d="M2117 2324 c-9 -9 4 -34 18 -34 14 0 27 25 18 34 -4 3 -12 6 -18 6 -6 0 -14 -3 -18 -6z"/> <path d="M6160 2300 c-13 -9 -12 -12 4 -25 25 -19 53 -1 35 21 -14 17 -19 17 -39 4z"/> <path d="M2242 2267 c-9 -10 -7 -19 4 -35 8 -12 13 -26 9 -32 -3 -5 3 -14 14 -19 14 -8 22 -7 31 4 14 17 5 35 -17 35 -13 0 -13 3 -3 15 10 12 10 18 0 30 -15 18 -24 19 -38 2z"/> <path d="M6227 2267 c-3 -8 -1 -19 5 -25 15 -15 49 -2 46 17 -4 20 -44 27 -51 8z"/> <path d="M6506 2273 c-12 -12 -6 -33 9 -33 8 0 15 6 15 14 0 17 -14 28 -24 19z"/> <path d="M2056 2262 c-9 -14 12 -35 28 -29 23 9 20 37 -3 37 -11 0 -22 -4 -25 -8z"/> <path d="M6327 2263 c-13 -12 -7 -53 7 -53 8 0 16 -10 18 -22 2 -15 11 -24 26 -26 20 -3 23 0 20 20 -2 15 -11 24 -25 26 -18 3 -23 10 -23 33 0 28 -9 37 -23 22z"/> <path d="M2156 2244 c-4 -9 0 -24 9 -34 8 -9 15 -26 15 -38 0 -22 23 -31 34 -13 3 4 2 28 -2 52 -6 34 -12 45 -28 47 -13 2 -24 -4 -28 -14z"/> <path d="M6141 2240 c-7 -4 -11 -18 -9 -31 5 -35 42 -33 46 2 3 28 -16 43 -37 29z"/> <path d="M1997 2203 c-9 -8 12 -33 28 -33 8 0 15 -6 18 -12 2 -7 8 -9 13 -5 5 4 4 11 -2 15 -6 4 -13 15 -17 25 -6 17 -28 23 -40 10z"/> <path d="M6234 2158 c7 -46 27 -74 45 -64 14 9 14 56 1 56 -6 0 -15 11 -20 25 -16 42 -33 31 -26 -17z"/> <path d="M2084 2169 c-3 -6 -2 -15 4 -21 13 -13 32 -2 32 18 0 16 -26 19 -36 3z"/> <path d="M6098 2131 c-10 -20 -18 -44 -18 -52 0 -8 -7 -23 -15 -33 -22 -29 -18 -46 9 -46 18 0 27 -8 36 -32 11 -32 12 -32 26 -14 18 25 18 35 -2 43 -25 9 -34 45 -17 65 12 13 13 21 4 31 -8 11 -5 16 14 25 22 10 24 14 13 32 -18 29 -31 24 -50 -19z"/> <path d="M2264 2139 c-3 -6 3 -24 15 -40 11 -15 21 -34 21 -42 0 -19 27 -72 45 -87 8 -7 15 -20 15 -29 1 -9 11 -29 24 -45 18 -21 29 -26 45 -21 28 9 27 23 -4 37 -18 8 -24 17 -19 30 4 13 -2 21 -21 28 -20 8 -24 14 -19 33 4 17 1 26 -10 30 -9 4 -16 17 -16 31 0 16 -7 27 -21 31 -16 5 -18 10 -9 20 7 8 9 19 5 25 -8 13 -42 13 -51 -1z"/> <path d="M2100 2120 c-17 -11 -5 -27 25 -32 14 -2 20 3 20 17 0 22 -22 30 -45 15z"/> <path d="M2207 2118 c-14 -8 -16 -13 -6 -24 17 -20 39 -17 39 5 0 26 -11 32 -33 19z"/> <path d="M6170 2111 c0 -12 6 -21 16 -21 9 0 14 7 12 17 -5 25 -28 28 -28 4z"/> <path d="M2030 2054 c0 -45 24 -42 28 4 2 24 -1 32 -12 32 -12 0 -16 -10 -16 -36z"/> <path d="M6171 2061 c-15 -10 -8 -41 9 -41 15 0 25 29 14 40 -5 5 -15 5 -23 1z"/> <path d="M6236 2063 c-3 -4 -6 -15 -6 -25 0 -24 33 -21 38 3 3 17 -21 33 -32 22z"/> <path d="M6317 2057 c-9 -23 8 -40 32 -32 25 8 28 30 5 39 -23 9 -31 7 -37 -7z"/> <path d="M2120 2045 c0 -9 9 -15 25 -15 16 0 25 6 25 15 0 9 -9 15 -25 15 -16 0 -25 -6 -25 -15z"/> <path d="M2235 2050 c-3 -6 1 -13 10 -16 19 -8 30 0 20 15 -8 14 -22 14 -30 1z"/> <path d="M2120 1979 c0 -24 23 -21 28 4 2 10 -3 17 -12 17 -10 0 -16 -9 -16 -21z"/> <path d="M2180 1981 c0 -15 7 -18 43 -17 82 2 88 36 6 36 -41 0 -49 -3 -49 -19z"/> <path d="M6014 1965 c-3 -19 -10 -35 -15 -35 -19 0 -9 -48 11 -53 12 -3 20 -14 20 -25 0 -11 8 -23 17 -26 16 -7 33 8 33 30 0 6 10 18 22 26 12 8 18 19 14 26 -12 19 -36 14 -36 -8 0 -26 -22 -26 -38 1 -11 17 -10 22 9 38 19 15 20 20 8 39 -20 32 -37 27 -45 -13z"/> <path d="M6254 1965 c-4 -9 -2 -21 4 -27 15 -15 44 -1 40 19 -4 23 -36 29 -44 8z"/> <path d="M6200 1955 c0 -8 7 -15 15 -15 8 0 15 7 15 15 0 8 -7 15 -15 15 -8 0 -15 -7 -15 -15z"/> <path d="M2285 1936 c-18 -13 -18 -14 4 -26 27 -14 47 -1 38 24 -8 20 -18 20 -42 2z"/> <path d="M6416 1943 c-12 -12 -6 -33 9 -33 8 0 15 6 15 14 0 17 -14 28 -24 19z"/> <path d="M2064 1926 c-8 -21 3 -49 16 -41 5 3 10 15 10 25 0 25 -18 36 -26 16z"/> <path d="M2210 1895 c0 -8 9 -15 20 -15 11 0 20 7 20 15 0 8 -9 15 -20 15 -11 0 -20 -7 -20 -15z"/> <path d="M6142 1898 c5 -15 48 -18 48 -3 0 6 -11 11 -26 13 -18 3 -25 0 -22 -10z"/> <path d="M2327 1883 c-14 -13 -7 -33 11 -33 26 0 34 11 21 27 -13 14 -22 16 -32 6z"/> <path d="M2000 1865 c0 -9 5 -15 11 -13 6 2 11 8 11 13 0 5 -5 11 -11 13 -6 2 -11 -4 -11 -13z"/> <path d="M2180 1849 c0 -12 -8 -28 -17 -35 -17 -12 -17 -13 0 -20 23 -8 33 2 42 44 5 25 3 32 -9 32 -10 0 -16 -9 -16 -21z"/> <path d="M2434 1855 c-19 -14 -18 -15 7 -37 15 -13 29 -31 33 -41 8 -25 40 -17 44 10 2 14 -4 27 -17 35 -12 7 -21 21 -21 30 0 22 -19 23 -46 3z"/> <path d="M5954 1845 c-7 -18 3 -35 22 -35 8 0 14 -10 14 -26 0 -19 5 -25 17 -22 26 5 28 37 4 59 -12 11 -21 24 -21 29 0 16 -30 12 -36 -5z"/> <path d="M2254 1839 c-7 -12 15 -31 31 -26 6 2 11 11 13 20 4 19 -32 24 -44 6z"/> <path d="M6112 1833 c2 -12 12 -18 28 -18 16 0 26 6 28 18 3 13 -3 17 -28 17 -25 0 -31 -4 -28 -17z"/> <path d="M6230 1835 c0 -8 7 -15 15 -15 8 0 15 7 15 15 0 8 -7 15 -15 15 -8 0 -15 -7 -15 -15z"/> <path d="M2354 1815 c-18 -15 -18 -16 9 -38 15 -12 27 -31 27 -41 0 -13 5 -16 23 -11 40 13 43 25 9 37 -23 9 -32 19 -32 35 0 29 -13 36 -36 18z"/> <path d="M5915 1786 c-18 -13 -18 -14 4 -26 27 -14 47 -1 38 24 -8 20 -18 20 -42 2z"/> <path d="M6083 1784 c-8 -20 8 -36 26 -25 15 10 8 41 -9 41 -6 0 -13 -7 -17 -16z"/> <path d="M6260 1760 c0 -20 5 -30 15 -30 10 0 15 10 15 30 0 20 -5 30 -15 30 -10 0 -15 -10 -15 -30z"/> <path d="M2209 1754 c-9 -11 -9 -18 -1 -26 14 -14 42 -3 42 16 0 20 -27 27 -41 10z"/> <path d="M2272 1757 c-15 -18 -5 -27 30 -27 23 0 29 4 26 18 -4 21 -41 28 -56 9z"/> <path d="M2510 1731 c0 -31 13 -41 43 -33 34 9 13 62 -25 62 -13 0 -18 -8 -18 -29z"/> <path d="M6170 1745 c0 -8 6 -15 14 -15 8 0 16 -11 18 -25 4 -32 22 -37 26 -7 2 13 -3 25 -12 28 -9 3 -16 12 -16 20 0 8 -7 14 -15 14 -8 0 -15 -7 -15 -15z"/> <path d="M5962 1727 c-9 -10 -9 -18 1 -31 12 -16 14 -17 27 -1 11 14 11 18 -2 31 -12 13 -16 13 -26 1z"/> <path d="M6037 1729 c-14 -8 -16 -14 -6 -25 23 -28 64 -10 52 24 -6 15 -22 15 -46 1z"/> <path d="M5865 1721 c-3 -6 -4 -15 -1 -20 3 -5 -6 -16 -20 -26 -20 -13 -23 -19 -13 -31 6 -8 18 -14 25 -14 8 0 14 -11 14 -26 0 -19 4 -25 18 -22 18 4 19 40 1 46 -16 6 -10 42 7 42 11 0 14 8 12 27 -3 28 -31 43 -43 24z"/> <path d="M2356 1705 c-10 -27 -7 -35 15 -35 15 0 20 5 17 22 -4 27 -23 35 -32 13z"/> <path d="M2420 1688 c0 -7 -9 -21 -20 -31 -23 -20 -26 -43 -6 -50 17 -7 40 18 31 33 -3 5 5 15 20 22 14 6 24 16 22 22 -5 17 -47 20 -47 4z"/> <path d="M6110 1680 c0 -23 25 -27 33 -6 7 16 -1 26 -20 26 -7 0 -13 -9 -13 -20z"/> <path d="M2542 1667 c-7 -8 -7 -18 -2 -27 7 -11 13 -12 35 -2 22 10 25 15 15 27 -15 18 -34 19 -48 2z"/> <path d="M5932 1644 c4 -21 22 -23 26 -1 2 10 -3 17 -13 17 -10 0 -15 -6 -13 -16z"/> <path d="M2213 1643 c-17 -6 -16 -25 1 -48 13 -18 14 -18 26 4 10 19 9 26 -2 36 -7 7 -19 11 -25 8z"/> <path d="M2480 1635 c-20 -24 4 -45 26 -24 13 14 13 17 1 27 -11 10 -17 9 -27 -3z"/> <path d="M2297 1634 c-9 -10 2 -24 19 -24 8 0 14 7 14 15 0 15 -21 21 -33 9z"/> <path d="M2600 1616 c0 -25 34 -68 64 -79 21 -8 40 25 24 41 -7 7 -18 12 -24 12 -7 0 -14 10 -16 23 -2 14 -11 23 -25 25 -19 3 -23 -1 -23 -22z"/> <path d="M6050 1605 c0 -16 6 -25 15 -25 9 0 15 9 15 25 0 16 -6 25 -15 25 -9 0 -15 -9 -15 -25z"/> <path d="M5773 1600 c-3 -11 -11 -20 -19 -20 -24 0 -27 -22 -6 -43 l21 -20 6 26 c8 31 35 37 35 8 0 -27 14 -33 36 -16 19 15 19 15 -1 33 -12 9 -24 25 -28 35 -9 23 -38 22 -44 -3z"/> <path d="M2536 1595 c-11 -30 -6 -45 15 -45 16 0 20 5 17 27 -3 31 -23 41 -32 18z"/> <path d="M5975 1600 c-8 -12 20 -24 35 -15 6 3 8 11 5 16 -8 12 -32 12 -40 -1z"/> <path d="M6157 1603 c-14 -13 -6 -23 18 -23 16 0 25 6 25 15 0 15 -31 21 -43 8z"/> <path d="M2437 1576 c-7 -18 1 -26 25 -26 13 0 18 6 16 17 -4 22 -34 29 -41 9z"/> <path d="M2340 1571 c0 -5 -11 -12 -25 -15 -26 -7 -33 -30 -13 -42 6 -4 19 2 29 14 9 12 27 22 38 22 12 0 21 6 21 15 0 9 -9 15 -25 15 -14 0 -25 -4 -25 -9z"/> <path d="M5917 1543 c-13 -12 -7 -41 9 -47 30 -11 96 -7 92 7 -3 6 -15 13 -27 15 -12 2 -25 10 -28 18 -5 14 -35 19 -46 7z"/> <path d="M6087 1543 c-12 -11 -8 -23 8 -23 8 0 15 7 15 15 0 16 -12 20 -23 8z"/> <path d="M2397 1523 c-16 -15 -6 -33 18 -33 28 0 34 24 9 34 -19 7 -19 7 -27 -1z"/> <path d="M2480 1511 c0 -24 13 -33 34 -25 21 8 21 30 0 38 -26 10 -34 7 -34 -13z"/> <path d="M2574 1519 c-6 -11 49 -69 67 -69 16 0 24 33 10 38 -7 2 -21 13 -29 23 -18 21 -37 24 -48 8z"/> <path d="M2692 1508 c2 -16 11 -24 29 -26 21 -3 25 -7 22 -27 -4 -17 1 -25 16 -30 14 -4 21 -15 21 -31 0 -19 5 -25 18 -22 22 4 29 46 8 54 -9 3 -16 15 -16 25 0 10 -9 24 -20 31 -11 7 -20 18 -20 24 0 13 -22 24 -47 24 -9 0 -13 -8 -11 -22z"/> <path d="M5683 1514 c-3 -8 -1 -20 5 -26 16 -16 42 -2 42 22 0 24 -38 28 -47 4z"/> <path d="M2120 1505 c0 -8 7 -15 15 -15 8 0 15 7 15 15 0 8 -7 15 -15 15 -8 0 -15 -7 -15 -15z"/> <path d="M5780 1496 c0 -16 -7 -27 -20 -31 -21 -7 -24 -14 -14 -39 10 -26 32 -18 39 14 4 16 11 32 16 35 15 10 10 45 -6 45 -9 0 -15 -9 -15 -24z"/> <path d="M2214 1479 c-10 -17 13 -36 27 -22 12 12 4 33 -11 33 -5 0 -12 -5 -16 -11z"/> <path d="M5840 1480 c0 -7 -9 -23 -20 -37 -15 -19 -17 -29 -9 -39 11 -14 39 -8 39 8 0 5 7 16 15 25 9 8 15 23 13 32 -4 18 -38 28 -38 11z"/> <path d="M2451 1461 c-8 -5 -11 -17 -6 -30 8 -26 21 -27 34 -2 13 23 -7 45 -28 32z"/> <path d="M5632 1458 c-7 -7 -12 -17 -12 -24 0 -6 -7 -14 -15 -18 -16 -6 -20 -37 -7 -50 4 -4 7 -17 7 -29 0 -25 31 -35 49 -17 8 8 7 15 -6 24 -27 20 -23 65 7 76 14 5 25 13 25 18 0 9 -21 32 -30 32 -3 0 -11 -5 -18 -12z"/> <path d="M2538 1454 c-12 -11 5 -45 21 -42 24 5 27 48 3 48 -10 0 -21 -3 -24 -6z"/> <path d="M5950 1450 c-12 -8 -12 -10 2 -15 20 -8 41 2 33 16 -8 11 -16 11 -35 -1z"/> <path d="M2356 1435 c-10 -27 -7 -35 15 -35 15 0 20 5 17 22 -4 27 -23 35 -32 13z"/> <path d="M2683 1433 c-18 -7 -16 -30 4 -37 21 -8 38 8 30 28 -7 16 -13 18 -34 9z"/> <path d="M2593 1393 c-4 -9 -1 -19 5 -21 7 -2 19 -10 26 -18 15 -14 36 -19 36 -8 0 12 -42 64 -51 64 -5 0 -13 -8 -16 -17z"/> <path d="M2830 1386 c0 -29 13 -46 35 -46 14 0 25 -7 28 -20 5 -21 23 -25 46 -11 19 12 6 41 -18 41 -12 0 -21 9 -25 25 -5 20 -13 25 -36 25 -19 0 -30 -5 -30 -14z"/> <path d="M5682 1373 c2 -17 9 -28 18 -28 9 0 16 11 18 28 3 22 -1 27 -18 27 -17 0 -21 -5 -18 -27z"/> <path d="M2490 1364 c0 -17 22 -14 28 4 2 7 -3 12 -12 12 -9 0 -16 -7 -16 -16z"/> <path d="M2714 1365 c-7 -18 3 -35 21 -35 18 0 26 25 12 39 -15 15 -27 14 -33 -4z"/> <path d="M5533 1364 c-3 -8 -1 -20 5 -26 16 -16 42 -2 42 22 0 24 -38 28 -47 4z"/> <path d="M5877 1373 c-14 -13 -7 -33 11 -33 24 0 32 8 25 26 -5 15 -25 19 -36 7z"/> <path d="M5966 1373 c-12 -12 -6 -33 9 -33 8 0 15 6 15 14 0 17 -14 28 -24 19z"/> <path d="M6050 1355 c0 -8 7 -15 15 -15 8 0 15 7 15 15 0 8 -7 15 -15 15 -8 0 -15 -7 -15 -15z"/> <path d="M2430 1325 c0 -9 9 -15 25 -15 16 0 25 6 25 15 0 9 -9 15 -25 15 -16 0 -25 -6 -25 -15z"/> <path d="M2562 1323 c2 -10 10 -18 18 -18 8 0 16 8 18 18 2 12 -3 17 -18 17 -15 0 -20 -5 -18 -17z"/> <path d="M5482 1328 c-14 -14 -16 -45 -3 -52 16 -10 41 5 41 24 0 26 -23 43 -38 28z"/> <path d="M5816 1333 c-11 -11 -6 -23 9 -23 8 0 15 4 15 9 0 13 -16 22 -24 14z"/> <path d="M2775 1310 c-8 -27 6 -43 29 -34 22 8 17 48 -6 52 -10 2 -19 -5 -23 -18z"/> <path d="M2685 1300 c-10 -16 5 -50 21 -50 9 0 14 11 14 30 0 30 -21 42 -35 20z"/> <path d="M5690 1300 c0 -5 -15 -16 -32 -24 l-33 -13 27 -8 c19 -5 32 -2 43 9 22 22 42 20 50 -5 8 -24 38 -22 43 4 3 12 -4 20 -17 24 -12 3 -21 9 -21 14 0 5 -13 9 -30 9 -16 0 -30 -4 -30 -10z"/> <path d="M5888 1289 c-35 -37 -14 -55 22 -19 11 11 20 25 20 30 0 16 -23 10 -42 -11z"/> <path d="M2961 1282 c-12 -22 3 -42 29 -42 9 0 22 -12 29 -27 l13 -28 20 25 c19 23 19 25 1 37 -10 7 -29 22 -41 33 -29 25 -39 25 -51 2z"/> <path d="M5414 1275 c-4 -9 -2 -21 4 -27 15 -15 44 -1 40 19 -4 23 -36 29 -44 8z"/> <path d="M5570 1271 c0 -15 6 -21 21 -21 25 0 22 33 -4 38 -12 2 -17 -3 -17 -17z"/> <path d="M2840 1254 c0 -33 33 -30 38 4 3 17 -2 22 -17 22 -16 0 -21 -6 -21 -26z"/> <path d="M2474 1245 c-4 -9 -2 -21 4 -27 15 -15 44 -1 40 19 -4 23 -36 29 -44 8z"/> <path d="M5509 1244 c-9 -11 -9 -18 -1 -26 14 -14 42 -3 42 16 0 20 -27 27 -41 10z"/> <path d="M2600 1235 c0 -9 9 -15 25 -15 16 0 25 6 25 15 0 9 -9 15 -25 15 -16 0 -25 -6 -25 -15z"/> <path d="M2708 1232 c-32 -19 -36 -40 -11 -49 11 -4 22 1 31 15 8 12 23 22 34 22 25 0 18 24 -8 27 -10 1 -31 -6 -46 -15z"/> <path d="M2896 1242 c-10 -17 6 -53 23 -50 22 4 21 52 -1 56 -9 2 -19 -1 -22 -6z"/> <path d="M5359 1226 c-8 -18 -20 -26 -36 -26 -20 0 -24 -4 -21 -22 2 -17 9 -22 26 -20 13 1 30 9 38 17 9 8 20 15 25 15 14 0 10 36 -6 50 -12 10 -17 7 -26 -14z"/> <path d="M5570 1206 c0 -17 24 -28 45 -20 27 11 17 34 -15 34 -19 0 -30 -5 -30 -14z"/> <path d="M5737 1214 c-10 -11 3 -24 24 -24 10 0 19 7 19 15 0 15 -31 21 -43 9z"/> <path d="M2957 1203 c-15 -14 -7 -43 12 -43 24 0 33 13 25 34 -6 16 -25 21 -37 9z"/> <path d="M3074 1186 c-3 -15 -14 -26 -27 -28 -11 -2 -22 -8 -24 -14 -6 -18 25 -25 40 -10 7 7 23 17 36 21 15 5 21 13 19 28 -4 32 -36 34 -44 3z"/> <path d="M5463 1203 c-7 -2 -13 -13 -13 -24 0 -14 7 -19 30 -19 19 0 30 -5 30 -14 0 -19 14 -28 34 -20 24 9 19 34 -7 34 -13 0 -26 9 -32 22 -11 23 -23 29 -42 21z"/> <path d="M2804 1189 c-10 -17 23 -46 37 -32 7 7 9 19 6 27 -7 18 -33 21 -43 5z"/> <path d="M2757 1183 c-13 -13 -7 -53 8 -53 8 0 15 8 15 18 0 22 -14 44 -23 35z"/> <path d="M5657 1184 c-9 -10 4 -34 19 -34 8 0 14 9 14 20 0 19 -19 27 -33 14z"/> <path d="M2863 1154 c-9 -23 13 -40 32 -24 12 10 13 16 4 26 -15 18 -28 18 -36 -2z"/> <path d="M3133 1154 c-3 -8 1 -22 9 -30 13 -13 16 -13 27 0 7 9 11 23 7 31 -7 20 -35 19 -43 -1z"/> <path d="M5236 1161 c-9 -14 4 -41 19 -41 21 0 36 25 23 38 -14 14 -35 16 -42 3z"/> <path d="M5386 1155 c-6 -17 16 -31 33 -21 13 9 2 36 -14 36 -7 0 -16 -7 -19 -15z"/> <path d="M2654 1125 c-7 -18 3 -35 22 -35 20 0 30 30 13 41 -20 12 -29 11 -35 -6z"/> <path d="M3201 1131 c-9 -6 -11 -18 -7 -35 7 -30 7 -31 -41 -11 -50 21 -73 19 -73 -6 0 -18 4 -20 30 -14 24 5 30 3 30 -10 0 -13 6 -15 31 -10 25 6 31 4 36 -14 4 -14 13 -21 29 -21 14 0 27 -7 30 -15 4 -8 17 -15 30 -15 18 0 24 6 24 21 0 18 -4 20 -30 14 -35 -8 -37 -1 -10 40 20 30 13 55 -15 55 -7 0 -18 7 -25 15 -14 17 -20 18 -39 6z"/> <path d="M5168 1126 c-8 -7 -24 -17 -36 -20 -23 -8 -26 -14 -16 -40 9 -25 33 -19 40 9 6 24 8 25 24 10 17 -16 19 -15 30 5 9 16 9 25 -1 36 -14 18 -24 18 -41 0z"/> <path d="M5330 1100 c0 -20 5 -30 15 -30 10 0 15 10 15 30 0 20 -5 30 -15 30 -10 0 -15 -10 -15 -30z"/> <path d="M5447 1124 c-9 -10 2 -24 19 -24 8 0 14 7 14 15 0 15 -21 21 -33 9z"/> <path d="M5607 1123 c-26 -26 50 -77 79 -52 18 15 9 29 -18 29 -12 0 -29 7 -38 15 -9 8 -20 12 -23 8z"/> <path d="M2957 1113 c-15 -15 -7 -43 13 -43 15 0 20 7 20 25 0 24 -18 34 -33 18z"/> <path d="M5268 1083 c-6 -25 1 -43 17 -43 7 0 15 6 18 13 6 19 -4 47 -18 47 -7 0 -15 -8 -17 -17z"/> <path d="M5387 1071 c-5 -22 0 -31 20 -31 7 0 13 11 13 25 0 30 -25 34 -33 6z"/> <path d="M2864 1065 c-4 -9 -2 -21 4 -27 15 -15 44 -1 40 19 -4 23 -36 29 -44 8z"/> <path d="M3021 1066 c-9 -10 -8 -16 3 -25 10 -9 16 -8 25 3 9 10 8 16 -3 25 -10 9 -16 8 -25 -3z"/> <path d="M3320 1054 c0 -22 4 -25 28 -22 22 2 28 -1 30 -19 3 -17 -3 -26 -22 -33 -29 -11 -34 -28 -11 -36 17 -7 72 44 77 72 2 13 -4 20 -19 22 -13 2 -23 9 -23 17 0 7 -7 16 -16 19 -31 12 -44 6 -44 -20z"/> <path d="M5053 1064 c-7 -18 7 -46 25 -52 17 -5 28 48 11 59 -20 13 -29 11 -36 -7z"/> <path d="M5535 1060 c-9 -15 5 -52 18 -47 19 6 21 57 3 57 -8 0 -18 -5 -21 -10z"/> <path d="M3084 1035 c-8 -21 10 -39 30 -32 22 9 20 24 -4 37 -16 9 -22 8 -26 -5z"/> <path d="M4998 1043 c-10 -3 -18 -8 -18 -12 0 -5 -13 -11 -30 -14 -35 -8 -40 -33 -8 -43 14 -4 25 -1 33 9 7 10 20 14 33 10 18 -4 22 -1 22 20 0 29 -7 35 -32 30z"/> <path d="M5180 1031 c-6 -13 -21 -21 -35 -21 -30 0 -34 -25 -5 -33 13 -3 28 2 38 12 9 10 25 21 35 24 10 4 17 13 15 20 -8 21 -36 19 -48 -2z"/> <path d="M2780 1025 c0 -11 7 -15 23 -13 12 2 22 8 22 13 0 6 -10 11 -22 13 -16 2 -23 -2 -23 -13z"/> <path d="M2926 1032 c-8 -13 11 -35 23 -28 16 10 14 36 -3 36 -8 0 -17 -4 -20 -8z"/> <path d="M5330 1010 c0 -20 5 -30 15 -30 10 0 15 10 15 30 0 20 -5 30 -15 30 -10 0 -15 -10 -15 -30z"/> <path d="M5432 1013 c-28 -11 -32 -16 -22 -28 7 -8 23 -15 36 -15 13 0 24 -4 24 -10 0 -5 9 -10 20 -10 11 0 20 7 20 15 0 8 -7 15 -15 15 -8 0 -15 9 -15 19 0 28 -10 30 -48 14z"/> <path d="M3458 1013 c-33 -8 -17 -53 19 -53 21 0 24 4 21 27 -3 28 -12 33 -40 26z"/> <path d="M3170 980 c0 -20 5 -30 15 -30 10 0 15 10 15 30 0 20 -5 30 -15 30 -10 0 -15 -10 -15 -30z"/> <path d="M5228 989 c-22 -23 -23 -59 -3 -59 8 0 15 7 15 15 0 8 9 23 19 32 20 17 19 34 -2 32 -7 0 -20 -9 -29 -20z"/> <path d="M3531 986 c-14 -16 -9 -46 7 -46 5 0 15 7 22 16 11 12 11 18 -2 30 -13 13 -16 13 -27 0z"/> <path d="M2954 975 c-4 -9 -2 -21 4 -27 15 -15 44 -1 40 19 -4 23 -36 29 -44 8z"/> <path d="M3597 983 c-16 -15 -6 -43 15 -43 12 0 29 -7 39 -16 20 -18 59 -11 59 11 0 8 -12 18 -27 21 -16 4 -37 13 -48 20 -22 16 -29 17 -38 7z"/> <path d="M4847 977 c-9 -24 9 -40 37 -33 29 7 35 30 10 40 -25 10 -41 7 -47 -7z"/> <path d="M4784 954 c-4 -14 -2 -30 5 -37 8 -8 7 -15 -5 -28 -14 -16 -14 -18 4 -28 24 -13 46 7 32 29 -5 8 -5 21 0 29 9 18 -4 61 -19 61 -6 0 -14 -12 -17 -26z"/> <path d="M5057 974 c-4 -4 -2 -13 3 -20 13 -14 52 -6 47 10 -4 13 -40 20 -50 10z"/> <path d="M3074 945 c-4 -9 -2 -21 4 -27 15 -15 44 -1 40 19 -4 23 -36 29 -44 8z"/> <path d="M3412 947 c-14 -17 2 -42 22 -34 20 8 21 47 2 47 -7 0 -18 -6 -24 -13z"/> <path d="M5001 947 c-14 -17 3 -41 23 -34 9 4 16 13 16 21 0 19 -26 28 -39 13z"/> <path d="M3732 926 c-12 -27 -7 -36 20 -36 13 0 18 8 18 30 0 37 -22 40 -38 6z"/> <path d="M4725 940 c-4 -6 -1 -18 6 -26 12 -14 14 -14 26 2 7 9 10 21 7 25 -7 12 -31 11 -39 -1z"/> <path d="M5126 943 c-11 -11 -6 -23 9 -23 8 0 15 4 15 9 0 13 -16 22 -24 14z"/> <path d="M3266 924 c-4 -10 -2 -22 3 -27 15 -15 46 -3 46 18 0 26 -40 33 -49 9z"/> <path d="M4670 924 c-10 -11 -10 -17 0 -28 15 -19 40 -10 40 14 0 24 -25 33 -40 14z"/> <path d="M3206 923 c-12 -12 -6 -33 9 -33 8 0 15 6 15 14 0 17 -14 28 -24 19z"/> <path d="M4854 915 c-10 -25 6 -32 64 -27 38 3 52 8 52 19 0 12 -8 15 -38 10 -21 -2 -46 0 -55 5 -13 7 -19 5 -23 -7z"/> <path d="M3135 910 c-10 -16 16 -43 28 -31 11 11 2 41 -12 41 -5 0 -13 -5 -16 -10z"/> <path d="M3503 913 c-28 -5 -29 -19 -3 -33 26 -14 84 1 88 23 3 13 -4 17 -30 16 -18 -1 -43 -4 -55 -6z"/> <path d="M3798 893 c-5 -47 -81 -51 -125 -7 -7 7 -22 10 -33 7 -28 -8 -21 -39 8 -36 13 2 26 -5 32 -17 9 -17 14 -18 31 -9 15 8 24 8 32 0 18 -18 37 -13 69 19 31 32 34 63 6 68 -12 2 -18 -5 -20 -25z"/> <path d="M4583 904 c-8 -20 21 -49 41 -41 9 4 16 18 16 32 0 20 -5 25 -25 25 -14 0 -28 -7 -32 -16z"/> <path d="M4520 895 c-11 -13 -11 -19 2 -32 17 -16 38 -10 38 11 0 8 -6 19 -14 25 -10 9 -16 8 -26 -4z"/> <path d="M3350 890 c-18 -11 -4 -42 17 -38 10 2 19 10 21 19 4 19 -19 31 -38 19z"/> <path d="M3860 879 c0 -19 5 -21 40 -17 47 4 61 -14 23 -31 -29 -13 -26 -35 5 -39 15 -2 22 2 22 12 0 9 9 25 21 37 26 26 20 44 -14 44 -14 1 -29 4 -33 8 -4 4 -20 7 -36 7 -22 0 -28 -5 -28 -21z"/> <path d="M4012 888 c-18 -18 -14 -49 7 -55 11 -3 21 -17 25 -36 7 -31 8 -31 21 -13 21 28 18 46 -6 46 -17 0 -20 4 -15 24 7 29 -14 52 -32 34z"/> <path d="M4445 886 c-19 -14 -19 -16 13 -45 17 -16 32 -35 32 -40 0 -16 27 -13 34 4 3 8 -3 20 -13 27 -11 8 -21 24 -23 37 -4 30 -18 36 -43 17z"/> <path d="M5154 885 c-10 -26 13 -42 32 -23 15 15 15 17 -5 27 -17 10 -22 9 -27 -4z"/> <path d="M4090 870 c-13 -25 -5 -40 21 -40 14 0 19 7 19 30 0 35 -23 41 -40 10z"/> <path d="M4161 868 c-12 -30 6 -55 25 -36 14 14 8 58 -7 58 -6 0 -13 -10 -18 -22z"/> <path d="M4365 870 c-7 -23 1 -40 20 -40 19 0 25 13 18 38 -7 27 -30 29 -38 2z"/> <path d="M5040 876 c0 -13 20 -26 41 -26 5 0 9 9 9 20 0 15 -7 20 -25 20 -15 0 -25 -6 -25 -14z"/> <path d="M5330 875 c0 -11 7 -15 23 -13 12 2 22 8 22 13 0 6 -10 11 -22 13 -16 2 -23 -2 -23 -13z"/> <path d="M4216 854 c-7 -17 17 -35 33 -25 8 5 31 6 52 4 34 -5 39 -3 39 15 0 18 -6 20 -60 19 -38 0 -61 -5 -64 -13z"/> <path d="M3086 853 c-12 -13 -6 -53 9 -53 9 0 15 9 15 24 0 26 -12 40 -24 29z"/> <path d="M3410 845 c0 -8 7 -15 15 -15 8 0 15 7 15 15 0 8 -7 15 -15 15 -8 0 -15 -7 -15 -15z"/> <path d="M4700 845 c0 -12 7 -15 25 -13 14 2 26 8 26 13 0 6 -12 11 -26 13 -18 2 -25 -1 -25 -13z"/> <path d="M4934 845 c-9 -21 3 -45 21 -45 10 0 15 10 15 30 0 32 -26 43 -36 15z"/> <path d="M3254 836 c-8 -22 3 -49 19 -43 6 2 12 14 12 27 0 27 -22 39 -31 16z"/> <path d="M3832 838 c-16 -16 -15 -35 2 -41 19 -8 35 11 29 34 -6 22 -14 24 -31 7z"/> <path d="M4640 825 c0 -14 7 -28 15 -31 25 -10 17 -26 -12 -22 -20 2 -29 -2 -31 -14 -3 -14 3 -18 27 -18 17 0 31 4 31 9 0 5 11 12 25 15 30 8 33 26 5 33 -11 3 -23 16 -26 29 -8 32 -34 31 -34 -1z"/> <path d="M4851 836 c-14 -16 -9 -46 7 -46 21 0 32 26 19 44 -12 16 -14 16 -26 2z"/> <path d="M3497 834 c-14 -15 -6 -34 14 -34 14 0 19 5 17 17 -3 18 -20 27 -31 17z"/> <path d="M4557 834 c-17 -17 -5 -34 24 -34 24 0 30 4 27 18 -3 17 -38 29 -51 16z"/> <path d="M5263 833 c-24 -9 -14 -33 13 -33 18 0 25 5 22 17 -3 18 -16 24 -35 16z"/> <path d="M3020 816 c0 -9 7 -16 16 -16 17 0 14 22 -4 28 -7 2 -12 -3 -12 -12z"/> <path d="M3564 815 c-7 -17 4 -37 17 -30 12 8 12 45 -1 45 -6 0 -13 -7 -16 -15z"/> <path d="M3326 804 c-9 -22 1 -34 30 -34 29 0 32 25 5 40 -26 13 -28 13 -35 -6z"/> <path d="M5026 804 c-10 -26 -7 -34 14 -34 15 0 20 7 20 25 0 28 -24 34 -34 9z"/> <path d="M3635 796 c-18 -13 -18 -14 4 -26 27 -14 47 -1 38 24 -8 20 -18 20 -42 2z"/> <path d="M4119 794 c-10 -13 -10 -17 2 -25 20 -12 36 -11 41 4 13 34 -19 50 -43 21z"/> <path d="M4220 795 c-16 -20 -2 -38 25 -31 17 4 29 -3 50 -29 29 -34 45 -37 45 -9 0 8 -7 14 -15 14 -10 0 -15 10 -15 31 0 28 -3 31 -25 27 -14 -3 -28 -1 -31 3 -8 13 -20 11 -34 -6z"/> <path d="M4431 800 c-14 -8 -8 -40 7 -40 5 0 15 6 21 14 15 17 -8 39 -28 26z"/> <path d="M4751 796 c-10 -12 -8 -17 8 -25 22 -12 37 0 27 24 -7 19 -20 19 -35 1z"/> <path d="M3416 793 c-11 -11 -6 -23 9 -23 8 0 15 4 15 9 0 13 -16 22 -24 14z"/> <path d="M3715 790 c-8 -13 4 -32 16 -25 12 8 12 35 0 35 -6 0 -13 -4 -16 -10z"/> <path d="M3972 783 c5 -26 38 -29 38 -4 0 15 -6 21 -21 21 -14 0 -19 -5 -17 -17z"/> <path d="M4345 790 c-8 -12 20 -24 35 -15 6 3 8 11 5 16 -8 12 -32 12 -40 -1z"/> <path d="M5183 764 c-8 -21 13 -42 28 -27 13 13 5 43 -11 43 -6 0 -13 -7 -17 -16z"/> <path d="M3497 755 c-7 -18 2 -73 13 -80 11 -7 33 49 28 72 -4 23 -34 29 -41 8z"/> <path d="M4900 756 c0 -8 5 -18 10 -21 13 -8 42 14 34 26 -9 15 -44 10 -44 -5z"/> <path d="M3777 744 c-17 -17 -5 -34 24 -34 24 0 30 4 27 18 -3 17 -38 29 -51 16z"/> <path d="M4004 735 c-4 -9 -2 -21 4 -27 15 -15 44 -1 40 19 -4 23 -36 29 -44 8z"/> <path d="M4377 744 c-17 -17 -5 -34 24 -34 24 0 30 4 27 18 -3 17 -38 29 -51 16z"/> <path d="M4544 735 c-4 -9 -2 -21 4 -27 15 -15 44 -1 40 19 -4 23 -36 29 -44 8z"/> <path d="M3590 725 c0 -8 7 -15 15 -15 8 0 15 7 15 15 0 8 -7 15 -15 15 -8 0 -15 -7 -15 -15z"/> <path d="M3860 726 c0 -8 4 -17 9 -20 11 -7 33 18 24 27 -12 12 -33 7 -33 -7z"/> <path d="M4102 724 c4 -21 22 -23 26 -1 2 10 -3 17 -13 17 -10 0 -15 -6 -13 -16z"/> <path d="M4252 728 c-17 -17 -15 -48 3 -48 8 0 15 -6 15 -13 0 -7 6 -22 14 -32 13 -18 14 -18 26 5 11 21 10 26 -9 38 -11 8 -21 25 -21 38 0 26 -10 30 -28 12z"/> <path d="M4460 716 c0 -33 16 -42 30 -16 12 23 6 40 -16 40 -8 0 -14 -10 -14 -24z"/> <path d="M3674 705 c-4 -9 -2 -21 4 -27 15 -15 44 -1 40 19 -4 23 -36 29 -44 8z"/> <path d="M4160 695 c0 -8 7 -15 15 -15 8 0 15 7 15 15 0 8 -7 15 -15 15 -8 0 -15 -7 -15 -15z"/> <path d="M4765 700 c-4 -6 -3 -16 3 -22 6 -6 12 -6 17 2 4 6 3 16 -3 22 -6 6 -12 6 -17 -2z"/> <path d="M3621 676 c-14 -17 -7 -36 14 -36 22 0 29 20 13 36 -13 13 -16 13 -27 0z"/> <path d="M4644 675 c-10 -26 13 -42 32 -23 15 15 15 17 -5 27 -17 10 -22 9 -27 -4z"/> <path d="M3740 666 c0 -10 9 -16 21 -16 24 0 21 23 -4 28 -10 2 -17 -3 -17 -12z"/> <path d="M3940 665 c0 -8 9 -15 20 -15 11 0 20 7 20 15 0 8 -9 15 -20 15 -11 0 -20 -7 -20 -15z"/> <path d="M4100 660 c0 -15 5 -20 18 -18 9 2 17 10 17 18 0 8 -8 16 -17 18 -13 2 -18 -3 -18 -18z"/> <path d="M4034 657 c-8 -22 11 -46 26 -31 7 7 5 17 -4 30 -14 18 -15 18 -22 1z"/> <path d="M4437 664 c-16 -16 -7 -44 14 -44 15 0 20 5 17 22 -3 22 -19 33 -31 22z"/> <path d="M4737 643 c-12 -11 -8 -23 8 -23 8 0 15 7 15 15 0 16 -12 20 -23 8z"/> <path d="M3772 604 c4 -21 22 -23 26 -1 2 10 -3 17 -13 17 -10 0 -15 -6 -13 -16z"/> <path d="M3844 609 c-7 -12 15 -31 31 -26 6 2 11 11 13 20 4 19 -32 24 -44 6z"/> <path d="M4184 609 c-8 -14 18 -31 30 -19 9 9 0 30 -14 30 -5 0 -12 -5 -16 -11z"/> <path d="M4004 585 c-7 -18 3 -35 21 -35 18 0 26 15 19 34 -8 20 -33 21 -40 1z"/> <path d="M4580 575 c0 -8 9 -15 20 -15 11 0 20 7 20 15 0 8 -9 15 -20 15 -11 0 -20 -7 -20 -15z"/> </g> </svg> 