 <svg  version="1.0" xmlns="http://www.w3.org/2000/svg"  width="300.000000pt" height="72.000000pt" viewBox="0 0 300.000000 72.000000"  preserveAspectRatio="xMidYMid meet">  <g transform="translate(0.000000,72.000000) scale(0.100000,-0.100000)" fill="#f8f7f7" stroke="none"> <path d="M563 659 c-35 -32 -72 -77 -83 -99 -20 -38 -32 -47 -188 -122 -92 -44 -182 -92 -201 -106 l-33 -25 6 -68 c4 -38 15 -92 24 -121 29 -89 13 -87 442 -56 430 30 410 24 429 131 25 146 25 142 -8 179 -16 19 -51 48 -76 64 -47 29 -100 92 -143 168 -26 47 -47 71 -82 96 l-26 18 -61 -59z m143 -87 c4 -18 16 -34 30 -41 16 -7 24 -19 24 -35 0 -20 18 -37 90 -88 68 -47 90 -67 90 -85 0 -49 -23 -179 -34 -189 -14 -15 -755 -69 -768 -56 -8 8 -48 179 -48 207 0 7 95 58 210 114 200 97 210 103 210 130 0 35 30 74 70 91 24 10 30 18 30 44 l0 31 45 -47 c25 -26 48 -60 51 -76z"/> <path d="M591 597 c-46 -34 -65 -65 -51 -86 4 -7 32 -21 61 -31 52 -18 53 -19 19 -19 -20 -1 -52 7 -72 17 l-36 19 -5 -24 c-11 -59 80 -102 173 -82 50 11 70 24 70 46 0 11 -6 10 -26 -6 -19 -15 -41 -21 -80 -21 -29 0 -56 5 -59 10 -4 6 12 10 42 10 83 0 141 54 98 90 -12 10 -21 10 -38 2 -37 -17 -57 -22 -57 -12 0 5 -9 7 -20 5 -29 -6 -35 14 -12 37 25 25 63 18 42 -7 -7 -9 -10 -18 -6 -22 9 -9 56 15 56 29 0 13 -42 78 -50 77 -3 0 -25 -15 -49 -32z"/> <path d="M585 308 c-176 -9 -353 -17 -392 -17 -73 -1 -73 -1 -73 -28 0 -39 10 -48 50 -46 309 22 347 23 372 12 22 -9 30 -8 43 5 17 17 47 20 80 7 12 -5 28 -3 40 4 11 7 60 15 108 18 49 3 91 7 93 10 3 3 4 16 2 29 l-3 23 -320 -17z"/> <path d="M757 184 c-14 -16 -22 -17 -48 -7 -22 8 -38 9 -61 1 -18 -7 -65 -8 -119 -5 -73 6 -93 4 -118 -10 -28 -17 -31 -17 -48 0 -16 13 -26 15 -54 7 -18 -6 -50 -10 -70 -10 -20 0 -50 -3 -66 -6 -25 -5 -29 -10 -25 -30 5 -29 -28 -29 377 1 182 14 337 25 346 25 9 0 19 9 22 20 4 16 0 20 -21 20 -15 0 -43 3 -62 6 -26 4 -40 1 -53 -12z"/> <path d="M1315 622 c-113 -69 -204 -290 -166 -405 15 -44 73 -97 107 -97 35 0 93 32 133 74 19 20 40 36 46 36 6 0 24 -14 40 -30 24 -25 37 -30 75 -30 25 0 51 -5 56 -10 8 -8 18 -5 34 8 20 16 24 30 28 99 6 103 -10 133 -70 133 -22 0 -48 -5 -60 -11 -14 -8 -28 -7 -48 1 -33 14 -42 10 -102 -45 -63 -59 -114 -95 -134 -95 -14 0 -16 7 -10 42 9 53 52 151 77 174 16 14 23 15 45 5 23 -10 29 -8 55 18 16 16 29 37 29 47 0 27 -40 85 -67 95 -32 12 -33 12 -68 -9z m88 -60 c19 -31 19 -34 2 -52 -26 -28 -35 -25 -28 10 8 44 -21 40 -67 -9 -94 -99 -143 -311 -72 -311 28 0 106 53 174 119 68 67 104 73 39 7 -40 -41 -54 -65 -28 -50 8 5 8 3 -2 -9 -7 -9 -16 -15 -20 -13 -3 2 -15 -3 -26 -11 -16 -13 -17 -15 -2 -10 9 4 17 2 17 -3 0 -5 -9 -12 -20 -15 -11 -3 -20 -10 -20 -14 0 -5 -23 -18 -50 -30 -55 -24 -76 -20 -102 21 -44 67 -27 175 47 307 7 13 30 41 52 62 47 48 79 49 106 1z m185 -204 c9 -9 12 -9 12 0 0 16 27 15 33 0 9 -26 -5 -179 -17 -175 -6 2 -13 21 -16 43 l-5 39 -18 -32 c-21 -40 -58 -44 -81 -11 -25 35 -19 61 22 106 42 45 51 49 70 30z"/> <path d="M1551 308 c-32 -33 -47 -65 -36 -76 8 -8 48 39 71 81 19 36 4 34 -35 -5z"/> <path d="M2416 624 c-55 -55 -85 -159 -93 -319 -5 -113 -4 -122 17 -148 43 -54 90 -26 90 56 0 65 15 93 25 48 7 -33 47 -71 74 -71 23 1 58 31 70 60 8 21 10 17 10 -28 1 -45 5 -58 30 -83 33 -33 39 -34 65 -14 16 12 21 38 32 162 17 185 16 181 15 225 -1 48 -42 98 -80 98 -28 0 -62 -30 -96 -82 -9 -16 -21 -28 -25 -28 -4 0 -13 20 -19 44 -19 77 -78 118 -115 80z m58 -37 c19 -19 25 -42 36 -134 7 -62 10 -123 8 -137 -9 -48 8 -26 20 25 14 58 70 183 99 218 25 30 56 22 73 -19 10 -25 9 -60 -5 -190 -10 -88 -15 -174 -11 -191 6 -31 5 -31 -17 -17 -34 23 -34 59 -1 342 4 33 3 46 -4 42 -25 -15 -112 -228 -112 -273 0 -25 -34 -40 -54 -24 -8 7 -18 58 -25 139 -7 70 -15 140 -18 156 l-5 30 -14 -26 c-23 -43 -45 -173 -46 -273 -1 -53 -5 -98 -8 -100 -4 -3 -15 4 -25 15 -34 37 -6 269 47 393 11 26 25 47 30 47 5 0 19 -10 32 -23z"/> <path d="M1737 502 c-17 -18 -37 -148 -37 -237 0 -41 5 -56 23 -73 25 -24 52 -28 62 -12 4 6 21 8 40 4 26 -4 41 -1 63 15 l29 20 19 -20 c43 -48 95 -45 149 9 48 48 53 73 25 127 -29 57 -62 79 -105 71 -39 -8 -92 -62 -101 -104 -3 -15 -7 -31 -7 -35 -1 -4 -11 -1 -22 6 -17 14 -18 18 -5 56 13 41 13 42 -18 74 -19 20 -32 43 -32 58 0 28 -27 59 -52 59 -8 0 -22 -8 -31 -18z m50 -28 c3 -10 2 -48 -3 -87 l-10 -70 26 32 c47 55 70 34 25 -25 l-25 -32 40 -36 c22 -20 40 -38 40 -41 0 -15 -44 -2 -66 20 -34 34 -47 32 -39 -5 6 -26 4 -30 -14 -30 -19 0 -21 6 -21 53 0 124 13 237 27 237 7 0 16 -7 20 -16z m268 -114 c9 -10 15 -26 12 -35 -8 -19 -66 -55 -90 -55 -15 0 -16 -3 -7 -20 15 -28 31 -25 81 15 71 56 81 44 19 -23 -34 -36 -46 -43 -73 -40 -26 2 -36 10 -51 42 -18 37 -18 40 -2 70 16 31 59 65 82 66 6 0 19 -9 29 -20z"/> <path d="M1999 331 c-31 -25 -21 -35 11 -11 14 10 22 21 19 25 -3 3 -17 -3 -30 -14z"/> <path d="M2830 387 c-75 -50 -88 -127 -32 -187 26 -28 42 -34 89 -31 23 1 80 53 101 93 12 22 11 29 -11 64 -57 88 -89 101 -147 61z m85 -27 c9 -10 15 -26 12 -35 -8 -19 -66 -55 -90 -55 -15 0 -16 -3 -7 -20 15 -28 31 -25 81 15 71 56 81 44 20 -23 -62 -67 -115 -55 -136 31 -6 23 -1 33 33 67 45 45 61 49 87 20z"/> <path d="M2859 331 c-31 -25 -21 -35 11 -11 14 10 22 21 19 25 -3 3 -17 -3 -30 -14z"/> </g> </svg> 