<?xml version="1.0" standalone="no"?>
<!DOCTYPE svg PUBLIC "-//W3C//DTD SVG 20010904//EN"
 "http://www.w3.org/TR/2001/REC-SVG-20010904/DTD/svg10.dtd">
<svg version="1.0" xmlns="http://www.w3.org/2000/svg"
 width="900.000000pt" height="525.000000pt" viewBox="0 0 900.000000 525.000000"
 preserveAspectRatio="xMidYMid meet">
<metadata>
Created by potrace 1.10, written by Peter Selinger 2001-2011
</metadata>
<g transform="translate(0.000000,525.000000) scale(0.100000,-0.100000)"
fill="#ffffff" stroke="none">
<path d="M4917 3562 c-16 -2 -30 -9 -31 -15 -16 -63 -44 -143 -68 -197 -40
-88 -70 -156 -101 -230 -100 -240 -143 -310 -188 -310 -19 0 -31 -23 -23 -45
5 -12 30 -14 137 -12 129 2 132 3 135 25 3 22 -1 26 -49 36 -44 9 -46 79 -5
131 l22 28 150 1 c155 2 194 -6 194 -42 0 -9 5 -30 12 -48 10 -29 9 -36 -6
-53 -10 -11 -28 -21 -40 -23 -14 -2 -22 -11 -24 -29 l-3 -25 166 0 165 -1 0
29 c0 22 -5 28 -22 28 -28 1 -59 26 -80 65 -21 40 -71 149 -93 205 -10 25 -31
72 -46 105 -16 33 -29 68 -29 76 0 9 -7 22 -15 29 -8 7 -15 21 -15 30 0 10 -6
31 -14 47 -20 39 -42 90 -63 145 -20 52 -24 55 -66 50z m7 -234 c9 -17 16 -38
16 -45 0 -8 6 -27 13 -41 8 -15 22 -45 31 -67 10 -22 24 -53 32 -68 31 -62 27
-65 -108 -63 -68 1 -128 5 -135 9 -8 5 -2 25 19 69 17 35 36 74 43 88 7 14 21
53 31 87 10 35 24 63 31 63 6 0 19 -14 27 -32z"/>
<path d="M4020 3545 c-14 -8 -31 -14 -38 -15 -21 0 -117 -76 -148 -117 -53
-70 -94 -187 -94 -270 0 -95 53 -216 123 -279 45 -40 71 -55 170 -98 48 -21
193 -22 234 -2 15 8 45 23 66 33 49 23 99 72 95 92 -4 22 -46 26 -66 7 -17
-15 -76 -33 -140 -43 -37 -6 -107 10 -169 39 -43 20 -133 102 -133 121 0 6 -6
18 -13 26 -7 9 -19 41 -27 71 -36 146 10 285 114 341 53 28 195 26 252 -4 115
-62 112 -61 128 -47 18 14 40 86 32 105 -3 8 -26 23 -52 34 -40 18 -66 21
-178 21 -95 -1 -138 -5 -156 -15z"/>
<path d="M5424 3551 c-2 -2 -4 -14 -4 -26 0 -18 7 -24 40 -29 68 -11 70 -23
70 -341 0 -323 -5 -345 -81 -345 -24 0 -35 -25 -20 -43 8 -10 50 -13 168 -13
l158 1 3 28 c3 23 0 27 -22 27 -14 0 -37 10 -51 23 l-26 22 0 299 0 299 27 24
c15 12 38 23 51 23 21 0 24 4 21 27 l-3 27 -163 1 c-90 0 -165 -1 -168 -4z"/>
<path d="M5914 3551 c-13 -13 -1 -43 22 -51 17 -7 24 -16 22 -29 -2 -10 -46
-63 -98 -118 -101 -104 -170 -185 -170 -198 0 -11 148 -175 302 -336 21 -21
41 -39 45 -39 3 0 14 -6 22 -14 19 -17 150 -31 170 -18 20 14 4 49 -27 60 -15
5 -56 38 -92 74 -91 90 -294 307 -298 316 -4 13 245 259 278 275 16 9 48 18
70 22 37 6 41 10 38 33 l-3 27 -138 0 c-76 0 -141 -2 -143 -4z"/>
<path d="M6334 3546 c-9 -24 3 -46 25 -46 11 0 33 -12 50 -26 l31 -26 0 -289
0 -290 -26 -24 c-14 -13 -42 -27 -62 -32 -38 -9 -49 -27 -33 -52 7 -12 23 -12
92 -3 56 7 149 7 278 1 183 -8 197 -7 225 11 52 32 97 131 76 170 -16 29 -32
24 -63 -21 -15 -22 -38 -44 -51 -49 -13 -5 -27 -13 -30 -18 -6 -10 -125 -28
-166 -24 -64 5 -91 14 -101 33 -5 11 -12 71 -14 134 -3 134 5 151 71 140 55
-9 116 -34 129 -52 18 -24 55 -7 62 28 3 16 9 32 13 34 5 3 18 26 30 51 31 64
16 76 -47 37 -41 -26 -61 -31 -137 -36 -49 -4 -96 -2 -106 3 -14 8 -16 24 -15
118 1 59 7 118 14 130 16 30 48 36 149 29 77 -6 88 -9 109 -33 13 -15 23 -36
23 -46 0 -30 43 -19 51 12 41 150 39 153 -99 145 -170 -10 -352 -11 -414 -1
-49 7 -58 6 -64 -8z"/>
<path d="M2492 3455 c-19 -25 -22 -39 -21 -129 1 -115 5 -135 36 -169 35 -41
43 -60 31 -82 -6 -11 -14 -22 -18 -25 -16 -13 -68 -110 -86 -160 -15 -44 -19
-82 -19 -186 l0 -132 -45 -43 c-71 -69 -100 -107 -100 -131 0 -13 -7 -36 -15
-52 -9 -16 -18 -63 -22 -105 -9 -113 -12 -118 -75 -124 -72 -7 -137 -22 -151
-36 -6 -6 -23 -11 -38 -11 -15 0 -34 -6 -41 -13 -25 -22 -79 -47 -103 -47 -14
0 -39 -13 -57 -29 -18 -15 -39 -26 -45 -24 -7 3 -13 -2 -13 -11 0 -27 -17 -27
-76 -1 -31 14 -74 25 -95 25 -58 0 -139 20 -192 48 -41 21 -57 24 -112 20 -35
-3 -69 -11 -77 -17 -7 -7 -28 -22 -46 -34 -24 -16 -39 -38 -53 -77 -20 -58
-25 -125 -10 -135 5 -3 12 -18 16 -34 3 -15 24 -45 46 -67 38 -37 43 -39 101
-39 l62 0 29 -55 c15 -30 37 -58 48 -62 10 -4 19 -14 19 -22 0 -8 13 -19 29
-24 16 -6 38 -23 48 -38 31 -48 134 -143 177 -163 92 -43 114 -50 186 -61 90
-15 408 -28 449 -19 19 4 45 0 72 -12 22 -11 62 -19 88 -19 50 0 167 25 218
47 17 7 38 13 46 13 9 0 19 5 22 11 4 5 17 15 28 20 42 19 70 37 135 90 136
109 182 166 259 321 13 26 28 50 33 53 12 8 13 60 1 83 -12 25 13 77 50 104
34 25 139 177 139 201 0 8 7 31 16 52 11 28 14 60 11 124 -5 90 -28 242 -46
301 -6 19 -11 46 -11 59 0 15 -16 39 -45 67 -25 23 -45 46 -45 51 0 4 -29 40
-65 78 -36 39 -65 74 -65 79 0 5 7 14 16 21 14 10 14 15 3 33 -7 11 -23 23
-36 27 -14 3 -25 15 -28 33 -4 15 -13 42 -21 60 -8 18 -14 37 -14 42 0 5 -20
43 -45 83 -25 41 -45 78 -45 83 0 18 -86 84 -117 90 -17 3 -58 19 -90 35 -32
16 -65 29 -75 29 -9 0 -18 5 -20 12 -2 6 -29 13 -59 16 -52 4 -57 2 -77 -23z
m105 -35 c21 -11 44 -20 51 -20 8 0 34 -13 59 -30 24 -16 47 -30 50 -30 3 0
27 -16 54 -35 45 -34 91 -94 133 -174 10 -20 25 -43 33 -52 9 -11 12 -26 7
-43 -5 -22 -8 -24 -18 -12 -6 8 -30 19 -52 25 -23 6 -45 18 -48 26 -3 8 -16
15 -30 15 -13 0 -26 5 -28 10 -2 6 -41 12 -88 14 -69 3 -87 1 -97 -13 -11 -14
-12 -14 -13 5 0 11 -13 33 -29 48 -37 35 -58 93 -65 179 -5 58 -3 70 14 87 24
24 22 24 67 0z m117 -355 c8 -8 29 -15 46 -15 17 0 57 -14 88 -31 31 -18 71
-39 87 -48 40 -21 85 -62 85 -77 0 -13 62 -78 97 -101 13 -9 23 -21 23 -27 0
-25 25 -64 51 -78 25 -15 59 -68 59 -92 0 -6 9 -28 19 -48 11 -19 17 -38 14
-41 -3 -3 3 -29 12 -58 28 -84 18 -244 -21 -337 -8 -18 -14 -43 -14 -55 0 -13
-7 -32 -15 -42 -8 -11 -23 -31 -33 -44 -21 -28 -42 -21 -42 13 0 13 -7 30 -16
37 -9 7 -31 37 -50 66 -18 29 -43 58 -54 65 -11 7 -20 18 -20 24 0 6 -16 24
-35 40 -20 16 -70 61 -112 99 -92 85 -90 83 -187 170 -64 57 -85 69 -113 69
-24 0 -33 4 -32 16 4 41 -3 57 -33 73 -18 10 -39 30 -45 44 -15 31 -17 109 -4
117 4 3 11 23 15 44 3 22 13 52 21 68 8 16 15 34 15 41 0 6 4 13 8 15 4 2 17
21 29 43 15 30 26 39 42 38 13 -2 21 3 21 12 0 20 73 20 94 0z m-181 -566 c29
-28 66 -59 82 -68 17 -9 44 -28 60 -44 16 -15 33 -27 36 -27 4 0 9 -9 12 -20
3 -12 14 -20 25 -20 11 0 34 -14 51 -31 25 -24 35 -29 45 -20 11 9 31 -5 95
-68 47 -46 81 -88 81 -99 0 -40 -93 -72 -106 -37 -4 9 -32 32 -63 52 -31 21
-60 43 -64 50 -11 18 -37 16 -37 -2 0 -8 7 -15 15 -15 8 0 24 -13 37 -30 12
-16 30 -30 39 -30 10 0 30 -11 45 -25 15 -14 35 -25 46 -25 26 0 33 -26 14
-55 -23 -35 -20 -45 13 -45 21 0 30 6 34 21 5 18 11 20 37 14 36 -8 85 -49 75
-64 -3 -6 -21 -12 -38 -12 -27 -2 -28 -2 -7 -6 37 -7 42 -16 45 -73 2 -47 0
-52 -23 -61 -14 -5 -31 -8 -39 -5 -7 3 -13 1 -13 -4 0 -5 10 -10 23 -12 29 -4
34 -39 7 -63 -11 -10 -20 -24 -20 -32 0 -34 -69 -125 -145 -191 -86 -75 -85
-75 -129 -95 -29 -13 -42 -15 -52 -6 -12 9 -14 7 -12 -12 2 -18 -3 -25 -22
-29 -37 -8 -88 -42 -94 -62 -5 -23 -46 -24 -46 -2 0 12 -6 15 -22 10 -13 -3
-34 -6 -48 -6 -39 0 -57 -15 -41 -34 11 -13 11 -16 -2 -16 -8 0 -17 6 -20 14
-3 7 -20 16 -39 18 -18 3 -41 8 -50 13 -13 5 -18 3 -18 -9 0 -17 -15 -22 -25
-7 -3 6 0 13 7 18 21 13 51 104 53 155 0 28 7 53 15 60 13 11 14 49 10 233 -3
139 -9 219 -15 218 -5 -2 -11 -24 -13 -50 -6 -101 -29 -83 -31 25 -1 29 -8 66
-16 82 -17 33 -14 162 4 184 6 7 10 30 9 52 -1 45 7 80 22 100 7 7 9 18 5 25
-4 6 -3 21 3 32 6 12 13 33 16 47 6 27 107 140 126 140 6 0 34 -23 63 -51z
m524 -449 c10 -11 23 -20 30 -20 18 0 55 -39 48 -50 -10 -16 -52 -12 -59 5 -3
8 -15 15 -26 15 -13 0 -24 10 -30 26 -17 44 7 59 37 24z m-830 -30 c7 -107 37
-240 59 -257 13 -9 15 -22 9 -62 -4 -28 -10 -51 -14 -51 -4 0 -17 18 -30 40
-12 22 -27 40 -33 40 -7 0 -21 9 -33 20 -14 13 -25 16 -35 10 -12 -8 -7 -17
30 -50 25 -22 50 -40 55 -40 6 -1 25 -20 43 -42 24 -31 31 -47 26 -62 -4 -12
-7 -37 -8 -57 0 -20 -6 -42 -13 -50 -7 -8 -10 -24 -7 -36 3 -12 0 -32 -7 -44
-7 -13 -12 -31 -11 -40 5 -30 -26 -74 -55 -77 -80 -9 -309 -9 -320 0 -7 6 -22
8 -34 5 -12 -3 -33 2 -47 11 -13 9 -41 17 -62 18 -40 2 -176 77 -191 107 -5 9
-19 17 -30 17 -12 0 -23 8 -26 20 -3 11 -9 20 -14 20 -5 0 -9 9 -9 20 0 11 6
20 13 20 10 0 67 55 67 65 0 2 14 19 30 37 17 18 30 38 30 44 0 6 6 16 13 22
6 6 28 41 47 79 35 68 162 206 202 219 10 3 18 9 18 14 0 4 10 10 23 13 12 3
58 18 102 34 59 22 97 29 145 29 l65 -1 2 -35z m-883 -65 c15 -8 38 -15 50
-15 12 0 46 -12 74 -26 46 -23 56 -25 81 -14 62 25 123 -12 76 -46 -14 -10
-16 -22 -12 -52 6 -31 2 -46 -20 -79 -15 -23 -43 -49 -62 -59 -20 -9 -45 -31
-56 -48 -31 -47 -80 -48 -128 -2 -37 35 -47 56 -25 56 28 0 84 34 96 58 6 14
10 28 7 30 -8 8 -83 -29 -89 -44 -7 -18 -107 -19 -124 -2 -10 10 -15 10 -22
-2 -5 -8 -12 -11 -16 -7 -4 4 -2 13 4 19 7 7 12 18 12 25 0 19 -27 16 -34 -4
-6 -15 -10 -13 -31 12 -14 15 -25 32 -25 36 0 15 21 21 35 9 9 -7 15 -8 20 0
3 5 0 13 -8 16 -8 3 -23 21 -33 40 l-19 35 42 40 c41 37 45 39 110 39 41 0 79
-6 97 -15z"/>
<path d="M2550 3390 c0 -5 7 -10 15 -10 8 0 15 5 15 10 0 6 -7 10 -15 10 -8 0
-15 -4 -15 -10z"/>
<path d="M2992 2741 c2 -7 7 -12 11 -12 12 1 9 15 -3 20 -7 2 -11 -2 -8 -8z"/>
<path d="M3047 2694 c-4 -4 -7 -16 -7 -26 0 -10 -7 -18 -15 -18 -19 0 -20 -34
-1 -49 7 -6 21 -8 30 -5 11 4 22 -1 31 -12 7 -11 17 -15 22 -11 4 5 0 14 -9
21 -12 9 -17 25 -15 56 1 33 -2 45 -13 47 -9 2 -19 1 -23 -3z"/>
<path d="M2962 2681 c2 -7 7 -12 11 -12 12 1 9 15 -3 20 -7 2 -11 -2 -8 -8z"/>
<path d="M3174 2629 c-3 -6 -1 -16 5 -22 8 -8 11 -5 11 11 0 24 -5 28 -16 11z"/>
<path d="M2847 2564 c-9 -9 57 -71 85 -80 10 -3 18 -9 18 -14 0 -5 16 -17 35
-26 19 -9 35 -22 35 -29 0 -17 82 -85 102 -85 9 0 18 -7 22 -15 3 -8 16 -15
30 -15 13 0 26 -7 30 -15 7 -18 46 -20 46 -2 0 11 -60 47 -80 47 -5 0 -21 11
-35 24 l-26 24 31 25 c49 42 39 112 -11 74 -9 -7 -19 -22 -23 -35 -5 -16 -15
-22 -37 -22 -34 0 -79 26 -79 46 0 8 -6 14 -13 14 -8 0 -27 13 -43 30 -16 16
-35 30 -43 30 -8 0 -19 7 -25 16 -6 8 -15 12 -19 8z"/>
<path d="M3130 2555 c0 -8 7 -15 16 -15 9 0 22 -7 29 -17 8 -11 18 -14 31 -8
17 7 16 9 -8 18 -16 6 -28 17 -28 24 0 7 -9 13 -20 13 -11 0 -20 -7 -20 -15z"/>
<path d="M3054 2306 c-8 -22 4 -36 32 -36 15 0 24 -6 24 -15 0 -10 10 -15 26
-15 15 0 33 -8 40 -17 10 -15 15 -16 26 -5 10 10 9 14 -9 18 -12 3 -24 12 -27
20 -3 8 -16 14 -30 14 -13 0 -26 6 -29 14 -3 8 -15 20 -27 26 -16 9 -21 8 -26
-4z"/>
<path d="M3027 2264 c-8 -8 3 -34 14 -34 11 0 12 27 0 34 -4 3 -11 3 -14 0z"/>
<path d="M2600 2345 c0 -10 7 -15 18 -13 21 4 19 22 -2 26 -10 2 -16 -3 -16
-13z"/>
<path d="M2623 2294 c-9 -4 -9 -11 -1 -29 18 -39 68 -46 68 -9 0 8 -7 14 -15
14 -9 0 -18 7 -21 15 -6 16 -11 17 -31 9z"/>
<path d="M2705 2290 c-3 -5 3 -10 15 -10 12 0 18 5 15 10 -3 6 -10 10 -15 10
-5 0 -12 -4 -15 -10z"/>
<path d="M2750 2251 c0 -15 48 -42 55 -31 3 6 0 10 -8 10 -8 0 -17 7 -21 15
-6 16 -26 21 -26 6z"/>
<path d="M2820 2205 c0 -3 9 -14 20 -25 29 -29 48 -25 20 5 -22 23 -40 32 -40
20z"/>
<path d="M2907 2144 c-3 -4 10 -17 30 -31 24 -17 39 -21 46 -14 7 7 4 13 -9
18 -10 4 -25 13 -32 20 -15 14 -25 16 -35 7z"/>
<path d="M2361 2077 c-11 -28 -3 -78 15 -92 7 -5 14 -32 17 -60 4 -50 18 -97
43 -146 8 -15 16 -50 18 -79 2 -29 9 -56 15 -59 6 -4 10 -31 9 -62 -3 -116 1
-144 23 -157 24 -15 42 -6 19 9 -13 8 -13 11 3 23 21 16 22 32 2 40 -12 4 -15
21 -12 78 2 67 4 73 25 76 13 2 25 -3 28 -12 5 -14 34 -24 34 -12 0 19 -16 36
-32 36 -31 0 -88 66 -88 100 0 16 -4 32 -10 35 -5 3 -10 16 -10 28 -1 12 -9
40 -20 62 -11 22 -19 52 -20 66 0 15 -7 32 -15 39 -9 7 -13 20 -10 28 7 20 -5
82 -16 82 -5 0 -13 -10 -18 -23z"/>
<path d="M2840 1867 c0 -6 5 -28 10 -47 6 -19 13 -65 15 -102 3 -54 1 -68 -11
-68 -8 0 -14 5 -14 10 0 6 -9 10 -20 10 -27 0 -25 -10 11 -45 l30 -29 24 30
c19 25 30 30 52 27 26 -3 27 -3 7 8 -24 12 -48 55 -35 63 4 3 7 31 5 63 -2 46
-6 58 -22 64 -11 4 -23 12 -27 18 -9 15 -25 14 -25 -2z"/>
<path d="M3022 1839 c2 -7 10 -15 17 -17 8 -3 12 1 9 9 -2 7 -10 15 -17 17 -8
3 -12 -1 -9 -9z"/>
<path d="M2690 1795 c0 -13 -7 -28 -17 -33 -18 -11 -11 -45 9 -40 7 2 30 -10
50 -25 52 -40 64 -25 17 23 -44 45 -47 55 -19 70 26 14 17 30 -16 30 -19 0
-24 -5 -24 -25z"/>
<path d="M2940 1814 c0 -16 44 -54 64 -54 26 0 14 24 -14 28 -13 2 -30 11 -37
20 -7 10 -13 12 -13 6z"/>
<path d="M2750 1782 c0 -9 43 -42 55 -42 4 0 5 10 3 23 -2 16 -11 23 -30 25
-16 2 -28 -1 -28 -6z"/>
<path d="M2575 1750 c-4 -6 -3 -16 3 -22 6 -6 12 -6 17 2 4 6 3 16 -3 22 -6 6
-12 6 -17 -2z"/>
<path d="M2690 1625 c0 -9 -13 -28 -28 -43 -15 -15 -33 -39 -39 -54 -10 -22
-9 -29 6 -42 23 -21 28 -20 27 7 -1 16 5 23 22 25 12 2 22 -1 22 -7 0 -6 5
-11 10 -11 6 0 5 8 -2 19 -10 16 -9 23 6 40 22 24 18 74 -6 79 -11 2 -18 -3
-18 -13z"/>
<path d="M2896 1601 c-3 -5 1 -11 9 -15 15 -6 29 7 18 18 -9 9 -21 8 -27 -3z"/>
<path d="M2562 1448 c3 -7 13 -15 22 -16 12 -3 17 1 14 10 -3 7 -13 15 -22 16
-12 3 -17 -1 -14 -10z"/>
<path d="M2797 1442 c-20 -21 -22 -32 -6 -32 14 0 39 25 39 39 0 17 -15 13
-33 -7z"/>
<path d="M2598 1398 c-2 -19 -10 -24 -45 -26 -48 -4 -54 -18 -19 -44 22 -16
25 -16 59 0 20 9 36 23 37 30 0 7 7 15 15 19 14 5 14 8 -1 24 -23 25 -42 24
-46 -3z"/>
<path d="M2152 1819 c1 -13 8 -23 13 -21 15 3 12 35 -3 40 -9 3 -13 -3 -10
-19z"/>
<path d="M2175 1640 c-8 -14 3 -30 21 -30 16 0 16 2 8 24 -7 18 -20 21 -29 6z"/>
<path d="M2083 1533 c-55 -27 -37 -64 25 -54 33 6 37 10 40 39 4 37 -12 41
-65 15z"/>
<path d="M2245 1541 c-7 -12 12 -24 25 -16 11 7 4 25 -10 25 -5 0 -11 -4 -15
-9z"/>
<path d="M1937 1523 c4 -10 19 -30 35 -45 15 -15 28 -32 28 -38 0 -5 7 -10 15
-10 22 0 18 12 -11 40 -14 13 -30 34 -35 47 -5 13 -15 23 -23 23 -10 0 -13 -6
-9 -17z"/>
<path d="M1792 1508 c6 -18 28 -21 28 -4 0 9 -7 16 -16 16 -9 0 -14 -5 -12
-12z"/>
<path d="M2210 1505 c0 -8 5 -15 11 -15 7 0 18 -8 25 -17 8 -11 13 -13 14 -6
0 15 -31 53 -42 53 -5 0 -8 -7 -8 -15z"/>
<path d="M1830 1474 c0 -5 9 -20 20 -32 11 -12 20 -25 20 -29 0 -9 45 -53 54
-53 4 0 19 -11 34 -25 32 -30 43 -16 12 17 -11 12 -23 33 -27 46 -3 15 -21 30
-52 44 -25 12 -49 27 -53 32 -5 8 -8 8 -8 0z"/>
<path d="M1704 1456 c-3 -8 -17 -17 -30 -20 -39 -10 -27 -41 15 -39 37 1 71
27 71 55 0 22 -48 26 -56 4z"/>
<path d="M2130 1395 c0 -9 25 -50 35 -57 19 -14 35 -9 28 10 -9 26 -63 66 -63
47z"/>
<path d="M1852 1361 c2 -7 7 -12 11 -12 12 1 9 15 -3 20 -7 2 -11 -2 -8 -8z"/>
<path d="M3996 2548 c-13 -18 -16 -57 -16 -213 -1 -104 -5 -221 -10 -260 -6
-38 -14 -173 -19 -300 -15 -356 -29 -504 -53 -543 -23 -38 -84 -72 -128 -72
-28 0 -30 -3 -30 -34 0 -19 5 -38 11 -41 14 -9 444 -9 458 0 6 3 11 22 11 41
0 31 -2 34 -31 34 -37 0 -77 22 -104 58 -19 25 -20 40 -17 237 2 116 5 297 6
403 1 111 6 192 12 191 19 -3 41 -25 48 -49 7 -24 49 -120 66 -150 5 -8 27
-51 50 -95 41 -80 47 -93 68 -130 6 -11 23 -42 37 -70 14 -27 30 -59 37 -70
16 -28 22 -40 68 -132 22 -45 45 -85 50 -88 6 -3 10 -14 10 -24 0 -10 7 -24
15 -31 8 -7 15 -19 15 -28 0 -8 11 -30 26 -49 21 -28 31 -33 68 -33 51 0 86
31 86 76 0 17 7 39 15 50 8 10 15 29 15 40 0 12 7 27 15 34 8 7 15 18 15 25 0
11 166 355 191 395 5 8 12 22 15 30 3 8 10 22 15 30 5 8 12 22 15 30 3 8 12
30 20 47 19 42 38 88 61 140 11 25 24 42 32 40 12 -2 15 -42 16 -222 2 -121 8
-258 14 -305 18 -138 15 -243 -9 -283 -20 -34 -75 -67 -111 -67 -25 0 -35 -25
-23 -57 l9 -25 280 0 280 -1 9 26 c13 36 1 57 -31 57 -45 0 -106 41 -127 85
-17 33 -21 72 -27 230 -4 105 -12 231 -18 280 -6 50 -11 144 -11 210 0 66 -7
188 -15 270 -8 83 -15 189 -15 236 0 92 -4 99 -54 99 -27 0 -45 -21 -75 -85
-28 -58 -466 -947 -487 -987 -8 -14 -14 -32 -14 -40 0 -8 -11 -25 -25 -38
l-24 -23 -11 27 c-5 15 -10 30 -10 34 0 8 -79 164 -126 247 -18 33 -36 67 -39
75 -4 8 -10 22 -15 30 -5 8 -21 38 -35 65 -14 28 -48 91 -75 140 -27 50 -61
113 -75 140 -15 28 -48 91 -75 140 -26 50 -65 124 -86 165 -21 41 -47 83 -59
92 -28 24 -61 22 -79 -4z m144 -372 c0 -13 7 -29 15 -36 17 -14 20 -36 6 -45
-12 -7 -47 42 -56 78 -6 23 -4 27 14 27 15 0 21 -6 21 -24z m1120 -77 c0 -79
-13 -94 -47 -55 -28 33 -30 79 -3 106 11 11 20 25 20 31 0 8 5 8 15 -1 11 -9
15 -32 15 -81z"/>
<path d="M5780 2530 c-6 -11 -9 -29 -5 -39 6 -19 45 -41 73 -41 25 0 71 -33
93 -66 18 -28 19 -57 19 -567 0 -493 -1 -540 -17 -565 -10 -15 -27 -34 -38
-42 -24 -18 -112 -48 -142 -49 -19 -1 -23 -7 -23 -33 0 -59 9 -64 92 -50 125
22 281 25 635 13 278 -10 346 -10 364 1 75 43 148 171 157 273 4 59 3 65 -14
66 -34 2 -49 -3 -58 -19 -22 -40 -138 -143 -176 -158 -8 -3 -28 -11 -45 -18
-50 -22 -195 -46 -270 -45 -86 1 -162 26 -189 63 -19 25 -22 46 -27 244 -4
152 -3 224 5 242 12 25 13 25 126 23 134 -3 176 -17 232 -76 20 -21 44 -37 53
-35 16 3 35 34 67 108 9 19 32 69 53 111 56 115 42 143 -44 84 -86 -59 -153
-75 -323 -75 -142 0 -148 1 -160 23 -15 26 -12 406 4 447 5 14 21 35 36 47 25
21 37 22 172 23 118 0 154 -4 194 -19 51 -19 116 -74 116 -98 0 -7 7 -25 16
-38 17 -27 62 -35 68 -12 17 65 30 119 36 155 4 24 12 48 18 54 16 16 15 53
-2 67 -9 8 -151 10 -507 9 -272 -2 -513 1 -536 5 -37 8 -43 6 -53 -13z m350
-679 c14 -27 13 -44 -5 -67 -15 -19 -15 -19 -30 0 -13 17 -12 53 2 79 7 13 22
8 33 -12z"/>
</g>
</svg>
