<?xml version="1.0" ?>
<!-- Uploaded to: SVG Repo, www.svgrepo.com, Generator: SVG Repo Mixer Tools -->
<svg width="800px" height="800px" viewBox="0 0 24 24" version="1.1" xml:space="preserve" xmlns="http://www.w3.org/2000/svg" xmlns:xlink="http://www.w3.org/1999/xlink">
<style type="text/css">
	.st0{display:none;}
	.st1{display:inline;}
	.st2{opacity:0.2;fill:none;stroke:#000000;stroke-width:5.000000e-02;stroke-miterlimit:10;}
</style>
<g class="st0" id="grid_system"/>
<g id="_icons">
<path d="M8,11h4c0.6,0,1-0.4,1-1s-0.4-1-1-1H8c-0.6,0-1,0.4-1,1S7.4,11,8,11z"/>
<path d="M10,18c1.9,0,3.6-0.6,4.9-1.7l4.4,4.4c0.2,0.2,0.5,0.3,0.7,0.3s0.5-0.1,0.7-0.3c0.4-0.4,0.4-1,0-1.4l-4.4-4.4   c1-1.4,1.7-3,1.7-4.9c0-4.4-3.6-8-8-8s-8,3.6-8,8S5.6,18,10,18z M10,4c3.3,0,6,2.7,6,6s-2.7,6-6,6s-6-2.7-6-6S6.7,4,10,4z"/>
</g>
</svg>